TwilioSansMono-Heavy.ufo
<glyph name="percent" format="2">
	<unicode hex="0025"/>
	<advance width="600"/>
	<outline>
		<contour>
			<point x="167" y="338" type="curve" smooth="yes"/>
			<point x="263" y="338"/>
			<point x="322" y="400"/>
			<point x="322" y="517" type="curve" smooth="yes"/>
			<point x="322" y="634"/>
			<point x="263" y="696"/>
			<point x="167" y="696" type="curve" smooth="yes"/>
			<point x="70" y="696"/>
			<point x="12" y="634"/>
			<point x="12" y="517" type="curve" smooth="yes"/>
			<point x="12" y="400"/>
			<point x="71" y="338"/>
		</contour>
		<contour>
			<point x="361" y="407" type="line"/>
			<point x="501" y="407" type="line"/>
			<point x="585" y="684" type="line"/>
			<point x="416" y="684" type="line"/>
		</contour>
		<contour>
			<point x="167" y="427" type="curve" smooth="yes"/>
			<point x="141" y="427"/>
			<point x="131" y="447"/>
			<point x="131" y="517" type="curve" smooth="yes"/>
			<point x="131" y="587"/>
			<point x="141" y="607"/>
			<point x="167" y="607" type="curve" smooth="yes"/>
			<point x="193" y="607"/>
			<point x="203" y="587"/>
			<point x="203" y="517" type="curve" smooth="yes"/>
			<point x="203" y="447"/>
			<point x="193" y="427"/>
		</contour>
		<contour>
			<point x="433" y="-12" type="curve" smooth="yes"/>
			<point x="534" y="-12"/>
			<point x="588" y="46"/>
			<point x="588" y="167" type="curve" smooth="yes"/>
			<point x="588" y="284"/>
			<point x="530" y="346"/>
			<point x="434" y="346" type="curve" smooth="yes"/>
			<point x="337" y="346"/>
			<point x="278" y="285"/>
			<point x="278" y="167" type="curve" smooth="yes"/>
			<point x="278" y="47"/>
			<point x="331" y="-12"/>
		</contour>
		<contour>
			<point x="15" y="0" type="line"/>
			<point x="184" y="0" type="line"/>
			<point x="240" y="278" type="line"/>
			<point x="99" y="278" type="line"/>
		</contour>
		<contour>
			<point x="434" y="77" type="curve" smooth="yes"/>
			<point x="408" y="77"/>
			<point x="397" y="94"/>
			<point x="397" y="167" type="curve" smooth="yes"/>
			<point x="397" y="239"/>
			<point x="408" y="257"/>
			<point x="434" y="257" type="curve" smooth="yes"/>
			<point x="459" y="257"/>
			<point x="469" y="237"/>
			<point x="469" y="167" type="curve" smooth="yes"/>
			<point x="469" y="95"/>
			<point x="460" y="77"/>
		</contour>
	</outline>
	<guideline x="14" y="0" angle="0" identifier="1RSr7P0r83"/>
	<guideline x="274" y="203" angle="90" identifier="Bg1vJibli2"/>
	<guideline x="205" y="518" angle="0" identifier="j1Epe6MBOH"/>
	<guideline x="167" y="608" angle="90" identifier="jCkf8trxSD"/>
</glyph>
<glyph name="ampersand" format="2">
	<unicode hex="0026"/>
	<advance width="600"/>
	<outline>
		<contour>
			<point x="218" y="-14" type="curve" smooth="yes"/>
			<point x="282" y="-14"/>
			<point x="336" y="3"/>
			<point x="382" y="32" type="curve"/>
			<point x="405" y="0" type="line"/>
			<point x="615" y="0" type="line"/>
			<point x="499" y="159" type="line"/>
			<point x="540" y="231"/>
			<point x="567" y="321"/>
			<point x="581" y="417" type="curve"/>
			<point x="424" y="416" type="line"/>
			<point x="418" y="372"/>
			<point x="409" y="332"/>
			<point x="399" y="295" type="curve"/>
			<point x="319" y="404" type="line" smooth="yes"/>
			<point x="291" y="442"/>
			<point x="280" y="466"/>
			<point x="280" y="488" type="curve" smooth="yes"/>
			<point x="280" y="524"/>
			<point x="304" y="545"/>
			<point x="347" y="545" type="curve" smooth="yes"/>
			<point x="399" y="545"/>
			<point x="434" y="531"/>
			<point x="487" y="506" type="curve"/>
			<point x="487" y="665" type="line"/>
			<point x="439" y="687"/>
			<point x="394" y="698"/>
			<point x="328" y="698" type="curve" smooth="yes"/>
			<point x="174" y="698"/>
			<point x="104" y="606"/>
			<point x="104" y="500" type="curve" smooth="yes"/>
			<point x="104" y="463"/>
			<point x="112" y="433"/>
			<point x="126" y="404" type="curve"/>
			<point x="47" y="356"/>
			<point x="3" y="284"/>
			<point x="3" y="186" type="curve" smooth="yes"/>
			<point x="3" y="69"/>
			<point x="76" y="-14"/>
		</contour>
		<contour>
			<point x="166" y="213" type="curve" smooth="yes"/>
			<point x="166" y="243"/>
			<point x="178" y="269"/>
			<point x="202" y="287" type="curve"/>
			<point x="303" y="144" type="line"/>
			<point x="287" y="135"/>
			<point x="270" y="130"/>
			<point x="251" y="130" type="curve" smooth="yes"/>
			<point x="197" y="130"/>
			<point x="166" y="164"/>
		</contour>
	</outline>
</glyph>
<glyph name="quotesingle" format="2">
	<unicode hex="0027"/>
	<advance width="600"/>
	<outline>
		<contour>
			<point x="236" y="457" type="line"/>
			<point x="364" y="457" type="line"/>
			<point x="397" y="750" type="line"/>
			<point x="203" y="750" type="line"/>
		</contour>
	</outline>
</glyph>
<glyph name="asterisk" format="2">
	<unicode hex="002A"/>
	<advance width="600"/>
	<outline>
		<contour>
			<point x="472" y="117" type="line"/>
			<point x="564" y="274" type="line"/>
			<point x="383" y="322" type="line"/>
			<point x="565" y="368" type="line"/>
			<point x="475" y="526" type="line"/>
			<point x="341" y="392" type="line"/>
			<point x="392" y="575" type="line"/>
			<point x="209" y="575" type="line"/>
			<point x="260" y="392" type="line"/>
			<point x="126" y="528" type="line"/>
			<point x="35" y="370" type="line"/>
			<point x="219" y="322" type="line"/>
			<point x="36" y="275" type="line"/>
			<point x="127" y="117" type="line"/>
			<point x="259" y="251" type="line"/>
			<point x="209" y="69" type="line"/>
			<point x="392" y="69" type="line"/>
			<point x="342" y="249" type="line"/>
		</contour>
	</outline>
	<guideline x="-250" y="573" angle="0" identifier="bAXqrvUwZm"/>
	<guideline x="203" y="540" angle="270" identifier="AN8bRQqRkJ"/>
	<guideline x="66" y="694" angle="0" identifier="JBnkEAIj9n"/>
</glyph>
<glyph name="plus" format="2">
	<unicode hex="002B"/>
	<advance width="600"/>
	<outline>
		<contour>
			<point x="216" y="540" type="line"/>
			<point x="216" y="379" type="line"/>
			<point x="58" y="379" type="line"/>
			<point x="58" y="218" type="line"/>
			<point x="216" y="218" type="line"/>
			<point x="216" y="58" type="line"/>
			<point x="384" y="58" type="line"/>
			<point x="384" y="218" type="line"/>
			<point x="542" y="218" type="line"/>
			<point x="542" y="379" type="line"/>
			<point x="384" y="379" type="line"/>
			<point x="384" y="540" type="line"/>
		</contour>
	</outline>
</glyph>
<glyph name="hyphen" format="2">
	<unicode hex="002D"/>
	<advance width="600"/>
	<outline>
		<contour>
			<point x="485" y="390" type="line"/>
			<point x="115" y="390" type="line"/>
			<point x="115" y="218" type="line"/>
			<point x="485" y="218" type="line"/>
		</contour>
	</outline>
</glyph>
<glyph name="period" format="2">
	<unicode hex="002E"/>
	<advance width="600"/>
	<outline>
		<contour>
			<point x="300" y="-12" type="curve" smooth="yes"/>
			<point x="383" y="-12"/>
			<point x="426" y="19"/>
			<point x="426" y="102" type="curve" smooth="yes"/>
			<point x="426" y="184"/>
			<point x="383" y="215"/>
			<point x="300" y="215" type="curve" smooth="yes"/>
			<point x="217" y="215"/>
			<point x="174" y="184"/>
			<point x="174" y="102" type="curve" smooth="yes"/>
			<point x="174" y="19"/>
			<point x="217" y="-12"/>
		</contour>
	</outline>
</glyph>
<glyph name="zero" format="2">
	<unicode hex="0030"/>
	<advance width="600"/>
	<outline>
		<contour>
			<point x="300" y="-14" type="curve" smooth="yes"/>
			<point x="475" y="-14"/>
			<point x="567" y="103"/>
			<point x="567" y="335" type="curve" smooth="yes"/>
			<point x="567" y="349" type="line" smooth="yes"/>
			<point x="567" y="581"/>
			<point x="475" y="698"/>
			<point x="300" y="698" type="curve" smooth="yes"/>
			<point x="125" y="698"/>
			<point x="33" y="581"/>
			<point x="33" y="349" type="curve" smooth="yes"/>
			<point x="33" y="335" type="line" smooth="yes"/>
			<point x="33" y="103"/>
			<point x="125" y="-14"/>
		</contour>
		<contour>
			<point x="300" y="145" type="curve" smooth="yes"/>
			<point x="241" y="145"/>
			<point x="210" y="179"/>
			<point x="210" y="338" type="curve" smooth="yes"/>
			<point x="210" y="345" type="line" smooth="yes"/>
			<point x="210" y="505"/>
			<point x="241" y="539"/>
			<point x="300" y="539" type="curve" smooth="yes"/>
			<point x="359" y="539"/>
			<point x="390" y="505"/>
			<point x="390" y="345" type="curve" smooth="yes"/>
			<point x="390" y="338" type="line" smooth="yes"/>
			<point x="390" y="179"/>
			<point x="359" y="145"/>
		</contour>
		<contour>
			<point x="300" y="243" type="curve" smooth="yes"/>
			<point x="346" y="243"/>
			<point x="369" y="271"/>
			<point x="369" y="342" type="curve" smooth="yes"/>
			<point x="369" y="413"/>
			<point x="346" y="441"/>
			<point x="300" y="441" type="curve" smooth="yes"/>
			<point x="254" y="441"/>
			<point x="231" y="412"/>
			<point x="231" y="342" type="curve" smooth="yes"/>
			<point x="231" y="271"/>
			<point x="254" y="243"/>
		</contour>
	</outline>
	<guideline x="298" y="559" angle="0"/>
</glyph>
<glyph name="two" format="2">
	<unicode hex="0032"/>
	<advance width="600"/>
	<outline>
		<contour>
			<point x="52" y="0" type="line"/>
			<point x="545" y="0" type="line"/>
			<point x="545" y="173" type="line"/>
			<point x="342" y="173" type="line"/>
			<point x="358" y="184" type="line" smooth="yes"/>
			<point x="469" y="259"/>
			<point x="537" y="337"/>
			<point x="537" y="465" type="curve" smooth="yes"/>
			<point x="537" y="592"/>
			<point x="471" y="698"/>
			<point x="297" y="698" type="curve" smooth="yes"/>
			<point x="197" y="698"/>
			<point x="115" y="665"/>
			<point x="53" y="620" type="curve"/>
			<point x="53" y="442" type="line"/>
			<point x="117" y="495"/>
			<point x="182" y="532"/>
			<point x="251" y="532" type="curve" smooth="yes"/>
			<point x="308" y="532"/>
			<point x="336" y="498"/>
			<point x="336" y="446" type="curve" smooth="yes"/>
			<point x="336" y="364"/>
			<point x="265" y="307"/>
			<point x="157" y="226" type="curve" smooth="yes"/>
			<point x="52" y="147" type="line"/>
		</contour>
	</outline>
	<guideline x="287" y="563" angle="0"/>
</glyph>
<glyph name="three" format="2">
	<unicode hex="0033"/>
	<advance width="600"/>
	<outline>
		<contour>
			<point x="273" y="-14" type="curve" smooth="yes"/>
			<point x="450" y="-14"/>
			<point x="549" y="85"/>
			<point x="549" y="230" type="curve" smooth="yes"/>
			<point x="549" y="330"/>
			<point x="507" y="398"/>
			<point x="408" y="419" type="curve"/>
			<point x="535" y="521" type="line"/>
			<point x="535" y="684" type="line"/>
			<point x="51" y="684" type="line"/>
			<point x="51" y="526" type="line"/>
			<point x="300" y="526" type="line"/>
			<point x="143" y="386" type="line"/>
			<point x="143" y="276" type="line"/>
			<point x="169" y="282"/>
			<point x="200" y="287"/>
			<point x="242" y="287" type="curve" smooth="yes"/>
			<point x="311" y="287"/>
			<point x="351" y="271"/>
			<point x="351" y="223" type="curve" smooth="yes"/>
			<point x="351" y="181"/>
			<point x="318" y="146"/>
			<point x="248" y="146" type="curve" smooth="yes"/>
			<point x="193" y="146"/>
			<point x="121" y="164"/>
			<point x="48" y="208" type="curve"/>
			<point x="48" y="39" type="line"/>
			<point x="102" y="12"/>
			<point x="166" y="-14"/>
		</contour>
	</outline>
	<guideline x="18" y="446" angle="90"/>
</glyph>
<glyph name="four" format="2">
	<unicode hex="0034"/>
	<advance width="600"/>
	<outline>
		<contour>
			<point x="313" y="0" type="line"/>
			<point x="508" y="0" type="line"/>
			<point x="508" y="127" type="line"/>
			<point x="564" y="127" type="line"/>
			<point x="564" y="282" type="line"/>
			<point x="508" y="282" type="line"/>
			<point x="508" y="684" type="line"/>
			<point x="205" y="684" type="line"/>
			<point x="23" y="285" type="line"/>
			<point x="23" y="128" type="line"/>
			<point x="313" y="128" type="line"/>
		</contour>
		<contour>
			<point x="193" y="282" type="line"/>
			<point x="313" y="546" type="line"/>
			<point x="313" y="282" type="line"/>
		</contour>
	</outline>
</glyph>
<glyph name="seven" format="2">
	<unicode hex="0037"/>
	<advance width="600"/>
	<outline>
		<contour>
			<point x="120" y="0" type="line"/>
			<point x="335" y="0" type="line"/>
			<point x="560" y="491" type="line"/>
			<point x="560" y="684" type="line"/>
			<point x="39" y="684" type="line"/>
			<point x="38" y="419" type="line"/>
			<point x="210" y="419" type="line"/>
			<point x="210" y="538" type="line"/>
			<point x="377" y="538" type="line"/>
		</contour>
	</outline>
</glyph>
<glyph name="eight" format="2">
	<unicode hex="0038"/>
	<advance width="600"/>
	<outline>
		<contour>
			<point x="300" y="-14" type="curve" smooth="yes"/>
			<point x="469" y="-14"/>
			<point x="572" y="47"/>
			<point x="572" y="182" type="curve" smooth="yes"/>
			<point x="572" y="281"/>
			<point x="514" y="329"/>
			<point x="436" y="348" type="curve"/>
			<point x="512" y="366"/>
			<point x="562" y="429"/>
			<point x="562" y="507" type="curve" smooth="yes"/>
			<point x="562" y="648"/>
			<point x="454" y="698"/>
			<point x="301" y="698" type="curve" smooth="yes"/>
			<point x="145" y="698"/>
			<point x="39" y="641"/>
			<point x="39" y="506" type="curve" smooth="yes"/>
			<point x="39" y="426"/>
			<point x="90" y="365"/>
			<point x="172" y="349" type="curve"/>
			<point x="88" y="330"/>
			<point x="28" y="280"/>
			<point x="28" y="177" type="curve" smooth="yes"/>
			<point x="28" y="43"/>
			<point x="129" y="-14"/>
		</contour>
		<contour>
			<point x="301" y="407" type="curve" smooth="yes"/>
			<point x="260" y="407"/>
			<point x="229" y="427"/>
			<point x="229" y="481" type="curve" smooth="yes"/>
			<point x="229" y="535"/>
			<point x="260" y="553"/>
			<point x="300" y="553" type="curve" smooth="yes"/>
			<point x="341" y="553"/>
			<point x="372" y="535"/>
			<point x="372" y="481" type="curve" smooth="yes"/>
			<point x="372" y="427"/>
			<point x="341" y="407"/>
		</contour>
		<contour>
			<point x="300" y="134" type="curve" smooth="yes"/>
			<point x="256" y="134"/>
			<point x="225" y="155"/>
			<point x="225" y="213" type="curve" smooth="yes"/>
			<point x="225" y="267"/>
			<point x="258" y="289"/>
			<point x="300" y="289" type="curve" smooth="yes"/>
			<point x="343" y="289"/>
			<point x="375" y="267"/>
			<point x="375" y="213" type="curve" smooth="yes"/>
			<point x="375" y="155"/>
			<point x="343" y="134"/>
		</contour>
	</outline>
	<guideline x="220" y="226" angle="90"/>
	<guideline x="407" y="226" angle="90"/>
</glyph>
<glyph name="less" format="2">
	<unicode hex="003C"/>
	<advance width="600"/>
	<outline>
		<contour>
			<point x="542" y="14" type="line"/>
			<point x="542" y="196" type="line"/>
			<point x="220" y="306" type="line"/>
			<point x="542" y="414" type="line"/>
			<point x="542" y="597" type="line"/>
			<point x="58" y="411" type="line"/>
			<point x="58" y="197" type="line"/>
		</contour>
	</outline>
</glyph>
<glyph name="question" format="2">
	<unicode hex="003F"/>
	<advance width="600"/>
	<outline>
		<contour>
			<point x="187" y="255" type="curve"/>
			<point x="360" y="255" type="line"/>
			<point x="360" y="270" type="line" smooth="yes"/>
			<point x="360" y="328"/>
			<point x="530" y="355"/>
			<point x="530" y="520" type="curve" smooth="yes"/>
			<point x="530" y="616"/>
			<point x="457" y="698"/>
			<point x="304" y="698" type="curve" smooth="yes"/>
			<point x="215" y="698"/>
			<point x="135" y="670"/>
			<point x="89" y="644" type="curve"/>
			<point x="89" y="479" type="line"/>
			<point x="130" y="504"/>
			<point x="191" y="532"/>
			<point x="254" y="532" type="curve" smooth="yes"/>
			<point x="313" y="532"/>
			<point x="334" y="505"/>
			<point x="334" y="482" type="curve" smooth="yes"/>
			<point x="334" y="414"/>
			<point x="180" y="403"/>
			<point x="180" y="290" type="curve" smooth="yes"/>
			<point x="180" y="277"/>
			<point x="182" y="268"/>
		</contour>
		<contour>
			<point x="272" y="-12" type="curve" smooth="yes"/>
			<point x="348" y="-12"/>
			<point x="387" y="16"/>
			<point x="387" y="92" type="curve" smooth="yes"/>
			<point x="387" y="165"/>
			<point x="349" y="195"/>
			<point x="272" y="195" type="curve" smooth="yes"/>
			<point x="193" y="195"/>
			<point x="155" y="165"/>
			<point x="155" y="92" type="curve" smooth="yes"/>
			<point x="155" y="16"/>
			<point x="194" y="-12"/>
		</contour>
	</outline>
</glyph>
<glyph name="A" format="2">
	<unicode hex="0041"/>
	<advance width="600"/>
	<outline>
		<contour>
			<point x="0" y="0" type="line"/>
			<point x="201" y="0" type="line"/>
			<point x="222" y="113" type="line"/>
			<point x="376" y="113" type="line"/>
			<point x="397" y="0" type="line"/>
			<point x="600" y="0" type="line"/>
			<point x="444" y="684" type="line"/>
			<point x="158" y="684" type="line"/>
		</contour>
		<contour>
			<point x="251" y="272" type="line"/>
			<point x="300" y="533" type="line"/>
			<point x="347" y="272" type="line"/>
		</contour>
	</outline>
	<anchor name="bottom" x="360" y="0"/>
	<anchor name="ogonek" x="599" y="0"/>
	<anchor name="top" x="301" y="684"/>
	<guideline x="606" y="580" angle="180"/>
	<guideline x="629" y="422" angle="90"/>
	<guideline x="475" y="279" angle="0"/>
</glyph>
<glyph name="B" format="2">
	<unicode hex="0042"/>
	<advance width="600"/>
	<outline>
		<contour>
			<point x="361" y="686" type="curve" smooth="yes"/>
			<point x="44" y="686" type="line"/>
			<point x="44" y="0" type="line"/>
			<point x="352" y="0" type="line" smooth="yes"/>
			<point x="492" y="0"/>
			<point x="585" y="82"/>
			<point x="585" y="191" type="curve" smooth="yes"/>
			<point x="585" y="293"/>
			<point x="526" y="341"/>
			<point x="411" y="355" type="curve"/>
			<point x="510" y="372"/>
			<point x="575" y="425"/>
			<point x="575" y="518" type="curve" smooth="yes"/>
			<point x="575" y="623"/>
			<point x="504" y="686"/>
		</contour>
		<contour>
			<point x="310" y="542" type="line" smooth="yes"/>
			<point x="356" y="542"/>
			<point x="374" y="518"/>
			<point x="374" y="480" type="curve" smooth="yes"/>
			<point x="374" y="440"/>
			<point x="353" y="415"/>
			<point x="310" y="415" type="curve" smooth="yes"/>
			<point x="240" y="415" type="line"/>
			<point x="240" y="542" type="line"/>
		</contour>
		<contour>
			<point x="305" y="276" type="line" smooth="yes"/>
			<point x="350" y="276"/>
			<point x="377" y="256"/>
			<point x="377" y="217" type="curve" smooth="yes"/>
			<point x="377" y="175"/>
			<point x="355" y="151"/>
			<point x="304" y="151" type="curve" smooth="yes"/>
			<point x="240" y="151" type="line"/>
			<point x="240" y="276" type="line"/>
		</contour>
	</outline>
	<anchor name="bottom" x="305" y="0"/>
	<anchor name="top" x="290" y="684"/>
	<guideline x="339" y="155" angle="90"/>
</glyph>
<glyph name="D" format="2">
	<unicode hex="0044"/>
	<advance width="600"/>
	<outline>
		<contour>
			<point x="42" y="0" type="line"/>
			<point x="314" y="0" type="line" smooth="yes"/>
			<point x="494" y="0"/>
			<point x="584" y="104"/>
			<point x="584" y="335" type="curve" smooth="yes"/>
			<point x="584" y="348" type="line" smooth="yes"/>
			<point x="584" y="580"/>
			<point x="487" y="684"/>
			<point x="307" y="684" type="curve" smooth="yes"/>
			<point x="42" y="684" type="line"/>
		</contour>
		<contour>
			<point x="280" y="527" type="line" smooth="yes"/>
			<point x="357" y="527"/>
			<point x="379" y="477"/>
			<point x="379" y="347" type="curve" smooth="yes"/>
			<point x="379" y="336" type="line" smooth="yes"/>
			<point x="379" y="208"/>
			<point x="363" y="159"/>
			<point x="285" y="159" type="curve" smooth="yes"/>
			<point x="240" y="159" type="line"/>
			<point x="240" y="527" type="line"/>
		</contour>
	</outline>
	<anchor name="bottom" x="307" y="0"/>
	<anchor name="center" x="159" y="342"/>
	<anchor name="top" x="287" y="684"/>
</glyph>
<glyph name="E" format="2">
	<unicode hex="0045"/>
	<advance width="600"/>
	<outline>
		<contour>
			<point x="60" y="684" type="line"/>
			<point x="60" y="0" type="line"/>
			<point x="558" y="0" type="line"/>
			<point x="558" y="160" type="line"/>
			<point x="258" y="160" type="line"/>
			<point x="258" y="263" type="line"/>
			<point x="512" y="263" type="line"/>
			<point x="512" y="421" type="line"/>
			<point x="258" y="421" type="line"/>
			<point x="258" y="525" type="line"/>
			<point x="555" y="525" type="line"/>
			<point x="555" y="684" type="line"/>
		</contour>
	</outline>
	<anchor name="bottom" x="309" y="0"/>
	<anchor name="ogonek" x="558" y="0"/>
	<anchor name="top" x="308" y="684"/>
</glyph>
<glyph name="I" format="2">
	<unicode hex="0049"/>
	<advance width="600"/>
	<outline>
		<contour>
			<point x="58" y="0" type="line"/>
			<point x="542" y="0" type="line"/>
			<point x="542" y="152" type="line"/>
			<point x="399" y="152" type="line"/>
			<point x="399" y="532" type="line"/>
			<point x="542" y="532" type="line"/>
			<point x="542" y="684" type="line"/>
			<point x="399" y="684" type="line"/>
			<point x="399" y="685" type="line"/>
			<point x="201" y="685" type="line"/>
			<point x="201" y="684" type="line"/>
			<point x="58" y="684" type="line"/>
			<point x="58" y="532" type="line"/>
			<point x="201" y="532" type="line"/>
			<point x="201" y="152" type="line"/>
			<point x="58" y="152" type="line"/>
		</contour>
	</outline>
	<anchor name="bottom" x="301" y="0"/>
	<anchor name="ogonek" x="542" y="0"/>
	<anchor name="top" x="300" y="684"/>
	<guideline x="613" y="268" angle="90"/>
</glyph>
<glyph name="J" format="2">
	<unicode hex="004A"/>
	<advance width="600"/>
	<outline>
		<contour>
			<point x="247" y="-12" type="curve" smooth="yes"/>
			<point x="412" y="-12"/>
			<point x="531" y="49"/>
			<point x="531" y="238" type="curve" smooth="yes"/>
			<point x="531" y="684" type="line"/>
			<point x="67" y="684" type="line"/>
			<point x="67" y="515" type="line"/>
			<point x="333" y="515" type="line"/>
			<point x="333" y="269" type="line" smooth="yes"/>
			<point x="333" y="186"/>
			<point x="292" y="151"/>
			<point x="205" y="151" type="curve" smooth="yes"/>
			<point x="162" y="151"/>
			<point x="108" y="160"/>
			<point x="67" y="173" type="curve"/>
			<point x="66" y="14" type="line"/>
			<point x="116" y="-3"/>
			<point x="169" y="-12"/>
		</contour>
	</outline>
	<anchor name="bottom" x="77" y="0"/>
	<anchor name="top" x="309" y="684"/>
	<guideline x="70" y="404" angle="90"/>
</glyph>
<glyph name="K" format="2">
	<unicode hex="004B"/>
	<advance width="600"/>
	<outline>
		<contour>
			<point x="37" y="0" type="line"/>
			<point x="235" y="0" type="line"/>
			<point x="235" y="196" type="line"/>
			<point x="275" y="264" type="line"/>
			<point x="381" y="0" type="line"/>
			<point x="602" y="0" type="line"/>
			<point x="432" y="397" type="line"/>
			<point x="584" y="684" type="line"/>
			<point x="362" y="684" type="line"/>
			<point x="235" y="406" type="line"/>
			<point x="235" y="684" type="line"/>
			<point x="37" y="684" type="line"/>
		</contour>
	</outline>
	<anchor name="bottom" x="315" y="0"/>
	<anchor name="top" x="295" y="684"/>
</glyph>
<glyph name="P" format="2">
	<unicode hex="0050"/>
	<advance width="600"/>
	<outline>
		<contour>
			<point x="51" y="0" type="line"/>
			<point x="249" y="0" type="line"/>
			<point x="249" y="183" type="line"/>
			<point x="348" y="183" type="line" smooth="yes"/>
			<point x="502" y="183"/>
			<point x="592" y="281"/>
			<point x="592" y="438" type="curve" smooth="yes"/>
			<point x="592" y="591"/>
			<point x="501" y="684"/>
			<point x="348" y="684" type="curve" smooth="yes"/>
			<point x="51" y="684" type="line"/>
		</contour>
		<contour>
			<point x="309" y="528" type="line" smooth="yes"/>
			<point x="375" y="528"/>
			<point x="395" y="490"/>
			<point x="395" y="436" type="curve" smooth="yes"/>
			<point x="395" y="379"/>
			<point x="375" y="339"/>
			<point x="309" y="339" type="curve" smooth="yes"/>
			<point x="249" y="339" type="line"/>
			<point x="249" y="528" type="line"/>
		</contour>
	</outline>
	<anchor name="bottom" x="173" y="0"/>
	<anchor name="top" x="329" y="684"/>
	<guideline x="520" y="551" angle="0"/>
</glyph>
<glyph name="Q" format="2">
	<unicode hex="0051"/>
	<advance width="600"/>
	<outline>
		<contour>
			<point x="371" y="-93" type="curve" smooth="yes"/>
			<point x="477" y="-126" type="line"/>
			<point x="554" y="24" type="line"/>
			<point x="420" y="60" type="line"/>
			<point x="534" y="102"/>
			<point x="567" y="214"/>
			<point x="567" y="356" type="curve" smooth="yes"/>
			<point x="567" y="369" type="line" smooth="yes"/>
			<point x="567" y="581"/>
			<point x="475" y="698"/>
			<point x="300" y="698" type="curve" smooth="yes"/>
			<point x="125" y="698"/>
			<point x="33" y="581"/>
			<point x="33" y="349" type="curve" smooth="yes"/>
			<point x="33" y="335" type="line" smooth="yes"/>
			<point x="33" y="85"/>
			<point x="124" y="-16"/>
		</contour>
		<contour>
			<point x="300" y="145" type="curve" smooth="yes"/>
			<point x="254" y="145"/>
			<point x="230" y="179"/>
			<point x="230" y="338" type="curve" smooth="yes"/>
			<point x="230" y="345" type="line" smooth="yes"/>
			<point x="230" y="505"/>
			<point x="254" y="539"/>
			<point x="300" y="539" type="curve" smooth="yes"/>
			<point x="346" y="539"/>
			<point x="370" y="505"/>
			<point x="370" y="345" type="curve" smooth="yes"/>
			<point x="370" y="338" type="line" smooth="yes"/>
			<point x="370" y="179"/>
			<point x="346" y="145"/>
		</contour>
	</outline>
	<anchor name="bottom" x="285" y="0"/>
	<anchor name="top" x="277" y="684"/>
	<guideline x="380" y="570" angle="90"/>
</glyph>
<glyph name="T" format="2">
	<unicode hex="0054"/>
	<advance width="600"/>
	<outline>
		<contour>
			<point x="200" y="0" type="line"/>
			<point x="398" y="0" type="line"/>
			<point x="398" y="515" type="line"/>
			<point x="582" y="515" type="line"/>
			<point x="582" y="684" type="line"/>
			<point x="18" y="684" type="line"/>
			<point x="18" y="515" type="line"/>
			<point x="200" y="515" type="line"/>
		</contour>
	</outline>
	<anchor name="bottom" x="299" y="0"/>
	<anchor name="center" x="299" y="324"/>
	<anchor name="top" x="300" y="684"/>
</glyph>
<glyph name="W" format="2">
	<unicode hex="0057"/>
	<advance width="600"/>
	<outline>
		<contour>
			<point x="62" y="0" type="line"/>
			<point x="261" y="0" type="line"/>
			<point x="293" y="339" type="line"/>
			<point x="303" y="339" type="line"/>
			<point x="335" y="0" type="line"/>
			<point x="536" y="0" type="line"/>
			<point x="588" y="684" type="line"/>
			<point x="429" y="685" type="line"/>
			<point x="414" y="183" type="line"/>
			<point x="404" y="183" type="line"/>
			<point x="367" y="554" type="line"/>
			<point x="232" y="554" type="line"/>
			<point x="191" y="183" type="line"/>
			<point x="183" y="183" type="line"/>
			<point x="171" y="684" type="line"/>
			<point x="12" y="684" type="line"/>
		</contour>
	</outline>
	<anchor name="top" x="300" y="684"/>
</glyph>
<glyph name="Z" format="2">
	<unicode hex="005A"/>
	<advance width="600"/>
	<outline>
		<contour>
			<point x="36" y="0" type="line"/>
			<point x="562" y="0" type="line"/>
			<point x="562" y="160" type="line"/>
			<point x="285" y="160" type="line"/>
			<point x="562" y="509" type="line"/>
			<point x="562" y="684" type="line"/>
			<point x="49" y="684" type="line"/>
			<point x="49" y="525" type="line"/>
			<point x="339" y="525" type="line"/>
			<point x="36" y="157" type="line"/>
		</contour>
	</outline>
	<anchor name="bottom" x="300" y="0"/>
	<anchor name="top" x="304" y="684"/>
</glyph>
<glyph name="bracketleft" format="2">
	<unicode hex="005B"/>
	<advance width="600"/>
	<outline>
		<contour>
			<point x="518" y="-26" type="line"/>
			<point x="325" y="-26" type="line"/>
			<point x="325" y="655" type="line"/>
			<point x="518" y="655" type="line"/>
			<point x="518" y="792" type="line"/>
			<point x="144" y="792" type="line"/>
			<point x="144" y="-163" type="line"/>
			<point x="518" y="-163" type="line"/>
		</contour>
	</outline>
</glyph>
<glyph name="grave" format="2">
	<unicode hex="0060"/>
	<advance width="600"/>
	<outline>
		<contour>
			<point x="153" y="750" type="line"/>
			<point x="257" y="597" type="line"/>
			<point x="399" y="597" type="line"/>
			<point x="360" y="750" type="line"/>
		</contour>
	</outline>
	<anchor name="_top" x="324" y="523"/>
</glyph>
<glyph name="a" format="2">
	<unicode hex="0061"/>
	<advance width="600"/>
	<outline>
		<contour>
			<point x="197" y="-14" type="curve" smooth="yes"/>
			<point x="272" y="-14"/>
			<point x="325" y="26"/>
			<point x="358" y="89" type="curve"/>
			<point x="358" y="0" type="line"/>
			<point x="542" y="0" type="line"/>
			<point x="542" y="347" type="line" smooth="yes"/>
			<point x="542" y="473"/>
			<point x="460" y="537"/>
			<point x="300" y="537" type="curve" smooth="yes"/>
			<point x="206" y="537"/>
			<point x="117" y="513"/>
			<point x="65" y="486" type="curve"/>
			<point x="65" y="331" type="line"/>
			<point x="122" y="363"/>
			<point x="200" y="387"/>
			<point x="264" y="387" type="curve" smooth="yes"/>
			<point x="321" y="387"/>
			<point x="350" y="367"/>
			<point x="350" y="330" type="curve" smooth="yes"/>
			<point x="350" y="325" type="line"/>
			<point x="257" y="313" type="line" smooth="yes"/>
			<point x="116" y="294"/>
			<point x="46" y="230"/>
			<point x="46" y="133" type="curve" smooth="yes"/>
			<point x="46" y="41"/>
			<point x="108" y="-14"/>
		</contour>
		<contour>
			<point x="285" y="114" type="curve" smooth="yes"/>
			<point x="251" y="114"/>
			<point x="227" y="132"/>
			<point x="227" y="164" type="curve" smooth="yes"/>
			<point x="227" y="191"/>
			<point x="243" y="215"/>
			<point x="291" y="221" type="curve" smooth="yes"/>
			<point x="350" y="229" type="line"/>
			<point x="350" y="167" type="line" smooth="yes"/>
			<point x="350" y="132"/>
			<point x="319" y="114"/>
		</contour>
	</outline>
	<anchor name="bottom" x="306" y="0"/>
	<anchor name="ogonek" x="542" y="0"/>
	<anchor name="top" x="300" y="523"/>
</glyph>
<glyph name="b" format="2">
	<unicode hex="0062"/>
	<advance width="600"/>
	<outline>
		<contour>
			<point x="391" y="-14" type="curve" smooth="yes"/>
			<point x="492" y="-14"/>
			<point x="567" y="81"/>
			<point x="567" y="255" type="curve" smooth="yes"/>
			<point x="567" y="269" type="line" smooth="yes"/>
			<point x="567" y="438"/>
			<point x="509" y="537"/>
			<point x="400" y="537" type="curve" smooth="yes"/>
			<point x="327" y="537"/>
			<point x="276" y="490"/>
			<point x="238" y="425" type="curve"/>
			<point x="238" y="750" type="line"/>
			<point x="43" y="750" type="line"/>
			<point x="43" y="0" type="line"/>
			<point x="228" y="0" type="line"/>
			<point x="228" y="94" type="line"/>
			<point x="268" y="21"/>
			<point x="318" y="-14"/>
		</contour>
		<contour>
			<point x="300" y="135" type="curve" smooth="yes"/>
			<point x="253" y="135"/>
			<point x="229" y="175"/>
			<point x="229" y="258" type="curve" smooth="yes"/>
			<point x="229" y="265" type="line" smooth="yes"/>
			<point x="229" y="349"/>
			<point x="253" y="389"/>
			<point x="300" y="389" type="curve" smooth="yes"/>
			<point x="347" y="389"/>
			<point x="369" y="353"/>
			<point x="369" y="265" type="curve" smooth="yes"/>
			<point x="369" y="258" type="line" smooth="yes"/>
			<point x="369" y="171"/>
			<point x="347" y="135"/>
		</contour>
	</outline>
	<guideline x="375" y="351" angle="90"/>
	<guideline x="257" y="387" angle="90"/>
	<guideline x="504" y="537" angle="90"/>
</glyph>
<glyph name="c" format="2">
	<unicode hex="0063"/>
	<advance width="600"/>
	<outline>
		<contour>
			<point x="369" y="-12" type="curve" smooth="yes"/>
			<point x="449" y="-12"/>
			<point x="497" y="6"/>
			<point x="525" y="20" type="curve"/>
			<point x="525" y="164" type="line"/>
			<point x="499" y="153"/>
			<point x="456" y="140"/>
			<point x="406" y="140" type="curve" smooth="yes"/>
			<point x="323" y="140"/>
			<point x="269" y="173"/>
			<point x="269" y="259" type="curve" smooth="yes"/>
			<point x="269" y="266" type="line" smooth="yes"/>
			<point x="269" y="353"/>
			<point x="321" y="383"/>
			<point x="405" y="383" type="curve" smooth="yes"/>
			<point x="455" y="383"/>
			<point x="498" y="373"/>
			<point x="525" y="359" type="curve"/>
			<point x="525" y="504" type="line"/>
			<point x="494" y="521"/>
			<point x="439" y="535"/>
			<point x="372" y="535" type="curve" smooth="yes"/>
			<point x="187" y="535"/>
			<point x="72" y="432"/>
			<point x="72" y="268" type="curve" smooth="yes"/>
			<point x="72" y="254" type="line" smooth="yes"/>
			<point x="72" y="90"/>
			<point x="172" y="-12"/>
		</contour>
	</outline>
	<anchor name="bottom" x="354" y="0"/>
	<anchor name="top" x="372" y="523"/>
</glyph>
<glyph name="d" format="2">
	<unicode hex="0064"/>
	<advance width="600"/>
	<outline>
		<contour>
			<point x="203" y="-14" type="curve" smooth="yes"/>
			<point x="278" y="-14"/>
			<point x="332" y="36"/>
			<point x="371" y="104" type="curve"/>
			<point x="371" y="0" type="line"/>
			<point x="557" y="0" type="line"/>
			<point x="557" y="750" type="line"/>
			<point x="362" y="750" type="line"/>
			<point x="362" y="429" type="line"/>
			<point x="327" y="493"/>
			<point x="286" y="537"/>
			<point x="217" y="537" type="curve" smooth="yes"/>
			<point x="116" y="537"/>
			<point x="33" y="442"/>
			<point x="33" y="266" type="curve" smooth="yes"/>
			<point x="33" y="258" type="line" smooth="yes"/>
			<point x="33" y="85"/>
			<point x="90" y="-14"/>
		</contour>
		<contour>
			<point x="300" y="134" type="curve" smooth="yes"/>
			<point x="253" y="134"/>
			<point x="231" y="170"/>
			<point x="231" y="258" type="curve" smooth="yes"/>
			<point x="231" y="264" type="line" smooth="yes"/>
			<point x="231" y="352"/>
			<point x="253" y="388"/>
			<point x="300" y="388" type="curve" smooth="yes"/>
			<point x="347" y="388"/>
			<point x="371" y="348"/>
			<point x="371" y="264" type="curve" smooth="yes"/>
			<point x="371" y="258" type="line" smooth="yes"/>
			<point x="371" y="174"/>
			<point x="347" y="134"/>
		</contour>
	</outline>
	<anchor name="caron" x="600" y="750"/>
	<anchor name="center" x="411" y="634"/>
	<anchor name="top" x="345" y="550"/>
	<guideline x="414" y="638" angle="0"/>
</glyph>
<glyph name="e" format="2">
	<unicode hex="0065"/>
	<advance width="600"/>
	<outline>
		<contour>
			<point x="337" y="-14" type="curve" smooth="yes"/>
			<point x="409" y="-14"/>
			<point x="481" y="-1"/>
			<point x="535" y="25" type="curve"/>
			<point x="535" y="162" type="line"/>
			<point x="487" y="149"/>
			<point x="431" y="139"/>
			<point x="383" y="139" type="curve" smooth="yes"/>
			<point x="290" y="139"/>
			<point x="240" y="170"/>
			<point x="231" y="214" type="curve"/>
			<point x="563" y="214" type="line"/>
			<point x="563" y="283" type="line" smooth="yes"/>
			<point x="563" y="448"/>
			<point x="468" y="537"/>
			<point x="305" y="537" type="curve" smooth="yes"/>
			<point x="148" y="537"/>
			<point x="38" y="434"/>
			<point x="38" y="269" type="curve" smooth="yes"/>
			<point x="38" y="255" type="line" smooth="yes"/>
			<point x="38" y="71"/>
			<point x="152" y="-14"/>
		</contour>
		<contour>
			<point x="305" y="405" type="curve" smooth="yes"/>
			<point x="352" y="405"/>
			<point x="375" y="372"/>
			<point x="378" y="315" type="curve"/>
			<point x="226" y="315" type="line"/>
			<point x="229" y="364"/>
			<point x="252" y="405"/>
		</contour>
	</outline>
	<anchor name="ogonek" x="462" y="0"/>
	<anchor name="top" x="305" y="523"/>
</glyph>
<glyph name="f" format="2">
	<unicode hex="0066"/>
	<advance width="600"/>
	<outline>
		<contour>
			<point x="35" y="0" type="line"/>
			<point x="540" y="0" type="line"/>
			<point x="540" y="149" type="line"/>
			<point x="370" y="149" type="line"/>
			<point x="370" y="374" type="line"/>
			<point x="547" y="374" type="line"/>
			<point x="547" y="523" type="line"/>
			<point x="370" y="523" type="line"/>
			<point x="370" y="562" type="line" smooth="yes"/>
			<point x="370" y="603"/>
			<point x="398" y="618"/>
			<point x="455" y="618" type="curve" smooth="yes"/>
			<point x="486" y="618"/>
			<point x="527" y="613"/>
			<point x="544" y="605" type="curve"/>
			<point x="544" y="740" type="line"/>
			<point x="524" y="748"/>
			<point x="478" y="760"/>
			<point x="405" y="760" type="curve" smooth="yes"/>
			<point x="273" y="760"/>
			<point x="175" y="722"/>
			<point x="175" y="582" type="curve" smooth="yes"/>
			<point x="175" y="523" type="line"/>
			<point x="37" y="523" type="line"/>
			<point x="37" y="374" type="line"/>
			<point x="175" y="374" type="line"/>
			<point x="175" y="149" type="line"/>
			<point x="35" y="149" type="line"/>
		</contour>
	</outline>
	<guideline x="317" y="1" angle="90"/>
</glyph>
<glyph name="g" format="2">
	<unicode hex="0067"/>
	<advance width="600"/>
	<outline>
		<contour>
			<point x="233" y="-211" type="curve" smooth="yes"/>
			<point x="252" y="-211" type="line" smooth="yes"/>
			<point x="468" y="-211"/>
			<point x="583" y="-128"/>
			<point x="583" y="-5" type="curve" smooth="yes"/>
			<point x="583" y="91"/>
			<point x="514" y="117"/>
			<point x="389" y="117" type="curve" smooth="yes"/>
			<point x="259" y="117" type="line" smooth="yes"/>
			<point x="222" y="117"/>
			<point x="204" y="120"/>
			<point x="204" y="135" type="curve" smooth="yes"/>
			<point x="204" y="153"/>
			<point x="230" y="165"/>
			<point x="255" y="165" type="curve" smooth="yes"/>
			<point x="285" y="165" type="line" smooth="yes"/>
			<point x="413" y="165"/>
			<point x="525" y="226"/>
			<point x="525" y="353" type="curve" smooth="yes"/>
			<point x="525" y="360"/>
			<point x="525" y="367"/>
			<point x="524" y="374" type="curve"/>
			<point x="598" y="374" type="line"/>
			<point x="598" y="523" type="line"/>
			<point x="283" y="523" type="line" smooth="yes"/>
			<point x="154" y="523"/>
			<point x="38" y="465"/>
			<point x="38" y="337" type="curve" smooth="yes"/>
			<point x="38" y="256"/>
			<point x="81" y="206"/>
			<point x="163" y="180" type="curve"/>
			<point x="68" y="150"/>
			<point x="30" y="112"/>
			<point x="30" y="63" type="curve" smooth="yes"/>
			<point x="30" y="23"/>
			<point x="52" y="-12"/>
			<point x="152" y="-18" type="curve"/>
			<point x="43" y="-43"/>
			<point x="-4" y="-70"/>
			<point x="-4" y="-118" type="curve" smooth="yes"/>
			<point x="-4" y="-197"/>
			<point x="118" y="-211"/>
		</contour>
		<contour>
			<point x="283" y="270" type="curve" smooth="yes"/>
			<point x="240" y="270"/>
			<point x="221" y="297"/>
			<point x="221" y="340" type="curve" smooth="yes"/>
			<point x="221" y="383"/>
			<point x="240" y="409"/>
			<point x="283" y="409" type="curve" smooth="yes"/>
			<point x="326" y="409"/>
			<point x="345" y="383"/>
			<point x="345" y="340" type="curve" smooth="yes"/>
			<point x="345" y="297"/>
			<point x="326" y="270"/>
		</contour>
		<contour>
			<point x="295" y="-101" type="curve" smooth="yes"/>
			<point x="264" y="-101" type="line"/>
			<point x="214" y="-101"/>
			<point x="182" y="-93"/>
			<point x="182" y="-68" type="curve" smooth="yes"/>
			<point x="182" y="-42"/>
			<point x="219" y="-25"/>
			<point x="263" y="-25" type="curve" smooth="yes"/>
			<point x="334" y="-25" type="line" smooth="yes"/>
			<point x="370" y="-25"/>
			<point x="395" y="-31"/>
			<point x="395" y="-57" type="curve" smooth="yes"/>
			<point x="395" y="-93"/>
			<point x="345" y="-101"/>
		</contour>
	</outline>
	<anchor name="bottom" x="316" y="-227"/>
	<anchor name="top" x="293" y="523"/>
	<guideline x="111" y="170" angle="0"/>
	<guideline x="173" y="192" angle="0"/>
</glyph>
<glyph name="i" format="2">
	<unicode hex="0069"/>
	<advance width="600"/>
	<outline>
		<contour>
			<point x="322" y="582" type="curve" smooth="yes"/>
			<point x="403" y="582"/>
			<point x="435" y="609"/>
			<point x="435" y="671" type="curve" smooth="yes"/>
			<point x="435" y="733"/>
			<point x="400" y="760"/>
			<point x="322" y="760" type="curve" smooth="yes"/>
			<point x="247" y="760"/>
			<point x="211" y="734"/>
			<point x="211" y="671" type="curve" smooth="yes"/>
			<point x="211" y="609"/>
			<point x="243" y="582"/>
		</contour>
		<contour>
			<point x="62" y="0" type="line"/>
			<point x="567" y="0" type="line"/>
			<point x="567" y="149" type="line"/>
			<point x="419" y="149" type="line"/>
			<point x="419" y="523" type="line"/>
			<point x="64" y="523" type="line"/>
			<point x="64" y="374" type="line"/>
			<point x="224" y="374" type="line"/>
			<point x="224" y="149" type="line"/>
			<point x="62" y="149" type="line"/>
		</contour>
	</outline>
	<anchor name="ogonek" x="562" y="0"/>
	<guideline x="322" y="582" angle="0"/>
</glyph>
<glyph name="j" format="2">
	<unicode hex="006A"/>
	<advance width="600"/>
	<outline>
		<contour>
			<point x="399" y="582" type="curve" smooth="yes"/>
			<point x="480" y="582"/>
			<point x="512" y="609"/>
			<point x="512" y="671" type="curve" smooth="yes"/>
			<point x="512" y="733"/>
			<point x="477" y="760"/>
			<point x="399" y="760" type="curve" smooth="yes"/>
			<point x="324" y="760"/>
			<point x="288" y="734"/>
			<point x="288" y="671" type="curve" smooth="yes"/>
			<point x="288" y="609"/>
			<point x="320" y="582"/>
		</contour>
		<contour>
			<point x="221" y="-204" type="curve" smooth="yes"/>
			<point x="376" y="-204"/>
			<point x="496" y="-156"/>
			<point x="496" y="33" type="curve" smooth="yes"/>
			<point x="496" y="523" type="line"/>
			<point x="67" y="523" type="line"/>
			<point x="67" y="374" type="line"/>
			<point x="301" y="374" type="line"/>
			<point x="301" y="47" type="line" smooth="yes"/>
			<point x="301" y="-26"/>
			<point x="262" y="-49"/>
			<point x="183" y="-49" type="curve" smooth="yes"/>
			<point x="138" y="-49"/>
			<point x="96" y="-42"/>
			<point x="66" y="-33" type="curve"/>
			<point x="66" y="-181" type="line"/>
			<point x="104" y="-195"/>
			<point x="165" y="-204"/>
		</contour>
	</outline>
</glyph>
<glyph name="k" format="2">
	<unicode hex="006B"/>
	<advance width="600"/>
	<outline>
		<contour>
			<point x="48" y="0" type="line"/>
			<point x="242" y="0" type="line"/>
			<point x="242" y="134" type="line"/>
			<point x="291" y="200" type="line"/>
			<point x="386" y="0" type="line"/>
			<point x="602" y="0" type="line"/>
			<point x="445" y="314" type="line"/>
			<point x="593" y="525" type="line"/>
			<point x="381" y="525" type="line"/>
			<point x="242" y="310" type="line"/>
			<point x="242" y="750" type="line"/>
			<point x="48" y="750" type="line"/>
		</contour>
	</outline>
	<anchor name="bottom" x="310" y="0"/>
	<anchor name="top" x="181" y="523"/>
</glyph>
<glyph name="m" format="2">
	<unicode hex="006D"/>
	<advance width="600"/>
	<outline>
		<contour>
			<point x="24" y="0" type="line"/>
			<point x="166" y="0" type="line"/>
			<point x="166" y="341" type="line" smooth="yes"/>
			<point x="166" y="354"/>
			<point x="169" y="365"/>
			<point x="176" y="373" type="curve" smooth="yes"/>
			<point x="183" y="381"/>
			<point x="191" y="385"/>
			<point x="203" y="385" type="curve" smooth="yes"/>
			<point x="228" y="385"/>
			<point x="239" y="370"/>
			<point x="239" y="338" type="curve" smooth="yes"/>
			<point x="239" y="0" type="line"/>
			<point x="361" y="0" type="line"/>
			<point x="361" y="341" type="line"/>
			<point x="361" y="354"/>
			<point x="363" y="366"/>
			<point x="371" y="374" type="curve" smooth="yes"/>
			<point x="378" y="381"/>
			<point x="386" y="385"/>
			<point x="398" y="385" type="curve" smooth="yes"/>
			<point x="423" y="385"/>
			<point x="434" y="370"/>
			<point x="434" y="338" type="curve" smooth="yes"/>
			<point x="434" y="0" type="line"/>
			<point x="576" y="0" type="line"/>
			<point x="576" y="361" type="line" smooth="yes"/>
			<point x="576" y="439"/>
			<point x="576" y="537"/>
			<point x="478" y="537" type="curve" smooth="yes"/>
			<point x="423" y="537"/>
			<point x="386" y="500"/>
			<point x="361" y="422" type="curve"/>
			<point x="361" y="433" type="line" smooth="yes"/>
			<point x="361" y="484"/>
			<point x="335" y="537"/>
			<point x="274" y="537" type="curve" smooth="yes"/>
			<point x="212" y="537"/>
			<point x="184" y="492"/>
			<point x="159" y="420" type="curve"/>
			<point x="159" y="523" type="line"/>
			<point x="24" y="523" type="line"/>
		</contour>
	</outline>
	<anchor name="bottom" x="307" y="0"/>
	<anchor name="top" x="351" y="523"/>
	<guideline x="226" y="402" angle="0"/>
	<guideline x="574" y="370" angle="90"/>
</glyph>
<glyph name="o" format="2">
	<unicode hex="006F"/>
	<advance width="600"/>
	<outline>
		<contour>
			<point x="300" y="-14" type="curve" smooth="yes"/>
			<point x="466" y="-14"/>
			<point x="569" y="89"/>
			<point x="569" y="255" type="curve" smooth="yes"/>
			<point x="569" y="269" type="line" smooth="yes"/>
			<point x="569" y="432"/>
			<point x="466" y="537"/>
			<point x="300" y="537" type="curve" smooth="yes"/>
			<point x="134" y="537"/>
			<point x="31" y="432"/>
			<point x="31" y="269" type="curve" smooth="yes"/>
			<point x="31" y="255" type="line" smooth="yes"/>
			<point x="31" y="89"/>
			<point x="134" y="-14"/>
		</contour>
		<contour>
			<point x="300" y="135" type="curve" smooth="yes"/>
			<point x="252" y="135"/>
			<point x="229" y="171"/>
			<point x="229" y="258" type="curve" smooth="yes"/>
			<point x="229" y="265" type="line" smooth="yes"/>
			<point x="229" y="353"/>
			<point x="252" y="389"/>
			<point x="300" y="389" type="curve" smooth="yes"/>
			<point x="348" y="389"/>
			<point x="372" y="353"/>
			<point x="372" y="265" type="curve" smooth="yes"/>
			<point x="372" y="258" type="line" smooth="yes"/>
			<point x="372" y="171"/>
			<point x="348" y="135"/>
		</contour>
	</outline>
	<anchor name="bottom" x="297" y="-15"/>
	<anchor name="center" x="299" y="261"/>
	<anchor name="top" x="301" y="523"/>
</glyph>
<glyph name="p" format="2">
	<unicode hex="0070"/>
	<advance width="600"/>
	<outline>
		<contour>
			<point x="43" y="-194" type="line"/>
			<point x="238" y="-194" type="line"/>
			<point x="238" y="89" type="line"/>
			<point x="277" y="20"/>
			<point x="324" y="-14"/>
			<point x="391" y="-14" type="curve" smooth="yes"/>
			<point x="492" y="-14"/>
			<point x="567" y="81"/>
			<point x="567" y="258" type="curve" smooth="yes"/>
			<point x="567" y="266" type="line" smooth="yes"/>
			<point x="567" y="438"/>
			<point x="509" y="537"/>
			<point x="400" y="537" type="curve" smooth="yes"/>
			<point x="321" y="537"/>
			<point x="267" y="486"/>
			<point x="228" y="417" type="curve"/>
			<point x="228" y="523" type="line"/>
			<point x="43" y="523" type="line"/>
		</contour>
		<contour>
			<point x="300" y="135" type="curve" smooth="yes"/>
			<point x="253" y="135"/>
			<point x="229" y="175"/>
			<point x="229" y="259" type="curve" smooth="yes"/>
			<point x="229" y="265" type="line" smooth="yes"/>
			<point x="229" y="349"/>
			<point x="253" y="389"/>
			<point x="300" y="389" type="curve" smooth="yes"/>
			<point x="347" y="389"/>
			<point x="369" y="353"/>
			<point x="369" y="265" type="curve" smooth="yes"/>
			<point x="369" y="259" type="line" smooth="yes"/>
			<point x="369" y="171"/>
			<point x="347" y="135"/>
		</contour>
	</outline>
	<anchor name="bottom" x="178" y="-200"/>
	<anchor name="top" x="349" y="523"/>
</glyph>
<glyph name="q" format="2">
	<unicode hex="0071"/>
	<advance width="600"/>
	<outline>
		<contour>
			<point x="361" y="-194" type="line"/>
			<point x="557" y="-194" type="line"/>
			<point x="557" y="523" type="line"/>
			<point x="372" y="523" type="line"/>
			<point x="372" y="423" type="line"/>
			<point x="335" y="490"/>
			<point x="292" y="537"/>
			<point x="217" y="537" type="curve" smooth="yes"/>
			<point x="116" y="537"/>
			<point x="33" y="442"/>
			<point x="33" y="266" type="curve" smooth="yes"/>
			<point x="33" y="258" type="line" smooth="yes"/>
			<point x="33" y="85"/>
			<point x="90" y="-14"/>
			<point x="203" y="-14" type="curve" smooth="yes"/>
			<point x="273" y="-14"/>
			<point x="324" y="30"/>
			<point x="361" y="93" type="curve"/>
		</contour>
		<contour>
			<point x="300" y="134" type="curve" smooth="yes"/>
			<point x="253" y="134"/>
			<point x="231" y="170"/>
			<point x="231" y="258" type="curve" smooth="yes"/>
			<point x="231" y="264" type="line" smooth="yes"/>
			<point x="231" y="352"/>
			<point x="253" y="388"/>
			<point x="300" y="388" type="curve" smooth="yes"/>
			<point x="347" y="388"/>
			<point x="371" y="348"/>
			<point x="371" y="264" type="curve" smooth="yes"/>
			<point x="371" y="258" type="line" smooth="yes"/>
			<point x="371" y="174"/>
			<point x="347" y="134"/>
		</contour>
	</outline>
</glyph>
<glyph name="r" format="2">
	<unicode hex="0072"/>
	<advance width="600"/>
	<outline>
		<contour>
			<point x="51" y="0" type="line"/>
			<point x="518" y="0" type="line"/>
			<point x="518" y="149" type="line"/>
			<point x="367" y="149" type="line"/>
			<point x="367" y="241" type="line" smooth="yes"/>
			<point x="367" y="306"/>
			<point x="410" y="342"/>
			<point x="478" y="342" type="curve" smooth="yes"/>
			<point x="510" y="342"/>
			<point x="543" y="336"/>
			<point x="561" y="330" type="curve"/>
			<point x="561" y="525" type="line"/>
			<point x="552" y="529"/>
			<point x="532" y="532"/>
			<point x="518" y="532" type="curve" smooth="yes"/>
			<point x="431" y="532"/>
			<point x="397" y="479"/>
			<point x="358" y="364" type="curve"/>
			<point x="358" y="523" type="line"/>
			<point x="57" y="523" type="line"/>
			<point x="57" y="374" type="line"/>
			<point x="172" y="374" type="line"/>
			<point x="172" y="149" type="line"/>
			<point x="51" y="149" type="line"/>
		</contour>
	</outline>
	<anchor name="bottom" x="269" y="0"/>
	<anchor name="top" x="339" y="523"/>
</glyph>
<glyph name="s" format="2">
	<unicode hex="0073"/>
	<advance width="600"/>
	<outline>
		<contour>
			<point x="288" y="-14" type="curve" smooth="yes"/>
			<point x="455" y="-14"/>
			<point x="536" y="57"/>
			<point x="536" y="183" type="curve" smooth="yes"/>
			<point x="536" y="301"/>
			<point x="440" y="325"/>
			<point x="322" y="345" type="curve" smooth="yes"/>
			<point x="270" y="354"/>
			<point x="247" y="360"/>
			<point x="247" y="380" type="curve" smooth="yes"/>
			<point x="247" y="399"/>
			<point x="262" y="407"/>
			<point x="299" y="407" type="curve" smooth="yes"/>
			<point x="372" y="407"/>
			<point x="460" y="385"/>
			<point x="526" y="350" type="curve"/>
			<point x="526" y="494" type="line"/>
			<point x="471" y="518"/>
			<point x="402" y="537"/>
			<point x="300" y="537" type="curve" smooth="yes"/>
			<point x="157" y="537"/>
			<point x="64" y="472"/>
			<point x="64" y="351" type="curve" smooth="yes"/>
			<point x="64" y="232"/>
			<point x="137" y="202"/>
			<point x="280" y="180" type="curve" smooth="yes"/>
			<point x="332" y="172"/>
			<point x="352" y="167"/>
			<point x="352" y="146" type="curve" smooth="yes"/>
			<point x="352" y="126"/>
			<point x="335" y="118"/>
			<point x="294" y="118" type="curve" smooth="yes"/>
			<point x="231" y="118"/>
			<point x="138" y="137"/>
			<point x="75" y="172" type="curve"/>
			<point x="75" y="34" type="line"/>
			<point x="119" y="8"/>
			<point x="214" y="-14"/>
		</contour>
	</outline>
	<anchor name="bottom" x="303" y="0"/>
	<anchor name="top" x="312" y="523"/>
</glyph>
<glyph name="u" format="2">
	<unicode hex="0075"/>
	<advance width="600"/>
	<outline>
		<contour>
			<point x="550" y="523" type="line"/>
			<point x="355" y="523" type="line"/>
			<point x="355" y="201" type="line" smooth="yes"/>
			<point x="355" y="181"/>
			<point x="349" y="166"/>
			<point x="339" y="156" type="curve" smooth="yes"/>
			<point x="328" y="145"/>
			<point x="313" y="140"/>
			<point x="296" y="140" type="curve" smooth="yes"/>
			<point x="251" y="140"/>
			<point x="239" y="169"/>
			<point x="239" y="216" type="curve" smooth="yes"/>
			<point x="239" y="523" type="line"/>
			<point x="44" y="523" type="line"/>
			<point x="44" y="175" type="line" smooth="yes"/>
			<point x="44" y="48"/>
			<point x="88" y="-14"/>
			<point x="187" y="-14" type="curve" smooth="yes"/>
			<point x="267" y="-14"/>
			<point x="320" y="39"/>
			<point x="365" y="108" type="curve"/>
			<point x="365" y="0" type="line"/>
			<point x="550" y="0" type="line"/>
		</contour>
	</outline>
	<anchor name="bottom" x="314" y="0"/>
	<anchor name="ogonek" x="550" y="0"/>
	<anchor name="top" x="297" y="523"/>
</glyph>
<glyph name="asciitilde" format="2">
	<unicode hex="007E"/>
	<advance width="600"/>
	<outline>
		<contour>
			<point x="28" y="161" type="curve"/>
			<point x="169" y="161" type="line"/>
			<point x="169" y="222"/>
			<point x="174" y="263"/>
			<point x="214" y="263" type="curve" smooth="yes"/>
			<point x="264" y="263"/>
			<point x="304" y="157"/>
			<point x="408" y="157" type="curve" smooth="yes"/>
			<point x="514" y="157"/>
			<point x="572" y="231"/>
			<point x="572" y="426" type="curve"/>
			<point x="431" y="425" type="line"/>
			<point x="431" y="363"/>
			<point x="421" y="333"/>
			<point x="389" y="333" type="curve" smooth="yes"/>
			<point x="340" y="333"/>
			<point x="286" y="434"/>
			<point x="182" y="434" type="curve" smooth="yes"/>
			<point x="78" y="434"/>
			<point x="28" y="352"/>
		</contour>
	</outline>
</glyph>
<glyph name="exclamdown" format="2">
	<unicode hex="00A1"/>
	<advance width="600"/>
	<outline>
		<contour>
			<point x="299" y="535" type="curve" smooth="yes"/>
			<point x="223" y="535"/>
			<point x="184" y="507"/>
			<point x="184" y="431" type="curve" smooth="yes"/>
			<point x="184" y="358"/>
			<point x="222" y="328"/>
			<point x="299" y="328" type="curve" smooth="yes"/>
			<point x="378" y="328"/>
			<point x="416" y="358"/>
			<point x="416" y="431" type="curve" smooth="yes"/>
			<point x="416" y="507"/>
			<point x="377" y="535"/>
		</contour>
		<contour>
			<point x="371" y="268" type="line"/>
			<point x="231" y="268" type="line"/>
			<point x="194" y="-51" type="line"/>
			<point x="194" y="-161" type="line"/>
			<point x="407" y="-161" type="line"/>
			<point x="407" y="-51" type="line"/>
		</contour>
	</outline>
</glyph>
<glyph name="cent" format="2">
	<unicode hex="00A2"/>
	<advance width="600"/>
	<outline>
		<contour>
			<point x="329" y="-93" type="line"/>
			<point x="445" y="-93" type="line"/>
			<point x="448" y="-5" type="line"/>
			<point x="483" y="1"/>
			<point x="508" y="11"/>
			<point x="525" y="20" type="curve"/>
			<point x="525" y="164" type="line"/>
			<point x="505" y="156"/>
			<point x="476" y="146"/>
			<point x="441" y="142" type="curve"/>
			<point x="451" y="380" type="line"/>
			<point x="481" y="376"/>
			<point x="507" y="369"/>
			<point x="525" y="359" type="curve"/>
			<point x="525" y="504" type="line"/>
			<point x="511" y="512"/>
			<point x="491" y="519"/>
			<point x="467" y="525" type="curve"/>
			<point x="470" y="616" type="line"/>
			<point x="354" y="616" type="line"/>
			<point x="352" y="535" type="line"/>
			<point x="179" y="527"/>
			<point x="72" y="426"/>
			<point x="72" y="268" type="curve" smooth="yes"/>
			<point x="72" y="254" type="line" smooth="yes"/>
			<point x="72" y="101"/>
			<point x="159" y="2"/>
			<point x="332" y="-11" type="curve"/>
		</contour>
		<contour>
			<point x="269" y="259" type="curve" smooth="yes"/>
			<point x="269" y="266" type="line" smooth="yes"/>
			<point x="269" y="335"/>
			<point x="302" y="369"/>
			<point x="358" y="379" type="curve"/>
			<point x="349" y="147" type="line"/>
			<point x="299" y="160"/>
			<point x="269" y="195"/>
		</contour>
	</outline>
	<guideline x="251" y="90" angle="90"/>
</glyph>
<glyph name="currency" format="2">
	<unicode hex="00A4"/>
	<advance width="600"/>
	<outline>
		<contour>
			<point x="103" y="11" type="line"/>
			<point x="199" y="116" type="line"/>
			<point x="229" y="101"/>
			<point x="263" y="94"/>
			<point x="300" y="94" type="curve" smooth="yes"/>
			<point x="339" y="94"/>
			<point x="374" y="102"/>
			<point x="405" y="117" type="curve"/>
			<point x="504" y="11" type="line"/>
			<point x="604" y="117" type="line"/>
			<point x="503" y="222" type="line"/>
			<point x="518" y="256"/>
			<point x="526" y="295"/>
			<point x="526" y="340" type="curve" smooth="yes"/>
			<point x="526" y="387"/>
			<point x="517" y="427"/>
			<point x="501" y="462" type="curve"/>
			<point x="601" y="568" type="line"/>
			<point x="497" y="668" type="line"/>
			<point x="400" y="565" type="line"/>
			<point x="371" y="579"/>
			<point x="337" y="586"/>
			<point x="300" y="586" type="curve" smooth="yes"/>
			<point x="263" y="586"/>
			<point x="228" y="579"/>
			<point x="198" y="564" type="curve"/>
			<point x="100" y="667" type="line"/>
			<point x="1" y="560" type="line"/>
			<point x="97" y="460" type="line"/>
			<point x="82" y="426"/>
			<point x="74" y="386"/>
			<point x="74" y="340" type="curve" smooth="yes"/>
			<point x="74" y="294"/>
			<point x="83" y="254"/>
			<point x="98" y="220" type="curve"/>
			<point x="-4" y="112" type="line"/>
		</contour>
		<contour>
			<point x="300" y="236" type="curve" smooth="yes"/>
			<point x="249" y="236"/>
			<point x="222" y="272"/>
			<point x="222" y="340" type="curve" smooth="yes"/>
			<point x="222" y="408"/>
			<point x="249" y="444"/>
			<point x="300" y="444" type="curve" smooth="yes"/>
			<point x="351" y="444"/>
			<point x="378" y="408"/>
			<point x="378" y="340" type="curve" smooth="yes"/>
			<point x="378" y="272"/>
			<point x="351" y="236"/>
		</contour>
	</outline>
</glyph>
<glyph name="dieresis" format="2">
	<unicode hex="00A8"/>
	<advance width="600"/>
	<outline>
		<contour>
			<point x="417" y="591" type="curve" smooth="yes"/>
			<point x="489" y="591"/>
			<point x="513" y="617"/>
			<point x="513" y="673" type="curve" smooth="yes"/>
			<point x="513" y="729"/>
			<point x="489" y="755"/>
			<point x="417" y="755" type="curve" smooth="yes"/>
			<point x="345" y="755"/>
			<point x="321" y="729"/>
			<point x="321" y="673" type="curve" smooth="yes"/>
			<point x="321" y="617"/>
			<point x="345" y="591"/>
		</contour>
		<contour>
			<point x="183" y="591" type="curve" smooth="yes"/>
			<point x="255" y="591"/>
			<point x="279" y="617"/>
			<point x="279" y="673" type="curve" smooth="yes"/>
			<point x="279" y="729"/>
			<point x="255" y="755"/>
			<point x="183" y="755" type="curve" smooth="yes"/>
			<point x="111" y="755"/>
			<point x="87" y="729"/>
			<point x="87" y="673" type="curve" smooth="yes"/>
			<point x="87" y="617"/>
			<point x="111" y="591"/>
		</contour>
	</outline>
	<anchor name="_top" x="300" y="523"/>
</glyph>
<glyph name="registered" format="2">
	<unicode hex="00AE"/>
	<advance width="600"/>
	<outline>
		<contour>
			<point x="300" y="101" type="curve" smooth="yes"/>
			<point x="448" y="101"/>
			<point x="569" y="195"/>
			<point x="569" y="373" type="curve" smooth="yes"/>
			<point x="569" y="387" type="line" smooth="yes"/>
			<point x="569" y="561"/>
			<point x="447" y="657"/>
			<point x="300" y="657" type="curve" smooth="yes"/>
			<point x="153" y="657"/>
			<point x="31" y="561"/>
			<point x="31" y="385" type="curve" smooth="yes"/>
			<point x="31" y="371" type="line" smooth="yes"/>
			<point x="31" y="195"/>
			<point x="152" y="101"/>
		</contour>
		<contour>
			<point x="300" y="177" type="curve" smooth="yes"/>
			<point x="184" y="177"/>
			<point x="109" y="247"/>
			<point x="109" y="375" type="curve" smooth="yes"/>
			<point x="109" y="382" type="line" smooth="yes"/>
			<point x="109" y="514"/>
			<point x="184" y="581"/>
			<point x="300" y="581" type="curve" smooth="yes"/>
			<point x="416" y="581"/>
			<point x="491" y="514"/>
			<point x="491" y="384" type="curve" smooth="yes"/>
			<point x="491" y="376" type="line" smooth="yes"/>
			<point x="491" y="244"/>
			<point x="416" y="177"/>
		</contour>
		<contour>
			<point x="196" y="251" type="line"/>
			<point x="277" y="251" type="line"/>
			<point x="277" y="336" type="line"/>
			<point x="289" y="336" type="line" smooth="yes"/>
			<point x="302" y="336"/>
			<point x="308" y="331"/>
			<point x="313" y="319" type="curve" smooth="yes"/>
			<point x="339" y="251" type="line"/>
			<point x="428" y="251" type="line"/>
			<point x="394" y="335" type="line" smooth="yes"/>
			<point x="386" y="355"/>
			<point x="374" y="364"/>
			<point x="356" y="367" type="curve"/>
			<point x="394" y="377"/>
			<point x="416" y="403"/>
			<point x="416" y="437" type="curve" smooth="yes"/>
			<point x="416" y="485"/>
			<point x="386" y="514"/>
			<point x="313" y="514" type="curve" smooth="yes"/>
			<point x="195" y="514" type="line"/>
		</contour>
		<contour>
			<point x="301" y="454" type="line" smooth="yes"/>
			<point x="321" y="454"/>
			<point x="334" y="446"/>
			<point x="334" y="425" type="curve" smooth="yes"/>
			<point x="334" y="404"/>
			<point x="321" y="396"/>
			<point x="299" y="396" type="curve" smooth="yes"/>
			<point x="276" y="396" type="line"/>
			<point x="276" y="454" type="line"/>
		</contour>
	</outline>
</glyph>
<glyph name="mu" format="2">
	<unicode hex="00B5"/>
	<advance width="600"/>
	<outline>
		<contour>
			<point x="550" y="523" type="line"/>
			<point x="355" y="523" type="line"/>
			<point x="355" y="201" type="line" smooth="yes"/>
			<point x="355" y="181"/>
			<point x="349" y="166"/>
			<point x="339" y="156" type="curve" smooth="yes"/>
			<point x="328" y="145"/>
			<point x="313" y="140"/>
			<point x="296" y="140" type="curve" smooth="yes"/>
			<point x="251" y="140"/>
			<point x="239" y="169"/>
			<point x="239" y="216" type="curve" smooth="yes"/>
			<point x="239" y="523" type="line"/>
			<point x="44" y="523" type="line"/>
			<point x="44" y="-188" type="line"/>
			<point x="239" y="-188" type="line"/>
			<point x="239" y="-6" type="line"/>
			<point x="291" y="12"/>
			<point x="330" y="56"/>
			<point x="365" y="108" type="curve"/>
			<point x="365" y="0" type="line"/>
			<point x="550" y="0" type="line"/>
		</contour>
	</outline>
	<anchor name="bottom" x="312" y="0"/>
	<anchor name="ogonek" x="545" y="0"/>
	<anchor name="top" x="298" y="533"/>
</glyph>
<glyph name="paragraph" format="2">
	<unicode hex="00B6"/>
	<advance width="600"/>
	<outline>
		<contour>
			<point x="214" y="0" type="line"/>
			<point x="350" y="0" type="line"/>
			<point x="350" y="551" type="line"/>
			<point x="419" y="551" type="line"/>
			<point x="419" y="0" type="line"/>
			<point x="555" y="0" type="line"/>
			<point x="555" y="684" type="line"/>
			<point x="248" y="684" type="line"/>
			<point x="100" y="684"/>
			<point x="13" y="593"/>
			<point x="13" y="446" type="curve" smooth="yes"/>
			<point x="13" y="316"/>
			<point x="86" y="229"/>
			<point x="214" y="222" type="curve"/>
		</contour>
	</outline>
</glyph>
<glyph name="guillemetright" format="2">
	<unicode hex="00BB"/>
	<advance width="600"/>
	<outline>
		<contour>
			<point x="261" y="77" type="line"/>
			<point x="457" y="77" type="line"/>
			<point x="592" y="287" type="line"/>
			<point x="457" y="497" type="line"/>
			<point x="261" y="497" type="line"/>
			<point x="402" y="287" type="line"/>
		</contour>
		<contour>
			<point x="8" y="77" type="line"/>
			<point x="203" y="77" type="line"/>
			<point x="339" y="287" type="line"/>
			<point x="203" y="497" type="line"/>
			<point x="8" y="497" type="line"/>
			<point x="149" y="288" type="line"/>
		</contour>
	</outline>
</glyph>
<glyph name="questiondown" format="2">
	<unicode hex="00BF"/>
	<advance width="600"/>
	<outline>
		<contour>
			<point x="328" y="535" type="curve" smooth="yes"/>
			<point x="252" y="535"/>
			<point x="213" y="507"/>
			<point x="213" y="431" type="curve" smooth="yes"/>
			<point x="213" y="358"/>
			<point x="251" y="328"/>
			<point x="328" y="328" type="curve" smooth="yes"/>
			<point x="407" y="328"/>
			<point x="445" y="358"/>
			<point x="445" y="431" type="curve" smooth="yes"/>
			<point x="445" y="507"/>
			<point x="406" y="535"/>
		</contour>
		<contour>
			<point x="413" y="268" type="curve"/>
			<point x="240" y="268" type="line"/>
			<point x="240" y="253" type="line" smooth="yes"/>
			<point x="240" y="195"/>
			<point x="70" y="168"/>
			<point x="70" y="3" type="curve" smooth="yes"/>
			<point x="70" y="-93"/>
			<point x="143" y="-175"/>
			<point x="296" y="-175" type="curve" smooth="yes"/>
			<point x="385" y="-175"/>
			<point x="465" y="-147"/>
			<point x="511" y="-121" type="curve"/>
			<point x="511" y="44" type="line"/>
			<point x="470" y="19"/>
			<point x="409" y="-9"/>
			<point x="346" y="-9" type="curve" smooth="yes"/>
			<point x="287" y="-9"/>
			<point x="266" y="18"/>
			<point x="266" y="41" type="curve" smooth="yes"/>
			<point x="266" y="109"/>
			<point x="420" y="120"/>
			<point x="420" y="233" type="curve" smooth="yes"/>
			<point x="420" y="246"/>
			<point x="418" y="255"/>
		</contour>
	</outline>
</glyph>
<glyph name="AE" format="2">
	<unicode hex="00C6"/>
	<advance width="600"/>
	<outline>
		<contour>
			<point x="2" y="0" type="line"/>
			<point x="163" y="0" type="line"/>
			<point x="184" y="134" type="line"/>
			<point x="293" y="134" type="line"/>
			<point x="293" y="0" type="line"/>
			<point x="583" y="0" type="line"/>
			<point x="583" y="154" type="line"/>
			<point x="447" y="154" type="line"/>
			<point x="447" y="266" type="line"/>
			<point x="551" y="266" type="line"/>
			<point x="551" y="418" type="line"/>
			<point x="447" y="418" type="line"/>
			<point x="447" y="531" type="line"/>
			<point x="582" y="531" type="line"/>
			<point x="582" y="684" type="line"/>
			<point x="116" y="684" type="line"/>
		</contour>
		<contour>
			<point x="207" y="282" type="line"/>
			<point x="245" y="531" type="line"/>
			<point x="293" y="531" type="line"/>
			<point x="293" y="282" type="line"/>
		</contour>
	</outline>
	<anchor name="top" x="362" y="684"/>
</glyph>
<glyph name="Oslash" format="2">
	<unicode hex="00D8"/>
	<advance width="600"/>
	<outline>
		<contour>
			<point x="300" y="-14" type="curve" smooth="yes"/>
			<point x="475" y="-14"/>
			<point x="567" y="103"/>
			<point x="567" y="335" type="curve" smooth="yes"/>
			<point x="567" y="349" type="line" smooth="yes"/>
			<point x="567" y="446"/>
			<point x="551" y="522"/>
			<point x="520" y="579" type="curve"/>
			<point x="600" y="708" type="line"/>
			<point x="455" y="708" type="line"/>
			<point x="431" y="669" type="line"/>
			<point x="394" y="688"/>
			<point x="351" y="698"/>
			<point x="300" y="698" type="curve" smooth="yes"/>
			<point x="125" y="698"/>
			<point x="33" y="581"/>
			<point x="33" y="349" type="curve" smooth="yes"/>
			<point x="33" y="335" type="line" smooth="yes"/>
			<point x="33" y="238"/>
			<point x="49" y="162"/>
			<point x="80" y="105" type="curve"/>
			<point x="80" y="105" type="line"/>
			<point x="0" y="-24" type="line"/>
			<point x="145" y="-24" type="line"/>
			<point x="170" y="15" type="line"/>
			<point x="206" y="-4"/>
			<point x="250" y="-14"/>
		</contour>
		<contour>
			<point x="230" y="338" type="curve" smooth="yes"/>
			<point x="230" y="345" type="line" smooth="yes"/>
			<point x="230" y="505"/>
			<point x="254" y="539"/>
			<point x="300" y="539" type="curve" smooth="yes"/>
			<point x="322" y="539"/>
			<point x="340" y="531"/>
			<point x="351" y="504" type="curve"/>
			<point x="231" y="301" type="line"/>
			<point x="230" y="312"/>
			<point x="230" y="325"/>
		</contour>
		<contour>
			<point x="300" y="145" type="curve" smooth="yes"/>
			<point x="277" y="145"/>
			<point x="260" y="153"/>
			<point x="248" y="180" type="curve"/>
			<point x="369" y="385" type="line"/>
			<point x="370" y="373"/>
			<point x="370" y="359"/>
			<point x="370" y="345" type="curve" smooth="yes"/>
			<point x="370" y="338" type="line" smooth="yes"/>
			<point x="370" y="179"/>
			<point x="346" y="145"/>
		</contour>
	</outline>
	<guideline x="35" y="345" angle="90"/>
</glyph>
<glyph name="Thorn" format="2">
	<unicode hex="00DE"/>
	<advance width="600"/>
	<outline>
		<contour>
			<point x="51" y="684" type="line"/>
			<point x="51" y="0" type="line"/>
			<point x="249" y="0" type="line"/>
			<point x="249" y="104" type="line"/>
			<point x="348" y="104" type="line" smooth="yes"/>
			<point x="502" y="104"/>
			<point x="592" y="202"/>
			<point x="592" y="359" type="curve" smooth="yes"/>
			<point x="592" y="512"/>
			<point x="501" y="605"/>
			<point x="348" y="605" type="curve" smooth="yes"/>
			<point x="249" y="605" type="line"/>
			<point x="249" y="684" type="line"/>
		</contour>
		<contour>
			<point x="309" y="449" type="line" smooth="yes"/>
			<point x="375" y="449"/>
			<point x="395" y="411"/>
			<point x="395" y="357" type="curve" smooth="yes"/>
			<point x="395" y="300"/>
			<point x="375" y="260"/>
			<point x="309" y="260" type="curve" smooth="yes"/>
			<point x="249" y="260" type="line"/>
			<point x="249" y="449" type="line"/>
		</contour>
	</outline>
	<guideline x="249" y="579" angle="90"/>
</glyph>
<glyph name="germandbls" format="2">
	<unicode hex="00DF"/>
	<advance width="600"/>
	<outline>
		<contour>
			<point x="368" y="-9" type="curve" smooth="yes"/>
			<point x="482" y="-9"/>
			<point x="580" y="59"/>
			<point x="580" y="195" type="curve" smooth="yes"/>
			<point x="580" y="298"/>
			<point x="524" y="359"/>
			<point x="407" y="376" type="curve"/>
			<point x="499" y="400"/>
			<point x="556" y="462"/>
			<point x="554" y="568" type="curve" smooth="yes"/>
			<point x="551" y="691"/>
			<point x="470" y="760"/>
			<point x="311" y="760" type="curve" smooth="yes"/>
			<point x="113" y="760"/>
			<point x="34" y="654"/>
			<point x="34" y="522" type="curve" smooth="yes"/>
			<point x="34" y="0" type="line"/>
			<point x="229" y="0" type="line"/>
			<point x="229" y="531" type="line" smooth="yes"/>
			<point x="229" y="586"/>
			<point x="255" y="610"/>
			<point x="296" y="610" type="curve" smooth="yes"/>
			<point x="341" y="610"/>
			<point x="362" y="587"/>
			<point x="362" y="537" type="curve" smooth="yes"/>
			<point x="362" y="485"/>
			<point x="340" y="445"/>
			<point x="293" y="445" type="curve" smooth="yes"/>
			<point x="278" y="445" type="line"/>
			<point x="278" y="289" type="line"/>
			<point x="299" y="289" type="line" smooth="yes"/>
			<point x="350" y="289"/>
			<point x="379" y="266"/>
			<point x="379" y="206" type="curve" smooth="yes"/>
			<point x="379" y="153"/>
			<point x="356" y="129"/>
			<point x="312" y="129" type="curve" smooth="yes"/>
			<point x="303" y="129"/>
			<point x="293" y="130"/>
			<point x="284" y="132" type="curve"/>
			<point x="284" y="3" type="line"/>
			<point x="300" y="-3"/>
			<point x="334" y="-9"/>
		</contour>
	</outline>
</glyph>
<glyph name="oslash" format="2">
	<unicode hex="00F8"/>
	<advance width="600"/>
	<outline>
		<contour>
			<point x="300" y="-14" type="curve" smooth="yes"/>
			<point x="466" y="-14"/>
			<point x="569" y="89"/>
			<point x="569" y="255" type="curve" smooth="yes"/>
			<point x="569" y="269" type="line" smooth="yes"/>
			<point x="569" y="338"/>
			<point x="550" y="397"/>
			<point x="516" y="442" type="curve"/>
			<point x="600" y="547" type="line"/>
			<point x="457" y="547" type="line"/>
			<point x="428" y="511" type="line"/>
			<point x="392" y="528"/>
			<point x="348" y="537"/>
			<point x="300" y="537" type="curve" smooth="yes"/>
			<point x="134" y="537"/>
			<point x="31" y="432"/>
			<point x="31" y="269" type="curve" smooth="yes"/>
			<point x="31" y="255" type="line" smooth="yes"/>
			<point x="31" y="184"/>
			<point x="50" y="125"/>
			<point x="84" y="81" type="curve"/>
			<point x="0" y="-24" type="line"/>
			<point x="143" y="-24" type="line"/>
			<point x="171" y="11" type="line"/>
			<point x="208" y="-5"/>
			<point x="251" y="-14"/>
		</contour>
		<contour>
			<point x="229" y="258" type="curve" smooth="yes"/>
			<point x="229" y="265" type="line" smooth="yes"/>
			<point x="229" y="353"/>
			<point x="252" y="389"/>
			<point x="300" y="389" type="curve" smooth="yes"/>
			<point x="319" y="389"/>
			<point x="333" y="384"/>
			<point x="345" y="372" type="curve"/>
			<point x="230" y="228" type="line"/>
			<point x="229" y="237"/>
			<point x="229" y="247"/>
		</contour>
		<contour>
			<point x="300" y="135" type="curve" smooth="yes"/>
			<point x="282" y="135"/>
			<point x="267" y="140"/>
			<point x="256" y="151" type="curve"/>
			<point x="371" y="296" type="line"/>
			<point x="372" y="286"/>
			<point x="372" y="276"/>
			<point x="372" y="265" type="curve" smooth="yes"/>
			<point x="372" y="258" type="line" smooth="yes"/>
			<point x="372" y="171"/>
			<point x="348" y="135"/>
		</contour>
	</outline>
	<guideline x="641" y="286" angle="90"/>
	<guideline x="39" y="286" angle="90"/>
</glyph>
<glyph name="dcaron" format="2">
	<unicode hex="010F"/>
	<advance width="600"/>
	<outline>
		<contour>
			<point x="185" y="-13" type="curve" smooth="yes"/>
			<point x="251" y="-13"/>
			<point x="306" y="33"/>
			<point x="347" y="104" type="curve"/>
			<point x="347" y="0" type="line"/>
			<point x="518" y="0" type="line"/>
			<point x="518" y="750" type="line"/>
			<point x="337" y="750" type="line"/>
			<point x="337" y="433" type="line"/>
			<point x="307" y="487"/>
			<point x="262" y="537"/>
			<point x="194" y="537" type="curve" smooth="yes"/>
			<point x="98" y="537"/>
			<point x="34" y="437"/>
			<point x="34" y="265" type="curve" smooth="yes"/>
			<point x="34" y="255" type="line" smooth="yes"/>
			<point x="34" y="95"/>
			<point x="74" y="-13"/>
		</contour>
		<contour>
			<point x="560" y="549" type="line"/>
			<point x="646" y="549" type="line"/>
			<point x="714" y="750" type="line"/>
			<point x="558" y="750" type="line"/>
		</contour>
		<contour>
			<point x="277" y="131" type="curve" smooth="yes"/>
			<point x="237" y="131"/>
			<point x="215" y="162"/>
			<point x="215" y="256" type="curve" smooth="yes"/>
			<point x="215" y="262" type="line" smooth="yes"/>
			<point x="215" y="354"/>
			<point x="237" y="390"/>
			<point x="278" y="390" type="curve" smooth="yes"/>
			<point x="319" y="390"/>
			<point x="344" y="354"/>
			<point x="344" y="263" type="curve" smooth="yes"/>
			<point x="344" y="259" type="line" smooth="yes"/>
			<point x="344" y="162"/>
			<point x="320" y="131"/>
		</contour>
	</outline>
	<guideline x="249" y="352" angle="0"/>
</glyph>
<glyph name="eogonek" format="2">
	<unicode hex="0119"/>
	<advance width="600"/>
	<outline>
		<contour>
			<point x="390" y="-203" type="curve" smooth="yes"/>
			<point x="425" y="-203"/>
			<point x="451" y="-198"/>
			<point x="471" y="-192" type="curve"/>
			<point x="471" y="-79" type="line"/>
			<point x="471" y="-79"/>
			<point x="464" y="-80"/>
			<point x="452" y="-80" type="curve" smooth="yes"/>
			<point x="425" y="-80"/>
			<point x="403" y="-72"/>
			<point x="403" y="-49" type="curve" smooth="yes"/>
			<point x="403" y="-29"/>
			<point x="420" y="-12"/>
			<point x="459" y="-1" type="curve"/>
			<point x="487" y="6"/>
			<point x="512" y="14"/>
			<point x="535" y="25" type="curve"/>
			<point x="535" y="162" type="line"/>
			<point x="487" y="149"/>
			<point x="431" y="139"/>
			<point x="383" y="139" type="curve" smooth="yes"/>
			<point x="290" y="139"/>
			<point x="240" y="170"/>
			<point x="231" y="214" type="curve"/>
			<point x="563" y="214" type="line"/>
			<point x="563" y="283" type="line" smooth="yes"/>
			<point x="563" y="448"/>
			<point x="468" y="537"/>
			<point x="305" y="537" type="curve" smooth="yes"/>
			<point x="148" y="537"/>
			<point x="38" y="434"/>
			<point x="38" y="269" type="curve" smooth="yes"/>
			<point x="38" y="255" type="line" smooth="yes"/>
			<point x="38" y="77"/>
			<point x="145" y="-8"/>
			<point x="319" y="-14" type="curve"/>
			<point x="278" y="-37"/>
			<point x="254" y="-69"/>
			<point x="254" y="-110" type="curve" smooth="yes"/>
			<point x="254" y="-167"/>
			<point x="294" y="-203"/>
		</contour>
		<contour>
			<point x="305" y="405" type="curve" smooth="yes"/>
			<point x="352" y="405"/>
			<point x="375" y="372"/>
			<point x="378" y="315" type="curve"/>
			<point x="226" y="315" type="line"/>
			<point x="229" y="364"/>
			<point x="252" y="405"/>
		</contour>
	</outline>
</glyph>
<glyph name="IJ" format="2">
	<unicode hex="0132"/>
	<advance width="600"/>
	<outline>
		<contour>
			<point x="252" y="-12" type="curve" smooth="yes"/>
			<point x="413" y="-12"/>
			<point x="538" y="52"/>
			<point x="538" y="241" type="curve" smooth="yes"/>
			<point x="538" y="684" type="line"/>
			<point x="343" y="684" type="line"/>
			<point x="343" y="272" type="line" smooth="yes"/>
			<point x="343" y="188"/>
			<point x="305" y="151"/>
			<point x="220" y="151" type="curve" smooth="yes"/>
			<point x="169" y="151"/>
			<point x="104" y="164"/>
			<point x="62" y="179" type="curve"/>
			<point x="62" y="20" type="line"/>
			<point x="112" y="-1"/>
			<point x="163" y="-12"/>
		</contour>
		<contour>
			<point x="64" y="238" type="line"/>
			<point x="255" y="238" type="line"/>
			<point x="254" y="684" type="line"/>
			<point x="63" y="684" type="line"/>
		</contour>
	</outline>
</glyph>
<glyph name="kgreenlandic" format="2">
	<unicode hex="0138"/>
	<advance width="600"/>
	<outline>
		<contour>
			<point x="48" y="0" type="line"/>
			<point x="242" y="0" type="line"/>
			<point x="242" y="134" type="line"/>
			<point x="291" y="200" type="line"/>
			<point x="386" y="0" type="line"/>
			<point x="602" y="0" type="line"/>
			<point x="445" y="314" type="line"/>
			<point x="593" y="525" type="line"/>
			<point x="381" y="525" type="line"/>
			<point x="242" y="310" type="line"/>
			<point x="242" y="524" type="line"/>
			<point x="48" y="524" type="line"/>
		</contour>
	</outline>
</glyph>
<glyph name="Ldot" format="2">
	<unicode hex="013F"/>
	<advance width="600"/>
	<outline>
		<contour>
			<point x="72" y="0" type="line"/>
			<point x="566" y="0" type="line"/>
			<point x="566" y="181" type="line"/>
			<point x="270" y="181" type="line"/>
			<point x="270" y="684" type="line"/>
			<point x="72" y="684" type="line"/>
		</contour>
		<contour>
			<point x="471" y="301" type="curve" smooth="yes"/>
			<point x="544" y="301"/>
			<point x="582" y="338"/>
			<point x="582" y="433" type="curve" smooth="yes"/>
			<point x="582" y="528"/>
			<point x="544" y="564"/>
			<point x="471" y="564" type="curve" smooth="yes"/>
			<point x="398" y="564"/>
			<point x="361" y="528"/>
			<point x="361" y="433" type="curve" smooth="yes"/>
			<point x="361" y="338"/>
			<point x="398" y="301"/>
		</contour>
	</outline>
</glyph>
<glyph name="ldot" format="2">
	<unicode hex="0140"/>
	<advance width="600"/>
	<outline>
		<contour>
			<point x="54" y="0" type="line"/>
			<point x="559" y="0" type="line"/>
			<point x="559" y="149" type="line"/>
			<point x="411" y="149" type="line"/>
			<point x="411" y="750" type="line"/>
			<point x="56" y="750" type="line"/>
			<point x="56" y="601" type="line"/>
			<point x="215" y="601" type="line"/>
			<point x="215" y="149" type="line"/>
			<point x="54" y="149" type="line"/>
		</contour>
		<contour>
			<point x="605" y="252" type="curve" smooth="yes"/>
			<point x="674" y="252"/>
			<point x="709" y="286"/>
			<point x="709" y="378" type="curve" smooth="yes"/>
			<point x="709" y="469"/>
			<point x="674" y="503"/>
			<point x="605" y="503" type="curve" smooth="yes"/>
			<point x="536" y="503"/>
			<point x="501" y="470"/>
			<point x="501" y="378" type="curve" smooth="yes"/>
			<point x="501" y="286"/>
			<point x="536" y="252"/>
		</contour>
	</outline>
</glyph>
<glyph name="lslash" format="2">
	<unicode hex="0142"/>
	<advance width="600"/>
	<outline>
		<contour>
			<point x="54" y="0" type="line"/>
			<point x="559" y="0" type="line"/>
			<point x="559" y="149" type="line"/>
			<point x="411" y="149" type="line"/>
			<point x="411" y="347" type="line"/>
			<point x="539" y="394" type="line"/>
			<point x="539" y="521" type="line"/>
			<point x="411" y="474" type="line"/>
			<point x="411" y="750" type="line"/>
			<point x="56" y="750" type="line"/>
			<point x="56" y="601" type="line"/>
			<point x="215" y="601" type="line"/>
			<point x="215" y="403" type="line"/>
			<point x="81" y="354" type="line"/>
			<point x="81" y="227" type="line"/>
			<point x="215" y="276" type="line"/>
			<point x="215" y="149" type="line"/>
			<point x="54" y="149" type="line"/>
		</contour>
	</outline>
</glyph>
<glyph name="Eng" format="2">
	<unicode hex="014A"/>
	<advance width="600"/>
	<outline>
		<contour>
			<point x="344" y="-204" type="curve" smooth="yes"/>
			<point x="461" y="-204"/>
			<point x="559" y="-154"/>
			<point x="559" y="-10" type="curve" smooth="yes"/>
			<point x="559" y="684" type="line"/>
			<point x="393" y="684" type="line"/>
			<point x="393" y="503" type="line" smooth="yes"/>
			<point x="393" y="401"/>
			<point x="404" y="335"/>
			<point x="420" y="226" type="curve"/>
			<point x="409" y="226" type="line"/>
			<point x="262" y="684" type="line"/>
			<point x="41" y="684" type="line"/>
			<point x="41" y="0" type="line"/>
			<point x="207" y="0" type="line"/>
			<point x="207" y="180" type="line" smooth="yes"/>
			<point x="207" y="262"/>
			<point x="194" y="349"/>
			<point x="180" y="458" type="curve"/>
			<point x="190" y="458" type="line"/>
			<point x="338" y="0" type="line"/>
			<point x="381" y="0" type="line"/>
			<point x="381" y="-43"/>
			<point x="359" y="-65"/>
			<point x="298" y="-65" type="curve" smooth="yes"/>
			<point x="271" y="-65"/>
			<point x="249" y="-63"/>
			<point x="227" y="-58" type="curve"/>
			<point x="227" y="-192" type="line"/>
			<point x="256" y="-198"/>
			<point x="294" y="-204"/>
		</contour>
	</outline>
	<anchor name="bottom" x="297" y="0"/>
	<anchor name="top" x="343" y="720"/>
	<guideline x="566" y="557" angle="90"/>
</glyph>
<glyph name="circumflex" format="2">
	<unicode hex="02C6"/>
	<advance width="600"/>
	<outline>
		<contour>
			<point x="88" y="597" type="line"/>
			<point x="252" y="597" type="line"/>
			<point x="299" y="676" type="line"/>
			<point x="345" y="597" type="line"/>
			<point x="512" y="597" type="line"/>
			<point x="405" y="750" type="line"/>
			<point x="194" y="750" type="line"/>
		</contour>
	</outline>
	<anchor name="_top" x="300" y="523"/>
</glyph>
<glyph name="caron" format="2">
	<unicode hex="02C7"/>
	<advance width="600"/>
	<outline>
		<contour>
			<point x="512" y="750" type="line"/>
			<point x="347" y="750" type="line"/>
			<point x="301" y="671" type="line"/>
			<point x="254" y="750" type="line"/>
			<point x="88" y="750" type="line"/>
			<point x="196" y="597" type="line"/>
			<point x="407" y="597" type="line"/>
		</contour>
	</outline>
	<anchor name="_top" x="302" y="523"/>
</glyph>
<glyph name="breve" format="2">
	<unicode hex="02D8"/>
	<advance width="600"/>
	<outline>
		<contour>
			<point x="297" y="586" type="curve" smooth="yes"/>
			<point x="425" y="586"/>
			<point x="480" y="633"/>
			<point x="480" y="750" type="curve"/>
			<point x="342" y="750" type="line"/>
			<point x="342" y="700"/>
			<point x="332" y="687"/>
			<point x="300" y="687" type="curve" smooth="yes"/>
			<point x="268" y="687"/>
			<point x="258" y="700"/>
			<point x="258" y="750" type="curve"/>
			<point x="120" y="750" type="line"/>
			<point x="120" y="633"/>
			<point x="169" y="586"/>
		</contour>
	</outline>
	<anchor name="_top" x="301" y="523"/>
	<guideline x="258" y="700" angle="0"/>
	<guideline x="300" y="725" angle="90"/>
</glyph>
<glyph name="tilde" format="2">
	<unicode hex="02DC"/>
	<advance width="600"/>
	<outline>
		<contour>
			<point x="93" y="599" type="curve"/>
			<point x="218" y="599" type="line"/>
			<point x="218" y="628"/>
			<point x="227" y="646"/>
			<point x="249" y="646" type="curve" smooth="yes"/>
			<point x="284" y="646"/>
			<point x="305" y="595"/>
			<point x="380" y="595" type="curve" smooth="yes"/>
			<point x="449" y="595"/>
			<point x="506" y="636"/>
			<point x="506" y="754" type="curve"/>
			<point x="380" y="754" type="line"/>
			<point x="380" y="727"/>
			<point x="370" y="711"/>
			<point x="351" y="711" type="curve" smooth="yes"/>
			<point x="319" y="711"/>
			<point x="285" y="758"/>
			<point x="215" y="758" type="curve" smooth="yes"/>
			<point x="148" y="758"/>
			<point x="93" y="714"/>
		</contour>
	</outline>
	<anchor name="_top" x="300" y="523"/>
</glyph>
<glyph name="emdash" format="2">
	<unicode hex="2014"/>
	<advance width="600"/>
	<outline>
		<contour>
			<point x="600" y="377" type="line"/>
			<point x="0" y="377" type="line"/>
			<point x="0" y="201" type="line"/>
			<point x="600" y="201" type="line"/>
		</contour>
	</outline>
</glyph>
<glyph name="quotesinglbase" format="2">
	<unicode hex="201A"/>
	<advance width="600"/>
	<outline>
		<contour>
			<point x="226" y="190" type="line"/>
			<point x="188" y="-132" type="line"/>
			<point x="313" y="-132" type="line"/>
			<point x="435" y="190" type="line"/>
		</contour>
	</outline>
</glyph>
<glyph name="dagger" format="2">
	<unicode hex="2020"/>
	<advance width="600"/>
	<outline>
		<contour>
			<point x="40" y="570" type="line"/>
			<point x="40" y="396" type="line"/>
			<point x="205" y="396" type="line"/>
			<point x="205" y="-143" type="line"/>
			<point x="395" y="-143" type="line"/>
			<point x="395" y="396" type="line"/>
			<point x="560" y="396" type="line"/>
			<point x="560" y="570" type="line"/>
			<point x="395" y="570" type="line"/>
			<point x="395" y="765" type="line"/>
			<point x="205" y="765" type="line"/>
			<point x="205" y="570" type="line"/>
		</contour>
	</outline>
</glyph>
<glyph name="bullet" format="2">
	<unicode hex="2022"/>
	<advance width="600"/>
	<outline>
		<contour>
			<point x="300" y="110" type="curve" smooth="yes"/>
			<point x="410" y="110"/>
			<point x="466" y="158"/>
			<point x="466" y="285" type="curve" smooth="yes"/>
			<point x="466" y="410"/>
			<point x="410" y="458"/>
			<point x="300" y="458" type="curve" smooth="yes"/>
			<point x="190" y="458"/>
			<point x="134" y="410"/>
			<point x="134" y="285" type="curve" smooth="yes"/>
			<point x="134" y="158"/>
			<point x="190" y="110"/>
		</contour>
	</outline>
</glyph>
<glyph name="guilsinglleft" format="2">
	<unicode hex="2039"/>
	<advance width="600"/>
	<outline>
		<contour>
			<point x="271" y="77" type="line"/>
			<point x="505" y="77" type="line"/>
			<point x="313" y="291" type="line"/>
			<point x="505" y="497" type="line"/>
			<point x="274" y="497" type="line"/>
			<point x="83" y="287" type="line"/>
		</contour>
	</outline>
	<guideline x="51" y="295" angle="0"/>
</glyph>
<glyph name="guilsinglright" format="2">
	<unicode hex="203A"/>
	<advance width="600"/>
	<outline>
		<contour>
			<point x="95" y="77" type="line"/>
			<point x="329" y="77" type="line"/>
			<point x="517" y="287" type="line"/>
			<point x="326" y="497" type="line"/>
			<point x="95" y="497" type="line"/>
			<point x="286" y="291" type="line"/>
		</contour>
	</outline>
</glyph>
<glyph name="Euro" format="2">
	<unicode hex="20AC"/>
	<advance width="600"/>
	<outline>
		<contour>
			<point x="16" y="223" type="line"/>
			<point x="90" y="223" type="line"/>
			<point x="124" y="68"/>
			<point x="230" y="-12"/>
			<point x="391" y="-12" type="curve" smooth="yes"/>
			<point x="465" y="-12"/>
			<point x="523" y="3"/>
			<point x="564" y="28" type="curve"/>
			<point x="564" y="184" type="line"/>
			<point x="530" y="167"/>
			<point x="486" y="156"/>
			<point x="440" y="156" type="curve" smooth="yes"/>
			<point x="376" y="156"/>
			<point x="330" y="175"/>
			<point x="305" y="223" type="curve"/>
			<point x="487" y="223" type="line"/>
			<point x="487" y="324" type="line"/>
			<point x="282" y="324" type="line"/>
			<point x="282" y="366" type="line"/>
			<point x="487" y="366" type="line"/>
			<point x="487" y="467" type="line"/>
			<point x="308" y="467" type="line"/>
			<point x="336" y="514"/>
			<point x="384" y="534"/>
			<point x="447" y="533" type="curve" smooth="yes"/>
			<point x="500" y="532"/>
			<point x="537" y="519"/>
			<point x="564" y="505" type="curve"/>
			<point x="564" y="664" type="line"/>
			<point x="528" y="682"/>
			<point x="466" y="695"/>
			<point x="413" y="695" type="curve" smooth="yes"/>
			<point x="249" y="695"/>
			<point x="131" y="617"/>
			<point x="93" y="467" type="curve"/>
			<point x="16" y="467" type="line"/>
			<point x="16" y="366" type="line"/>
			<point x="79" y="366" type="line"/>
			<point x="79" y="324" type="line"/>
			<point x="16" y="324" type="line"/>
		</contour>
	</outline>
</glyph>
<glyph name="published" format="2">
	<unicode hex="2117"/>
	<advance width="600"/>
	<outline>
		<contour>
			<point x="300" y="101" type="curve" smooth="yes"/>
			<point x="448" y="101"/>
			<point x="569" y="195"/>
			<point x="569" y="373" type="curve" smooth="yes"/>
			<point x="569" y="387" type="line" smooth="yes"/>
			<point x="569" y="561"/>
			<point x="447" y="657"/>
			<point x="300" y="657" type="curve" smooth="yes"/>
			<point x="153" y="657"/>
			<point x="31" y="561"/>
			<point x="31" y="385" type="curve" smooth="yes"/>
			<point x="31" y="371" type="line" smooth="yes"/>
			<point x="31" y="195"/>
			<point x="152" y="101"/>
		</contour>
		<contour>
			<point x="300" y="177" type="curve" smooth="yes"/>
			<point x="184" y="177"/>
			<point x="109" y="247"/>
			<point x="109" y="375" type="curve" smooth="yes"/>
			<point x="109" y="382" type="line" smooth="yes"/>
			<point x="109" y="514"/>
			<point x="184" y="581"/>
			<point x="300" y="581" type="curve" smooth="yes"/>
			<point x="416" y="581"/>
			<point x="491" y="514"/>
			<point x="491" y="384" type="curve" smooth="yes"/>
			<point x="491" y="376" type="line" smooth="yes"/>
			<point x="491" y="244"/>
			<point x="416" y="177"/>
		</contour>
		<contour>
			<point x="201" y="251" type="line"/>
			<point x="282" y="251" type="line"/>
			<point x="282" y="320" type="line"/>
			<point x="319" y="320" type="line" smooth="yes"/>
			<point x="383" y="320"/>
			<point x="428" y="355"/>
			<point x="428" y="418" type="curve" smooth="yes"/>
			<point x="428" y="477"/>
			<point x="391" y="513"/>
			<point x="320" y="513" type="curve" smooth="yes"/>
			<point x="201" y="513" type="line"/>
		</contour>
		<contour>
			<point x="312" y="451" type="line" smooth="yes"/>
			<point x="332" y="451"/>
			<point x="346" y="438"/>
			<point x="346" y="417" type="curve" smooth="yes"/>
			<point x="346" y="396"/>
			<point x="333" y="382"/>
			<point x="312" y="382" type="curve" smooth="yes"/>
			<point x="282" y="382" type="line"/>
			<point x="282" y="451" type="line"/>
		</contour>
	</outline>
</glyph>
<glyph name="servicemark" format="2">
	<unicode hex="2120"/>
	<advance width="600"/>
	<outline>
		<contour>
			<point x="127" y="337" type="curve" smooth="yes"/>
			<point x="212" y="337"/>
			<point x="257" y="381"/>
			<point x="257" y="459" type="curve" smooth="yes"/>
			<point x="257" y="533"/>
			<point x="203" y="549"/>
			<point x="145" y="563" type="curve" smooth="yes"/>
			<point x="120" y="569"/>
			<point x="104" y="573"/>
			<point x="104" y="589" type="curve" smooth="yes"/>
			<point x="104" y="606"/>
			<point x="117" y="613"/>
			<point x="141" y="613" type="curve" smooth="yes"/>
			<point x="179" y="613"/>
			<point x="224" y="598"/>
			<point x="252" y="579" type="curve"/>
			<point x="252" y="665" type="line"/>
			<point x="231" y="676"/>
			<point x="192" y="689"/>
			<point x="140" y="689" type="curve" smooth="yes"/>
			<point x="57" y="689"/>
			<point x="11" y="644"/>
			<point x="11" y="574" type="curve" smooth="yes"/>
			<point x="11" y="494"/>
			<point x="61" y="483"/>
			<point x="123" y="470" type="curve" smooth="yes"/>
			<point x="154" y="463"/>
			<point x="163" y="456"/>
			<point x="163" y="441" type="curve" smooth="yes"/>
			<point x="163" y="423"/>
			<point x="151" y="414"/>
			<point x="126" y="414" type="curve" smooth="yes"/>
			<point x="97" y="414"/>
			<point x="49" y="428"/>
			<point x="17" y="449" type="curve"/>
			<point x="17" y="366" type="line"/>
			<point x="39" y="352"/>
			<point x="78" y="337"/>
		</contour>
		<contour>
			<point x="288" y="342" type="line"/>
			<point x="369" y="342" type="line"/>
			<point x="369" y="413" type="line" smooth="yes"/>
			<point x="369" y="478"/>
			<point x="365" y="535"/>
			<point x="357" y="590" type="curve"/>
			<point x="363" y="590" type="line"/>
			<point x="399" y="426" type="line"/>
			<point x="469" y="426" type="line"/>
			<point x="506" y="590" type="line"/>
			<point x="511" y="590" type="line"/>
			<point x="504" y="532"/>
			<point x="501" y="482"/>
			<point x="501" y="414" type="curve" smooth="yes"/>
			<point x="501" y="342" type="line"/>
			<point x="582" y="342" type="line"/>
			<point x="582" y="684" type="line"/>
			<point x="465" y="684" type="line"/>
			<point x="437" y="519" type="line"/>
			<point x="434" y="519" type="line"/>
			<point x="404" y="684" type="line"/>
			<point x="288" y="684" type="line"/>
		</contour>
	</outline>
</glyph>
<glyph name="trademark" format="2">
	<unicode hex="2122"/>
	<advance width="600"/>
	<outline>
		<contour>
			<point x="288" y="342" type="line"/>
			<point x="369" y="342" type="line"/>
			<point x="369" y="413" type="line" smooth="yes"/>
			<point x="369" y="478"/>
			<point x="365" y="535"/>
			<point x="357" y="590" type="curve"/>
			<point x="363" y="590" type="line"/>
			<point x="399" y="426" type="line"/>
			<point x="469" y="426" type="line"/>
			<point x="506" y="590" type="line"/>
			<point x="511" y="590" type="line"/>
			<point x="504" y="532"/>
			<point x="501" y="482"/>
			<point x="501" y="414" type="curve" smooth="yes"/>
			<point x="501" y="342" type="line"/>
			<point x="582" y="342" type="line"/>
			<point x="582" y="684" type="line"/>
			<point x="465" y="684" type="line"/>
			<point x="437" y="519" type="line"/>
			<point x="434" y="519" type="line"/>
			<point x="404" y="684" type="line"/>
			<point x="288" y="684" type="line"/>
		</contour>
		<contour>
			<point x="85" y="342" type="line"/>
			<point x="183" y="342" type="line"/>
			<point x="183" y="602" type="line"/>
			<point x="261" y="602" type="line"/>
			<point x="261" y="684" type="line"/>
			<point x="7" y="684" type="line"/>
			<point x="7" y="602" type="line"/>
			<point x="85" y="602" type="line"/>
		</contour>
	</outline>
	<guideline x="452" y="545" angle="90"/>
</glyph>
<glyph name="uni2196" format="2">
	<unicode hex="2196"/>
	<advance width="600"/>
	<outline>
		<contour>
			<point x="482" y="60" type="line"/>
			<point x="590" y="168" type="line"/>
			<point x="277" y="479" type="line"/>
			<point x="489" y="477" type="line"/>
			<point x="357" y="610" type="line"/>
			<point x="40" y="610" type="line"/>
			<point x="40" y="290" type="line"/>
			<point x="171" y="159" type="line"/>
			<point x="168" y="373" type="line"/>
		</contour>
	</outline>
</glyph>
<glyph name="uni2198" format="2">
	<unicode hex="2198"/>
	<advance width="600"/>
	<outline>
		<contour>
			<point x="243" y="60" type="line"/>
			<point x="560" y="60" type="line"/>
			<point x="560" y="380" type="line"/>
			<point x="429" y="511" type="line"/>
			<point x="432" y="297" type="line"/>
			<point x="118" y="610" type="line"/>
			<point x="10" y="502" type="line"/>
			<point x="323" y="191" type="line"/>
			<point x="111" y="193" type="line"/>
		</contour>
	</outline>
	<guideline x="176" y="100" angle="0"/>
</glyph>
<glyph name="uni2199" format="2">
	<unicode hex="2199"/>
	<advance width="600"/>
	<outline>
		<contour>
			<point x="40" y="60" type="line"/>
			<point x="360" y="60" type="line"/>
			<point x="491" y="191" type="line"/>
			<point x="277" y="188" type="line"/>
			<point x="590" y="502" type="line"/>
			<point x="482" y="610" type="line"/>
			<point x="171" y="297" type="line"/>
			<point x="173" y="509" type="line"/>
			<point x="40" y="377" type="line"/>
		</contour>
	</outline>
</glyph>
<glyph name="partialdiff" format="2">
	<unicode hex="2202"/>
	<advance width="600"/>
	<outline>
		<contour>
			<point x="288" y="-13" type="curve" smooth="yes"/>
			<point x="455" y="-13"/>
			<point x="569" y="91"/>
			<point x="569" y="304" type="curve" smooth="yes"/>
			<point x="569" y="318" type="line" smooth="yes"/>
			<point x="569" y="504"/>
			<point x="483" y="608"/>
			<point x="392" y="684" type="curve"/>
			<point x="111" y="684" type="line"/>
			<point x="248" y="600"/>
			<point x="315" y="533"/>
			<point x="358" y="427" type="curve"/>
			<point x="308" y="485"/>
			<point x="263" y="512"/>
			<point x="200" y="512" type="curve" smooth="yes"/>
			<point x="93" y="512"/>
			<point x="31" y="403"/>
			<point x="31" y="271" type="curve" smooth="yes"/>
			<point x="31" y="257" type="line" smooth="yes"/>
			<point x="31" y="69"/>
			<point x="129" y="-13"/>
		</contour>
		<contour>
			<point x="299" y="135" type="curve" smooth="yes"/>
			<point x="254" y="135"/>
			<point x="228" y="165"/>
			<point x="228" y="256" type="curve" smooth="yes"/>
			<point x="228" y="263" type="line" smooth="yes"/>
			<point x="228" y="354"/>
			<point x="254" y="384"/>
			<point x="299" y="384" type="curve" smooth="yes"/>
			<point x="345" y="384"/>
			<point x="371" y="354"/>
			<point x="371" y="263" type="curve" smooth="yes"/>
			<point x="371" y="256" type="line" smooth="yes"/>
			<point x="371" y="165"/>
			<point x="345" y="135"/>
		</contour>
	</outline>
	<guideline x="224" y="256" angle="0"/>
</glyph>
<glyph name="product" format="2">
	<unicode hex="220F"/>
	<advance width="600"/>
	<outline>
		<contour>
			<point x="50" y="0" type="line"/>
			<point x="238" y="0" type="line"/>
			<point x="238" y="523" type="line"/>
			<point x="362" y="523" type="line"/>
			<point x="362" y="0" type="line"/>
			<point x="550" y="0" type="line"/>
			<point x="550" y="684" type="line"/>
			<point x="50" y="684" type="line"/>
		</contour>
	</outline>
</glyph>
<glyph name="radical" format="2">
	<unicode hex="221A"/>
	<advance width="600"/>
	<outline>
		<contour>
			<point x="134" y="0" type="line"/>
			<point x="388" y="0" type="line"/>
			<point x="600" y="684" type="line"/>
			<point x="392" y="684" type="line"/>
			<point x="264" y="214" type="line"/>
			<point x="211" y="450" type="line"/>
			<point x="11" y="450" type="line"/>
			<point x="11" y="282" type="line"/>
			<point x="59" y="282" type="line"/>
		</contour>
	</outline>
</glyph>
<glyph name="notequal" format="2">
	<unicode hex="2260"/>
	<advance width="600"/>
	<outline>
		<contour>
			<point x="58" y="82" type="line"/>
			<point x="142" y="82" type="line"/>
			<point x="108" y="12" type="line"/>
			<point x="236" y="12" type="line"/>
			<point x="270" y="82" type="line"/>
			<point x="542" y="82" type="line"/>
			<point x="542" y="242" type="line"/>
			<point x="348" y="242" type="line"/>
			<point x="382" y="314" type="line"/>
			<point x="542" y="314" type="line"/>
			<point x="542" y="474" type="line"/>
			<point x="460" y="474" type="line"/>
			<point x="492" y="540" type="line"/>
			<point x="364" y="540" type="line"/>
			<point x="332" y="474" type="line"/>
			<point x="58" y="474" type="line"/>
			<point x="58" y="314" type="line"/>
			<point x="254" y="314" type="line"/>
			<point x="220" y="242" type="line"/>
			<point x="58" y="242" type="line"/>
		</contour>
	</outline>
	<guideline x="58" y="81" angle="90"/>
	<guideline x="542" y="81" angle="90"/>
</glyph>
<glyph name="greaterequal" format="2">
	<unicode hex="2265"/>
	<advance width="600"/>
	<outline>
		<contour>
			<point x="58" y="189" type="line"/>
			<point x="542" y="352" type="line"/>
			<point x="542" y="566" type="line"/>
			<point x="58" y="732" type="line"/>
			<point x="58" y="559" type="line"/>
			<point x="389" y="463" type="line"/>
			<point x="58" y="361" type="line"/>
		</contour>
		<contour>
			<point x="58" y="-14" type="line"/>
			<point x="542" y="-14" type="line"/>
			<point x="542" y="146" type="line"/>
			<point x="58" y="146" type="line"/>
		</contour>
	</outline>
</glyph>
<glyph name="lozenge" format="2">
	<unicode hex="25CA"/>
	<advance width="600"/>
	<outline>
		<contour>
			<point x="172" y="0" type="line"/>
			<point x="427" y="0" type="line"/>
			<point x="598" y="342" type="line"/>
			<point x="427" y="684" type="line"/>
			<point x="172" y="684" type="line"/>
			<point x="2" y="342" type="line"/>
		</contour>
		<contour>
			<point x="206" y="342" type="line"/>
			<point x="299" y="543" type="line"/>
			<point x="393" y="342" type="line"/>
			<point x="300" y="138" type="line"/>
		</contour>
	</outline>
	<guideline x="431" y="720" angle="90"/>
	<guideline x="457" y="720" angle="90"/>
	<guideline x="189" y="720" angle="90"/>
</glyph>
<glyph name="diamond" format="2">
	<unicode hex="2666"/>
	<advance width="600"/>
	<outline>
		<contour>
			<point x="124" y="364" type="line"/>
			<point x="445" y="-10" type="line"/>
			<point x="765" y="364" type="line"/>
			<point x="445" y="734" type="line"/>
		</contour>
	</outline>
</glyph>
<glyph name="anglebracketleft" format="2">
	<unicode hex="3008"/>
	<advance width="600"/>
	<outline>
		<contour>
			<point x="352" y="-163" type="line"/>
			<point x="560" y="-163" type="line"/>
			<point x="307" y="320" type="line"/>
			<point x="570" y="792" type="line"/>
			<point x="361" y="792" type="line"/>
			<point x="103" y="316" type="line"/>
		</contour>
	</outline>
</glyph>
<glyph name="ampersand_ampersand.cLig" format="2">
	<advance width="600"/>
	<outline>
		<contour>
			<point x="-315" y="-14" type="curve" smooth="yes"/>
			<point x="-231" y="-14"/>
			<point x="-163" y="15"/>
			<point x="-110" y="64" type="curve"/>
			<point x="-73" y="15"/>
			<point x="-11" y="-14"/>
			<point x="78" y="-14" type="curve" smooth="yes"/>
			<point x="158" y="-14"/>
			<point x="224" y="11"/>
			<point x="277" y="53" type="curve"/>
			<point x="325" y="0" type="line"/>
			<point x="535" y="0" type="line"/>
			<point x="378" y="178" type="line"/>
			<point x="415" y="247"/>
			<point x="438" y="329"/>
			<point x="451" y="416" type="curve"/>
			<point x="294" y="416" type="line"/>
			<point x="288" y="375"/>
			<point x="280" y="336"/>
			<point x="270" y="301" type="curve"/>
			<point x="179" y="404" type="line" smooth="yes"/>
			<point x="148" y="440"/>
			<point x="140" y="466"/>
			<point x="140" y="488" type="curve" smooth="yes"/>
			<point x="140" y="524"/>
			<point x="164" y="545"/>
			<point x="207" y="545" type="curve" smooth="yes"/>
			<point x="244" y="545"/>
			<point x="276" y="530"/>
			<point x="307" y="516" type="curve"/>
			<point x="307" y="675" type="line"/>
			<point x="279" y="688"/>
			<point x="237" y="698"/>
			<point x="188" y="698" type="curve" smooth="yes"/>
			<point x="34" y="698"/>
			<point x="-36" y="606"/>
			<point x="-36" y="500" type="curve" smooth="yes"/>
			<point x="-36" y="465"/>
			<point x="-30" y="435"/>
			<point x="-18" y="407" type="curve"/>
			<point x="-64" y="381"/>
			<point x="-98" y="347"/>
			<point x="-120" y="305" type="curve"/>
			<point x="-211" y="404" type="line" smooth="yes"/>
			<point x="-243" y="439"/>
			<point x="-250" y="466"/>
			<point x="-250" y="488" type="curve" smooth="yes"/>
			<point x="-250" y="524"/>
			<point x="-226" y="545"/>
			<point x="-188" y="545" type="curve"/>
			<point x="-146" y="545"/>
			<point x="-114" y="530"/>
			<point x="-83" y="516" type="curve"/>
			<point x="-83" y="675" type="line"/>
			<point x="-111" y="688"/>
			<point x="-152" y="698"/>
			<point x="-207" y="698" type="curve"/>
			<point x="-356" y="698"/>
			<point x="-426" y="606"/>
			<point x="-426" y="500" type="curve" smooth="yes"/>
			<point x="-426" y="464"/>
			<point x="-420" y="432"/>
			<point x="-408" y="403" type="curve"/>
			<point x="-486" y="355"/>
			<point x="-530" y="283"/>
			<point x="-530" y="186" type="curve" smooth="yes"/>
			<point x="-530" y="69"/>
			<point x="-457" y="-14"/>
		</contour>
		<contour>
			<point x="16" y="213" type="curve" smooth="yes"/>
			<point x="16" y="246"/>
			<point x="31" y="275"/>
			<point x="61" y="292" type="curve"/>
			<point x="61" y="294" type="line"/>
			<point x="185" y="156" type="line"/>
			<point x="163" y="139"/>
			<point x="139" y="130"/>
			<point x="111" y="130" type="curve" smooth="yes"/>
			<point x="51" y="130"/>
			<point x="16" y="164"/>
		</contour>
		<contour>
			<point x="-367" y="213" type="curve" smooth="yes"/>
			<point x="-367" y="245"/>
			<point x="-353" y="274"/>
			<point x="-324" y="291" type="curve"/>
			<point x="-201" y="166" type="line"/>
			<point x="-224" y="143"/>
			<point x="-251" y="130"/>
			<point x="-282" y="130" type="curve" smooth="yes"/>
			<point x="-336" y="130"/>
			<point x="-367" y="164"/>
		</contour>
	</outline>
</glyph>
<glyph name="ampersand_ampersand_ampersand.rem" format="2">
	<advance width="600"/>
	<outline>
		<contour>
			<point x="-835" y="-14" type="curve" smooth="yes"/>
			<point x="-749" y="-14"/>
			<point x="-671" y="13"/>
			<point x="-615" y="59" type="curve"/>
			<point x="-578" y="13"/>
			<point x="-517" y="-14"/>
			<point x="-431" y="-14" type="curve" smooth="yes"/>
			<point x="-343" y="-14"/>
			<point x="-262" y="15"/>
			<point x="-205" y="64" type="curve"/>
			<point x="-169" y="15"/>
			<point x="-106" y="-14"/>
			<point x="-17" y="-14" type="curve" smooth="yes"/>
			<point x="66" y="-14"/>
			<point x="134" y="11"/>
			<point x="189" y="55" type="curve"/>
			<point x="240" y="0" type="line"/>
			<point x="450" y="0" type="line"/>
			<point x="290" y="177" type="line"/>
			<point x="328" y="246"/>
			<point x="353" y="329"/>
			<point x="366" y="417" type="curve"/>
			<point x="209" y="416" type="line"/>
			<point x="203" y="372"/>
			<point x="194" y="332"/>
			<point x="182" y="296" type="curve"/>
			<point x="84" y="404" type="line" smooth="yes"/>
			<point x="52" y="439"/>
			<point x="45" y="466"/>
			<point x="45" y="488" type="curve" smooth="yes"/>
			<point x="45" y="524"/>
			<point x="69" y="545"/>
			<point x="112" y="545" type="curve" smooth="yes"/>
			<point x="149" y="545"/>
			<point x="181" y="530"/>
			<point x="212" y="516" type="curve"/>
			<point x="212" y="675" type="line"/>
			<point x="184" y="688"/>
			<point x="142" y="698"/>
			<point x="93" y="698" type="curve" smooth="yes"/>
			<point x="-61" y="698"/>
			<point x="-131" y="606"/>
			<point x="-131" y="500" type="curve" smooth="yes"/>
			<point x="-131" y="465"/>
			<point x="-125" y="435"/>
			<point x="-114" y="406" type="curve"/>
			<point x="-163" y="378"/>
			<point x="-199" y="341"/>
			<point x="-220" y="293" type="curve"/>
			<point x="-326" y="404" type="line" smooth="yes"/>
			<point x="-359" y="439"/>
			<point x="-364" y="466"/>
			<point x="-364" y="488" type="curve" smooth="yes"/>
			<point x="-364" y="524"/>
			<point x="-340" y="545"/>
			<point x="-297" y="545" type="curve" smooth="yes"/>
			<point x="-260" y="545"/>
			<point x="-228" y="530"/>
			<point x="-197" y="516" type="curve"/>
			<point x="-197" y="675" type="line"/>
			<point x="-225" y="688"/>
			<point x="-266" y="698"/>
			<point x="-316" y="698" type="curve" smooth="yes"/>
			<point x="-470" y="698"/>
			<point x="-540" y="606"/>
			<point x="-540" y="500" type="curve" smooth="yes"/>
			<point x="-540" y="465"/>
			<point x="-536" y="433"/>
			<point x="-525" y="404" type="curve"/>
			<point x="-572" y="377"/>
			<point x="-608" y="342"/>
			<point x="-630" y="299" type="curve"/>
			<point x="-731" y="404" type="line" smooth="yes"/>
			<point x="-764" y="438"/>
			<point x="-770" y="466"/>
			<point x="-770" y="488" type="curve" smooth="yes"/>
			<point x="-770" y="524"/>
			<point x="-746" y="545"/>
			<point x="-703" y="545" type="curve" smooth="yes"/>
			<point x="-666" y="545"/>
			<point x="-634" y="530"/>
			<point x="-603" y="516" type="curve"/>
			<point x="-603" y="675" type="line"/>
			<point x="-631" y="688"/>
			<point x="-672" y="698"/>
			<point x="-722" y="698" type="curve" smooth="yes"/>
			<point x="-876" y="698"/>
			<point x="-946" y="606"/>
			<point x="-946" y="500" type="curve" smooth="yes"/>
			<point x="-946" y="464"/>
			<point x="-941" y="432"/>
			<point x="-929" y="402" type="curve"/>
			<point x="-1007" y="355"/>
			<point x="-1050" y="283"/>
			<point x="-1050" y="186" type="curve" smooth="yes"/>
			<point x="-1050" y="69"/>
			<point x="-977" y="-14"/>
		</contour>
		<contour>
			<point x="-79" y="213" type="curve" smooth="yes"/>
			<point x="-79" y="246"/>
			<point x="-64" y="275"/>
			<point x="-34" y="292" type="curve"/>
			<point x="-34" y="295" type="line"/>
			<point x="95" y="156" type="line"/>
			<point x="72" y="139"/>
			<point x="46" y="130"/>
			<point x="16" y="130" type="curve" smooth="yes"/>
			<point x="-44" y="130"/>
			<point x="-79" y="164"/>
		</contour>
		<contour>
			<point x="-887" y="213" type="curve" smooth="yes"/>
			<point x="-887" y="246"/>
			<point x="-872" y="274"/>
			<point x="-843" y="291" type="curve"/>
			<point x="-712" y="166" type="line"/>
			<point x="-737" y="142"/>
			<point x="-768" y="130"/>
			<point x="-802" y="130" type="curve" smooth="yes"/>
			<point x="-856" y="130"/>
			<point x="-887" y="164"/>
		</contour>
		<contour>
			<point x="-483" y="213" type="curve" smooth="yes"/>
			<point x="-483" y="246"/>
			<point x="-468" y="274"/>
			<point x="-439" y="291" type="curve"/>
			<point x="-308" y="166" type="line"/>
			<point x="-333" y="142"/>
			<point x="-364" y="130"/>
			<point x="-398" y="130" type="curve" smooth="yes"/>
			<point x="-452" y="130"/>
			<point x="-483" y="164"/>
		</contour>
	</outline>
</glyph>
<glyph name="asciitilde_asciitilde.cLig" format="2">
	<advance width="600"/>
	<outline>
		<contour>
			<point x="-103" y="168" type="curve"/>
			<point x="18" y="168"/>
			<point x="25" y="287"/>
			<point x="98" y="287" type="curve"/>
			<point x="161" y="287"/>
			<point x="178" y="168"/>
			<point x="308" y="168" type="curve"/>
			<point x="416" y="168"/>
			<point x="493" y="254"/>
			<point x="520" y="452" type="curve"/>
			<point x="373" y="452" type="line"/>
			<point x="356" y="381"/>
			<point x="338" y="343"/>
			<point x="296" y="342" type="curve"/>
			<point x="230" y="343"/>
			<point x="232" y="459"/>
			<point x="97" y="459" type="curve"/>
			<point x="-42" y="459"/>
			<point x="-36" y="344"/>
			<point x="-103" y="343" type="curve"/>
			<point x="-160" y="344"/>
			<point x="-178" y="459"/>
			<point x="-299" y="459" type="curve"/>
			<point x="-419" y="459"/>
			<point x="-493" y="377"/>
			<point x="-520" y="177" type="curve"/>
			<point x="-373" y="177" type="line"/>
			<point x="-358" y="250"/>
			<point x="-342" y="287"/>
			<point x="-295" y="287" type="curve"/>
			<point x="-237" y="287"/>
			<point x="-218" y="168"/>
		</contour>
	</outline>
</glyph>
<glyph name="asciitilde_asciitilde_asciitilde.rem" format="2">
	<advance width="600"/>
	<outline>
		<contour>
			<point x="-605" y="167" type="curve"/>
			<point x="-498" y="167"/>
			<point x="-477" y="285"/>
			<point x="-406" y="285" type="curve"/>
			<point x="-336" y="285"/>
			<point x="-304" y="167"/>
			<point x="-195" y="167" type="curve"/>
			<point x="-84" y="167"/>
			<point x="-65" y="285"/>
			<point x="1" y="285" type="curve" smooth="yes"/>
			<point x="74" y="285"/>
			<point x="109" y="167"/>
			<point x="230" y="167" type="curve" smooth="yes"/>
			<point x="330" y="167"/>
			<point x="420" y="254"/>
			<point x="440" y="452" type="curve"/>
			<point x="291" y="452" type="line"/>
			<point x="281" y="389"/>
			<point x="254" y="347"/>
			<point x="206" y="347" type="curve" smooth="yes"/>
			<point x="138" y="347"/>
			<point x="125" y="461"/>
			<point x="6" y="461" type="curve"/>
			<point x="-112" y="461"/>
			<point x="-133" y="348"/>
			<point x="-195" y="348" type="curve"/>
			<point x="-266" y="348"/>
			<point x="-276" y="461"/>
			<point x="-403" y="461" type="curve"/>
			<point x="-524" y="461"/>
			<point x="-542" y="348"/>
			<point x="-601" y="348" type="curve" smooth="yes"/>
			<point x="-673" y="348"/>
			<point x="-705" y="461"/>
			<point x="-817" y="461" type="curve" smooth="yes"/>
			<point x="-932" y="461"/>
			<point x="-1021" y="380"/>
			<point x="-1040" y="177" type="curve"/>
			<point x="-888" y="177" type="line"/>
			<point x="-880" y="250"/>
			<point x="-858" y="285"/>
			<point x="-810" y="285" type="curve" smooth="yes"/>
			<point x="-736" y="285"/>
			<point x="-714" y="167"/>
		</contour>
	</outline>
</glyph>
<glyph name="asciitilde_asciitilde_greater.cLig" format="2">
	<advance width="600"/>
	<outline>
		<contour>
			<point x="57" y="628" type="line"/>
			<point x="257" y="399" type="line"/>
			<point x="9" y="399" type="line"/>
			<point x="-25" y="442"/>
			<point x="-65" y="459"/>
			<point x="-103" y="459" type="curve"/>
			<point x="-217" y="459"/>
			<point x="-234" y="342"/>
			<point x="-302" y="342" type="curve" smooth="yes"/>
			<point x="-370" y="342"/>
			<point x="-393" y="456"/>
			<point x="-498" y="456" type="curve" smooth="yes"/>
			<point x="-605" y="456"/>
			<point x="-626" y="342"/>
			<point x="-694" y="342" type="curve" smooth="yes"/>
			<point x="-761" y="342"/>
			<point x="-788" y="456"/>
			<point x="-902" y="456" type="curve" smooth="yes"/>
			<point x="-1008" y="456"/>
			<point x="-1097" y="363"/>
			<point x="-1120" y="176" type="curve"/>
			<point x="-972" y="176" type="line"/>
			<point x="-962" y="233"/>
			<point x="-939" y="278"/>
			<point x="-890" y="278" type="curve"/>
			<point x="-830" y="278"/>
			<point x="-805" y="168"/>
			<point x="-694" y="168" type="curve" smooth="yes"/>
			<point x="-580" y="168"/>
			<point x="-568" y="277"/>
			<point x="-499" y="277" type="curve" smooth="yes"/>
			<point x="-431" y="277"/>
			<point x="-421" y="168"/>
			<point x="-303" y="168" type="curve"/>
			<point x="-196" y="168"/>
			<point x="-184" y="284"/>
			<point x="-117" y="284" type="curve" smooth="yes"/>
			<point x="-84" y="284"/>
			<point x="-70" y="265"/>
			<point x="-48" y="227" type="curve"/>
			<point x="257" y="227" type="line"/>
			<point x="60" y="-1" type="line"/>
			<point x="277" y="-1" type="line"/>
			<point x="541" y="313" type="line"/>
			<point x="274" y="628" type="line"/>
		</contour>
	</outline>
</glyph>
<glyph name="asciitilde_at.cLig" format="2">
	<advance width="600"/>
	<outline>
		<contour>
			<point x="381" y="-20" type="curve"/>
			<point x="516" y="-20"/>
			<point x="577" y="84"/>
			<point x="577" y="288" type="curve" smooth="yes"/>
			<point x="577" y="302" type="line" smooth="yes"/>
			<point x="577" y="563"/>
			<point x="464" y="698"/>
			<point x="212" y="698" type="curve" smooth="yes"/>
			<point x="-36" y="698"/>
			<point x="-159" y="592"/>
			<point x="-202" y="383" type="curve" smooth="yes"/>
			<point x="-210" y="344"/>
			<point x="-222" y="327"/>
			<point x="-247" y="327" type="curve" smooth="yes"/>
			<point x="-292" y="327"/>
			<point x="-329" y="426"/>
			<point x="-432" y="426" type="curve" smooth="yes"/>
			<point x="-541" y="426"/>
			<point x="-587" y="352"/>
			<point x="-587" y="161" type="curve"/>
			<point x="-446" y="161" type="line"/>
			<point x="-446" y="222"/>
			<point x="-439" y="257"/>
			<point x="-404" y="257" type="curve"/>
			<point x="-358" y="257"/>
			<point x="-310" y="155"/>
			<point x="-214" y="155" type="curve"/>
			<point x="-123" y="155"/>
			<point x="-82" y="208"/>
			<point x="-66" y="317" type="curve" smooth="yes"/>
			<point x="-40" y="492"/>
			<point x="41" y="562"/>
			<point x="202" y="562" type="curve" smooth="yes"/>
			<point x="364" y="562"/>
			<point x="431" y="483"/>
			<point x="431" y="331" type="curve"/>
			<point x="431" y="274" type="line"/>
			<point x="431" y="118"/>
			<point x="413" y="106"/>
			<point x="392" y="106" type="curve" smooth="yes"/>
			<point x="371" y="106"/>
			<point x="361" y="118"/>
			<point x="361" y="176" type="curve" smooth="yes"/>
			<point x="361" y="480" type="line"/>
			<point x="220" y="480" type="line"/>
			<point x="220" y="400" type="line"/>
			<point x="201" y="452"/>
			<point x="176" y="491"/>
			<point x="113" y="491" type="curve" smooth="yes"/>
			<point x="40" y="491"/>
			<point x="-12" y="418"/>
			<point x="-12" y="264" type="curve" smooth="yes"/>
			<point x="-12" y="143"/>
			<point x="28" y="60"/>
			<point x="115" y="60" type="curve" smooth="yes"/>
			<point x="178" y="60"/>
			<point x="207" y="108"/>
			<point x="224" y="161" type="curve"/>
			<point x="223" y="138" type="line" smooth="yes"/>
			<point x="220" y="25"/>
			<point x="298" y="-20"/>
		</contour>
		<contour>
			<point x="176" y="176" type="curve" smooth="yes"/>
			<point x="146" y="176"/>
			<point x="129" y="202"/>
			<point x="129" y="276" type="curve" smooth="yes"/>
			<point x="129" y="349"/>
			<point x="146" y="375"/>
			<point x="176" y="375" type="curve" smooth="yes"/>
			<point x="208" y="375"/>
			<point x="225" y="340"/>
			<point x="225" y="272" type="curve" smooth="yes"/>
			<point x="225" y="193"/>
			<point x="204" y="176"/>
		</contour>
	</outline>
</glyph>
<glyph name="asciitilde_greater.cLig" format="2">
	<advance width="600"/>
	<outline>
		<contour>
			<point x="46" y="629" type="line"/>
			<point x="246" y="400" type="line"/>
			<point x="-92" y="400" type="line"/>
			<point x="-96" y="363"/>
			<point x="-111" y="336"/>
			<point x="-143" y="336" type="curve" smooth="yes"/>
			<point x="-196" y="336"/>
			<point x="-237" y="448"/>
			<point x="-352" y="448" type="curve"/>
			<point x="-457" y="448"/>
			<point x="-510" y="374"/>
			<point x="-510" y="177" type="curve"/>
			<point x="-369" y="177" type="line"/>
			<point x="-369" y="241"/>
			<point x="-358" y="272"/>
			<point x="-322" y="272" type="curve"/>
			<point x="-274" y="272"/>
			<point x="-218" y="163"/>
			<point x="-116" y="163" type="curve" smooth="yes"/>
			<point x="-63" y="163"/>
			<point x="-24" y="184"/>
			<point x="1" y="228" type="curve"/>
			<point x="246" y="228" type="line"/>
			<point x="49" y="0" type="line"/>
			<point x="266" y="0" type="line"/>
			<point x="530" y="314" type="line"/>
			<point x="263" y="629" type="line"/>
		</contour>
	</outline>
</glyph>
<glyph name="aster_comp" format="2">
	<advance width="600"/>
	<outline>
		<contour>
			<point x="267" y="550" type="curve" smooth="yes"/>
			<point x="277" y="550"/>
			<point x="288" y="555"/>
			<point x="294" y="576" type="curve" smooth="yes"/>
			<point x="353" y="790" type="line"/>
			<point x="180" y="790" type="line"/>
			<point x="239" y="576" type="line" smooth="yes"/>
			<point x="245" y="555"/>
			<point x="257" y="550"/>
		</contour>
		<contour>
			<point x="239" y="524" type="curve" smooth="yes"/>
			<point x="180" y="310" type="line"/>
			<point x="353" y="310" type="line"/>
			<point x="294" y="524" type="line" smooth="yes"/>
			<point x="288" y="545"/>
			<point x="277" y="550"/>
			<point x="267" y="550" type="curve" smooth="yes"/>
			<point x="257" y="550"/>
			<point x="245" y="545"/>
		</contour>
	</outline>
	<guideline x="197" y="720" angle="90" identifier="8hBhkjELRR"/>
	<guideline x="239" y="758" angle="0" identifier="DcCr6KDAid"/>
</glyph>
<glyph name="asterisk_asterisk.cLig" format="2">
	<advance width="600"/>
	<outline>
		<contour>
			<point x="-98" y="117" type="line"/>
			<point x="-6" y="274" type="line"/>
			<point x="-187" y="322" type="line"/>
			<point x="-5" y="368" type="line"/>
			<point x="-95" y="526" type="line"/>
			<point x="-229" y="392" type="line"/>
			<point x="-178" y="575" type="line"/>
			<point x="-361" y="575" type="line"/>
			<point x="-310" y="392" type="line"/>
			<point x="-444" y="528" type="line"/>
			<point x="-535" y="370" type="line"/>
			<point x="-351" y="322" type="line"/>
			<point x="-534" y="275" type="line"/>
			<point x="-443" y="117" type="line"/>
			<point x="-311" y="251" type="line"/>
			<point x="-361" y="69" type="line"/>
			<point x="-178" y="69" type="line"/>
			<point x="-228" y="249" type="line"/>
		</contour>
		<contour>
			<point x="442" y="116" type="line"/>
			<point x="534" y="273" type="line"/>
			<point x="353" y="321" type="line"/>
			<point x="535" y="367" type="line"/>
			<point x="445" y="525" type="line"/>
			<point x="311" y="391" type="line"/>
			<point x="362" y="574" type="line"/>
			<point x="179" y="574" type="line"/>
			<point x="230" y="391" type="line"/>
			<point x="96" y="527" type="line"/>
			<point x="5" y="369" type="line"/>
			<point x="189" y="321" type="line"/>
			<point x="6" y="274" type="line"/>
			<point x="97" y="116" type="line"/>
			<point x="229" y="250" type="line"/>
			<point x="179" y="68" type="line"/>
			<point x="362" y="68" type="line"/>
			<point x="312" y="248" type="line"/>
		</contour>
	</outline>
</glyph>
<glyph name="asterisk_asterisk_slash.rem" format="2">
	<advance width="600"/>
	<outline>
		<contour>
			<point x="310" y="792" type="line"/>
			<point x="-12" y="-163" type="line"/>
			<point x="177" y="-163" type="line"/>
			<point x="500" y="792" type="line"/>
		</contour>
		<contour>
			<point x="-658" y="117" type="line"/>
			<point x="-566" y="274" type="line"/>
			<point x="-747" y="322" type="line"/>
			<point x="-565" y="368" type="line"/>
			<point x="-655" y="526" type="line"/>
			<point x="-789" y="392" type="line"/>
			<point x="-738" y="575" type="line"/>
			<point x="-921" y="575" type="line"/>
			<point x="-870" y="392" type="line"/>
			<point x="-1004" y="528" type="line"/>
			<point x="-1095" y="370" type="line"/>
			<point x="-911" y="322" type="line"/>
			<point x="-1094" y="275" type="line"/>
			<point x="-1003" y="117" type="line"/>
			<point x="-871" y="251" type="line"/>
			<point x="-921" y="69" type="line"/>
			<point x="-738" y="69" type="line"/>
			<point x="-788" y="249" type="line"/>
		</contour>
		<contour>
			<point x="-78" y="117" type="line"/>
			<point x="14" y="274" type="line"/>
			<point x="-167" y="322" type="line"/>
			<point x="15" y="368" type="line"/>
			<point x="-75" y="526" type="line"/>
			<point x="-209" y="392" type="line"/>
			<point x="-158" y="575" type="line"/>
			<point x="-341" y="575" type="line"/>
			<point x="-290" y="392" type="line"/>
			<point x="-424" y="528" type="line"/>
			<point x="-515" y="370" type="line"/>
			<point x="-331" y="322" type="line"/>
			<point x="-514" y="275" type="line"/>
			<point x="-423" y="117" type="line"/>
			<point x="-291" y="251" type="line"/>
			<point x="-341" y="69" type="line"/>
			<point x="-158" y="69" type="line"/>
			<point x="-208" y="249" type="line"/>
		</contour>
	</outline>
</glyph>
<glyph name="backslash_backslash.rem" format="2">
	<advance width="600"/>
	<outline>
		<contour>
			<point x="-174" y="-163" type="line"/>
			<point x="16" y="-163" type="line"/>
			<point x="-306" y="792" type="line"/>
			<point x="-496" y="792" type="line"/>
		</contour>
		<contour>
			<point x="306" y="-163" type="line"/>
			<point x="496" y="-163" type="line"/>
			<point x="174" y="792" type="line"/>
			<point x="-16" y="792" type="line"/>
		</contour>
	</outline>
</glyph>
<glyph name="backslash_backslash_backslash.rem" format="2">
	<advance width="600"/>
	<outline>
		<contour>
			<point x="-734" y="-163" type="line"/>
			<point x="-544" y="-163" type="line"/>
			<point x="-866" y="792" type="line"/>
			<point x="-1056" y="792" type="line"/>
		</contour>
		<contour>
			<point x="-234" y="-163" type="line"/>
			<point x="-44" y="-163" type="line"/>
			<point x="-366" y="792" type="line"/>
			<point x="-556" y="792" type="line"/>
		</contour>
		<contour>
			<point x="266" y="-163" type="line"/>
			<point x="456" y="-163" type="line"/>
			<point x="134" y="792" type="line"/>
			<point x="-56" y="792" type="line"/>
		</contour>
	</outline>
</glyph>
<glyph name="backslash_slash.cLig" format="2">
	<advance width="600"/>
	<outline>
		<contour>
			<point x="-134" y="-163" type="line"/>
			<point x="133" y="-163" type="line"/>
			<point x="456" y="792" type="line"/>
			<point x="266" y="792" type="line"/>
			<point x="0" y="3" type="line"/>
			<point x="-266" y="792" type="line"/>
			<point x="-456" y="792" type="line"/>
		</contour>
	</outline>
</glyph>
<glyph name="bar_bar_bar.cLig" format="2">
	<advance width="600"/>
	<outline>
		<contour>
			<point x="110" y="792" type="line"/>
			<point x="110" y="-163" type="line"/>
			<point x="290" y="-163" type="line"/>
			<point x="290" y="792" type="line"/>
		</contour>
		<contour>
			<point x="-890" y="792" type="line"/>
			<point x="-890" y="-163" type="line"/>
			<point x="-710" y="-163" type="line"/>
			<point x="-710" y="792" type="line"/>
		</contour>
		<contour>
			<point x="-390" y="792" type="line"/>
			<point x="-390" y="-163" type="line"/>
			<point x="-210" y="-163" type="line"/>
			<point x="-210" y="792" type="line"/>
		</contour>
	</outline>
</glyph>
<glyph name="bar_bar_bar_greater.cLig" format="2">
	<advance width="600"/>
	<outline>
		<contour>
			<point x="-910" y="-79" type="line"/>
			<point x="-730" y="-79" type="line"/>
			<point x="-730" y="708" type="line"/>
			<point x="-910" y="708" type="line"/>
		</contour>
		<contour>
			<point x="-1470" y="-79" type="line"/>
			<point x="-1290" y="-79" type="line"/>
			<point x="-1290" y="708" type="line"/>
			<point x="-1470" y="708" type="line"/>
		</contour>
		<contour>
			<point x="-350" y="-79" type="line"/>
			<point x="-170" y="-79" type="line"/>
			<point x="334" y="208" type="line"/>
			<point x="334" y="422" type="line"/>
			<point x="-170" y="708" type="line"/>
			<point x="-350" y="708" type="line"/>
		</contour>
		<contour>
			<point x="-170" y="507" type="line"/>
			<point x="177" y="316" type="line"/>
			<point x="-170" y="121" type="line"/>
		</contour>
	</outline>
</glyph>
<glyph name="bar_greater.cLig" format="2">
	<advance width="600"/>
	<outline>
		<contour>
			<point x="-320" y="-79" type="line"/>
			<point x="-140" y="-79" type="line"/>
			<point x="364" y="208" type="line"/>
			<point x="364" y="422" type="line"/>
			<point x="-140" y="708" type="line"/>
			<point x="-320" y="708" type="line"/>
		</contour>
		<contour>
			<point x="-140" y="507" type="line"/>
			<point x="207" y="316" type="line"/>
			<point x="-140" y="121" type="line"/>
		</contour>
	</outline>
</glyph>
<glyph name="bar_hyphen.fina" format="2">
	<advance width="600"/>
	<outline>
		<contour>
			<point x="0" y="228" type="line"/>
			<point x="320" y="228" type="line"/>
			<point x="320" y="-55" type="line"/>
			<point x="500" y="-55" type="line"/>
			<point x="500" y="684" type="line"/>
			<point x="320" y="684" type="line"/>
			<point x="320" y="400" type="line"/>
			<point x="0" y="400" type="line"/>
		</contour>
	</outline>
</glyph>
<glyph name="bar_hyphen.init" format="2">
	<advance width="600"/>
	<outline>
		<contour>
			<point x="100" y="-55" type="line"/>
			<point x="280" y="-55" type="line"/>
			<point x="280" y="228" type="line"/>
			<point x="600" y="228" type="line"/>
			<point x="600" y="400" type="line"/>
			<point x="280" y="400" type="line"/>
			<point x="280" y="684" type="line"/>
			<point x="100" y="684" type="line"/>
		</contour>
	</outline>
</glyph>
<glyph name="braceleft_hyphen.rem" format="2">
	<advance width="600"/>
	<outline>
		<contour>
			<point x="21" y="792" type="line"/>
			<point x="-190" y="792" type="line" smooth="yes"/>
			<point x="-301" y="792"/>
			<point x="-366" y="736"/>
			<point x="-366" y="661" type="curve" smooth="yes"/>
			<point x="-366" y="572"/>
			<point x="-284" y="519"/>
			<point x="-284" y="463" type="curve" smooth="yes"/>
			<point x="-284" y="425"/>
			<point x="-305" y="395"/>
			<point x="-365" y="395" type="curve" smooth="yes"/>
			<point x="-450" y="395" type="line"/>
			<point x="-450" y="237" type="line"/>
			<point x="-365" y="237" type="line" smooth="yes"/>
			<point x="-305" y="237"/>
			<point x="-284" y="211"/>
			<point x="-284" y="179" type="curve" smooth="yes"/>
			<point x="-284" y="119"/>
			<point x="-366" y="61"/>
			<point x="-366" y="-30" type="curve" smooth="yes"/>
			<point x="-366" y="-106"/>
			<point x="-303" y="-163"/>
			<point x="-190" y="-163" type="curve" smooth="yes"/>
			<point x="21" y="-163" type="line"/>
			<point x="21" y="-26" type="line"/>
			<point x="-116" y="-26" type="line" smooth="yes"/>
			<point x="-149" y="-26"/>
			<point x="-164" y="-16"/>
			<point x="-164" y="5" type="curve" smooth="yes"/>
			<point x="-164" y="47"/>
			<point x="-89" y="92"/>
			<point x="-89" y="148" type="curve"/>
			<point x="-89" y="194"/>
			<point x="-131" y="218"/>
			<point x="-195" y="233" type="curve"/>
			<point x="450" y="233" type="line"/>
			<point x="450" y="397" type="line"/>
			<point x="-182" y="397" type="line"/>
			<point x="-125" y="419"/>
			<point x="-89" y="443"/>
			<point x="-89" y="487" type="curve"/>
			<point x="-89" y="543"/>
			<point x="-164" y="581"/>
			<point x="-164" y="624" type="curve" smooth="yes"/>
			<point x="-164" y="640"/>
			<point x="-150" y="655"/>
			<point x="-107" y="655" type="curve" smooth="yes"/>
			<point x="21" y="655" type="line"/>
		</contour>
	</outline>
</glyph>
<glyph name="bracketright_bracketright.cLig" format="2">
	<advance width="600"/>
	<outline>
		<contour>
			<point x="457" y="792" type="line"/>
			<point x="37" y="792" type="line"/>
			<point x="37" y="655" type="line"/>
			<point x="276" y="655" type="line"/>
			<point x="276" y="-26" type="line"/>
			<point x="37" y="-26" type="line"/>
			<point x="37" y="-163" type="line"/>
			<point x="457" y="-163" type="line"/>
		</contour>
		<contour>
			<point x="-37" y="792" type="line"/>
			<point x="-409" y="792" type="line"/>
			<point x="-409" y="655" type="line"/>
			<point x="-218" y="655" type="line"/>
			<point x="-218" y="-26" type="line"/>
			<point x="-409" y="-26" type="line"/>
			<point x="-409" y="-163" type="line"/>
			<point x="-37" y="-163" type="line"/>
		</contour>
	</outline>
</glyph>
<glyph name="breve.cap" format="2">
	<advance width="600"/>
	<outline>
		<contour>
			<point x="300" y="733" type="curve" smooth="yes"/>
			<point x="416" y="733"/>
			<point x="483" y="775"/>
			<point x="483" y="884" type="curve"/>
			<point x="352" y="884" type="line"/>
			<point x="352" y="840"/>
			<point x="338" y="822"/>
			<point x="300" y="822" type="curve" smooth="yes"/>
			<point x="259" y="822"/>
			<point x="248" y="841"/>
			<point x="248" y="884" type="curve"/>
			<point x="117" y="884" type="line"/>
			<point x="117" y="775"/>
			<point x="177" y="733"/>
		</contour>
	</outline>
	<anchor name="_top" x="300" y="684"/>
</glyph>
<glyph name="caron.cap" format="2">
	<advance width="600"/>
	<outline>
		<contour>
			<point x="519" y="884" type="line"/>
			<point x="357" y="884" type="line"/>
			<point x="301" y="807" type="line"/>
			<point x="243" y="884" type="line"/>
			<point x="80" y="884" type="line"/>
			<point x="195" y="741" type="line"/>
			<point x="405" y="741" type="line"/>
		</contour>
	</outline>
	<anchor name="_top" x="301" y="684"/>
</glyph>
<glyph name="caronSlovak" format="2">
	<advance width="600"/>
	<outline>
		<contour>
			<point x="230" y="558" type="line"/>
			<point x="325" y="558" type="line"/>
			<point x="411" y="750" type="line"/>
			<point x="230" y="750" type="line"/>
		</contour>
	</outline>
	<anchor name="_caron" x="230" y="750"/>
	<guideline x="230" y="707" angle="90"/>
</glyph>
<glyph name="circumflex.cap" format="2">
	<advance width="600"/>
	<outline>
		<contour>
			<point x="80" y="741" type="line"/>
			<point x="242" y="741" type="line"/>
			<point x="299" y="818" type="line"/>
			<point x="356" y="741" type="line"/>
			<point x="519" y="741" type="line"/>
			<point x="404" y="884" type="line"/>
			<point x="194" y="884" type="line"/>
		</contour>
	</outline>
	<anchor name="_top" x="300" y="684"/>
	<guideline x="195" y="985" angle="0"/>
</glyph>
<glyph name="colon_colon.cLig" format="2">
	<advance width="600"/>
	<outline>
		<contour>
			<point x="-217" y="-12" type="curve" smooth="yes"/>
			<point x="-134" y="-12"/>
			<point x="-91" y="19"/>
			<point x="-91" y="102" type="curve" smooth="yes"/>
			<point x="-91" y="184"/>
			<point x="-134" y="215"/>
			<point x="-217" y="215" type="curve" smooth="yes"/>
			<point x="-300" y="215"/>
			<point x="-343" y="184"/>
			<point x="-343" y="102" type="curve" smooth="yes"/>
			<point x="-343" y="19"/>
			<point x="-300" y="-12"/>
		</contour>
		<contour>
			<point x="-217" y="308" type="curve" smooth="yes"/>
			<point x="-134" y="308"/>
			<point x="-91" y="339"/>
			<point x="-91" y="422" type="curve" smooth="yes"/>
			<point x="-91" y="504"/>
			<point x="-134" y="535"/>
			<point x="-217" y="535" type="curve" smooth="yes"/>
			<point x="-300" y="535"/>
			<point x="-343" y="504"/>
			<point x="-343" y="422" type="curve" smooth="yes"/>
			<point x="-343" y="339"/>
			<point x="-300" y="308"/>
		</contour>
		<contour>
			<point x="217" y="-12" type="curve" smooth="yes"/>
			<point x="300" y="-12"/>
			<point x="343" y="19"/>
			<point x="343" y="102" type="curve" smooth="yes"/>
			<point x="343" y="184"/>
			<point x="300" y="215"/>
			<point x="217" y="215" type="curve" smooth="yes"/>
			<point x="134" y="215"/>
			<point x="91" y="184"/>
			<point x="91" y="102" type="curve" smooth="yes"/>
			<point x="91" y="19"/>
			<point x="134" y="-12"/>
		</contour>
		<contour>
			<point x="217" y="308" type="curve" smooth="yes"/>
			<point x="300" y="308"/>
			<point x="343" y="339"/>
			<point x="343" y="422" type="curve" smooth="yes"/>
			<point x="343" y="504"/>
			<point x="300" y="535"/>
			<point x="217" y="535" type="curve" smooth="yes"/>
			<point x="134" y="535"/>
			<point x="91" y="504"/>
			<point x="91" y="422" type="curve" smooth="yes"/>
			<point x="91" y="339"/>
			<point x="134" y="308"/>
		</contour>
	</outline>
</glyph>
<glyph name="colon_colon_colon.cLig" format="2">
	<advance width="600"/>
	<outline>
		<contour>
			<point x="-743" y="-12" type="curve" smooth="yes"/>
			<point x="-660" y="-12"/>
			<point x="-617" y="19"/>
			<point x="-617" y="102" type="curve" smooth="yes"/>
			<point x="-617" y="184"/>
			<point x="-660" y="215"/>
			<point x="-743" y="215" type="curve" smooth="yes"/>
			<point x="-826" y="215"/>
			<point x="-869" y="184"/>
			<point x="-869" y="102" type="curve" smooth="yes"/>
			<point x="-869" y="19"/>
			<point x="-826" y="-12"/>
		</contour>
		<contour>
			<point x="-743" y="308" type="curve" smooth="yes"/>
			<point x="-660" y="308"/>
			<point x="-617" y="339"/>
			<point x="-617" y="422" type="curve" smooth="yes"/>
			<point x="-617" y="504"/>
			<point x="-660" y="535"/>
			<point x="-743" y="535" type="curve" smooth="yes"/>
			<point x="-826" y="535"/>
			<point x="-869" y="504"/>
			<point x="-869" y="422" type="curve" smooth="yes"/>
			<point x="-869" y="339"/>
			<point x="-826" y="308"/>
		</contour>
		<contour>
			<point x="-300" y="-12" type="curve" smooth="yes"/>
			<point x="-217" y="-12"/>
			<point x="-174" y="19"/>
			<point x="-174" y="102" type="curve" smooth="yes"/>
			<point x="-174" y="184"/>
			<point x="-217" y="215"/>
			<point x="-300" y="215" type="curve" smooth="yes"/>
			<point x="-383" y="215"/>
			<point x="-426" y="184"/>
			<point x="-426" y="102" type="curve" smooth="yes"/>
			<point x="-426" y="19"/>
			<point x="-383" y="-12"/>
		</contour>
		<contour>
			<point x="-300" y="308" type="curve" smooth="yes"/>
			<point x="-217" y="308"/>
			<point x="-174" y="339"/>
			<point x="-174" y="422" type="curve" smooth="yes"/>
			<point x="-174" y="504"/>
			<point x="-217" y="535"/>
			<point x="-300" y="535" type="curve" smooth="yes"/>
			<point x="-383" y="535"/>
			<point x="-426" y="504"/>
			<point x="-426" y="422" type="curve" smooth="yes"/>
			<point x="-426" y="339"/>
			<point x="-383" y="308"/>
		</contour>
		<contour>
			<point x="143" y="-12" type="curve" smooth="yes"/>
			<point x="226" y="-12"/>
			<point x="269" y="19"/>
			<point x="269" y="102" type="curve" smooth="yes"/>
			<point x="269" y="184"/>
			<point x="226" y="215"/>
			<point x="143" y="215" type="curve" smooth="yes"/>
			<point x="60" y="215"/>
			<point x="17" y="184"/>
			<point x="17" y="102" type="curve" smooth="yes"/>
			<point x="17" y="19"/>
			<point x="60" y="-12"/>
		</contour>
		<contour>
			<point x="143" y="308" type="curve" smooth="yes"/>
			<point x="226" y="308"/>
			<point x="269" y="339"/>
			<point x="269" y="422" type="curve" smooth="yes"/>
			<point x="269" y="504"/>
			<point x="226" y="535"/>
			<point x="143" y="535" type="curve" smooth="yes"/>
			<point x="60" y="535"/>
			<point x="17" y="504"/>
			<point x="17" y="422" type="curve" smooth="yes"/>
			<point x="17" y="339"/>
			<point x="60" y="308"/>
		</contour>
	</outline>
</glyph>
<glyph name="colon_colon_equal.cLig" format="2">
	<advance width="600"/>
	<outline>
		<contour>
			<point x="-827" y="9" type="curve" smooth="yes"/>
			<point x="-744" y="9"/>
			<point x="-701" y="40"/>
			<point x="-701" y="123" type="curve" smooth="yes"/>
			<point x="-701" y="205"/>
			<point x="-744" y="236"/>
			<point x="-827" y="236" type="curve" smooth="yes"/>
			<point x="-910" y="236"/>
			<point x="-953" y="205"/>
			<point x="-953" y="123" type="curve" smooth="yes"/>
			<point x="-953" y="40"/>
			<point x="-910" y="9"/>
		</contour>
		<contour>
			<point x="-827" y="308" type="curve" smooth="yes"/>
			<point x="-744" y="308"/>
			<point x="-701" y="339"/>
			<point x="-701" y="422" type="curve" smooth="yes"/>
			<point x="-701" y="504"/>
			<point x="-744" y="535"/>
			<point x="-827" y="535" type="curve" smooth="yes"/>
			<point x="-910" y="535"/>
			<point x="-953" y="504"/>
			<point x="-953" y="422" type="curve" smooth="yes"/>
			<point x="-953" y="339"/>
			<point x="-910" y="308"/>
		</contour>
		<contour>
			<point x="-413" y="9" type="curve" smooth="yes"/>
			<point x="-330" y="9"/>
			<point x="-287" y="40"/>
			<point x="-287" y="123" type="curve" smooth="yes"/>
			<point x="-287" y="205"/>
			<point x="-330" y="236"/>
			<point x="-413" y="236" type="curve" smooth="yes"/>
			<point x="-496" y="236"/>
			<point x="-539" y="205"/>
			<point x="-539" y="123" type="curve" smooth="yes"/>
			<point x="-539" y="40"/>
			<point x="-496" y="9"/>
		</contour>
		<contour>
			<point x="-413" y="308" type="curve" smooth="yes"/>
			<point x="-330" y="308"/>
			<point x="-287" y="339"/>
			<point x="-287" y="422" type="curve" smooth="yes"/>
			<point x="-287" y="504"/>
			<point x="-330" y="535"/>
			<point x="-413" y="535" type="curve" smooth="yes"/>
			<point x="-496" y="535"/>
			<point x="-539" y="504"/>
			<point x="-539" y="422" type="curve" smooth="yes"/>
			<point x="-539" y="339"/>
			<point x="-496" y="308"/>
		</contour>
		<contour>
			<point x="-92" y="314" type="line"/>
			<point x="392" y="314" type="line"/>
			<point x="392" y="474" type="line"/>
			<point x="-92" y="474" type="line"/>
		</contour>
		<contour>
			<point x="-92" y="82" type="line"/>
			<point x="392" y="82" type="line"/>
			<point x="392" y="242" type="line"/>
			<point x="-92" y="242" type="line"/>
		</contour>
	</outline>
</glyph>
<glyph name="colon_equal.cLig" format="2">
	<advance width="600"/>
	<outline>
		<contour>
			<point x="-323" y="9" type="curve" smooth="yes"/>
			<point x="-240" y="9"/>
			<point x="-197" y="40"/>
			<point x="-197" y="123" type="curve" smooth="yes"/>
			<point x="-197" y="205"/>
			<point x="-240" y="236"/>
			<point x="-323" y="236" type="curve" smooth="yes"/>
			<point x="-406" y="236"/>
			<point x="-449" y="205"/>
			<point x="-449" y="123" type="curve" smooth="yes"/>
			<point x="-449" y="40"/>
			<point x="-406" y="9"/>
		</contour>
		<contour>
			<point x="-323" y="308" type="curve" smooth="yes"/>
			<point x="-240" y="308"/>
			<point x="-197" y="339"/>
			<point x="-197" y="422" type="curve" smooth="yes"/>
			<point x="-197" y="504"/>
			<point x="-240" y="535"/>
			<point x="-323" y="535" type="curve" smooth="yes"/>
			<point x="-406" y="535"/>
			<point x="-449" y="504"/>
			<point x="-449" y="422" type="curve" smooth="yes"/>
			<point x="-449" y="339"/>
			<point x="-406" y="308"/>
		</contour>
		<contour>
			<point x="-42" y="314" type="line"/>
			<point x="442" y="314" type="line"/>
			<point x="442" y="474" type="line"/>
			<point x="-42" y="474" type="line"/>
		</contour>
		<contour>
			<point x="-42" y="82" type="line"/>
			<point x="442" y="82" type="line"/>
			<point x="442" y="242" type="line"/>
			<point x="-42" y="242" type="line"/>
		</contour>
	</outline>
</glyph>
<glyph name="colon_greater.cLig.x" format="2">
	<advance width="600"/>
	<outline>
		<contour>
			<point x="6" y="-14" type="line"/>
			<point x="460" y="208" type="line"/>
			<point x="460" y="422" type="line"/>
			<point x="6" y="646" type="line"/>
			<point x="6" y="461" type="line"/>
			<point x="323" y="315" type="line"/>
			<point x="6" y="166" type="line"/>
		</contour>
		<contour>
			<point x="-300" y="351" type="curve" smooth="yes"/>
			<point x="-217" y="351"/>
			<point x="-174" y="382"/>
			<point x="-174" y="465" type="curve" smooth="yes"/>
			<point x="-174" y="547"/>
			<point x="-217" y="578"/>
			<point x="-300" y="578" type="curve" smooth="yes"/>
			<point x="-383" y="578"/>
			<point x="-426" y="547"/>
			<point x="-426" y="465" type="curve" smooth="yes"/>
			<point x="-426" y="382"/>
			<point x="-383" y="351"/>
		</contour>
		<contour>
			<point x="-300" y="31" type="curve" smooth="yes"/>
			<point x="-217" y="31"/>
			<point x="-174" y="62"/>
			<point x="-174" y="145" type="curve" smooth="yes"/>
			<point x="-174" y="227"/>
			<point x="-217" y="258"/>
			<point x="-300" y="258" type="curve" smooth="yes"/>
			<point x="-383" y="258"/>
			<point x="-426" y="227"/>
			<point x="-426" y="145" type="curve" smooth="yes"/>
			<point x="-426" y="62"/>
			<point x="-383" y="31"/>
		</contour>
	</outline>
</glyph>
<glyph name="dieresis.cap" format="2">
	<advance width="600"/>
	<outline>
		<contour>
			<point x="411" y="886" type="curve" smooth="yes"/>
			<point x="344" y="886"/>
			<point x="321" y="862"/>
			<point x="321" y="810" type="curve" smooth="yes"/>
			<point x="321" y="758"/>
			<point x="343" y="732"/>
			<point x="411" y="732" type="curve" smooth="yes"/>
			<point x="480" y="732"/>
			<point x="502" y="759"/>
			<point x="502" y="810" type="curve" smooth="yes"/>
			<point x="502" y="861"/>
			<point x="480" y="886"/>
		</contour>
		<contour>
			<point x="189" y="732" type="curve" smooth="yes"/>
			<point x="257" y="732"/>
			<point x="278" y="759"/>
			<point x="278" y="810" type="curve" smooth="yes"/>
			<point x="278" y="861"/>
			<point x="257" y="886"/>
			<point x="189" y="886" type="curve" smooth="yes"/>
			<point x="121" y="886"/>
			<point x="98" y="862"/>
			<point x="98" y="810" type="curve" smooth="yes"/>
			<point x="98" y="758"/>
			<point x="120" y="732"/>
		</contour>
	</outline>
	<anchor name="_top" x="300" y="684"/>
</glyph>
<glyph name="dollar_greater.cLig" format="2">
	<advance width="600"/>
	<outline>
		<contour>
			<point x="-423" y="-93" type="line"/>
			<point x="-303" y="-93" type="line"/>
			<point x="-289" y="-11" type="line"/>
			<point x="-288" y="-11" type="line" smooth="yes"/>
			<point x="-124" y="-11"/>
			<point x="-23" y="66"/>
			<point x="-23" y="231" type="curve" smooth="yes"/>
			<point x="-23" y="351"/>
			<point x="-109" y="401"/>
			<point x="-229" y="427" type="curve"/>
			<point x="-208" y="538" type="line"/>
			<point x="-147" y="529"/>
			<point x="-82" y="502"/>
			<point x="57" y="446" type="curve" smooth="yes"/>
			<point x="378" y="315" type="line"/>
			<point x="86" y="195" type="line"/>
			<point x="86" y="13" type="line"/>
			<point x="530" y="208" type="line"/>
			<point x="530" y="422" type="line"/>
			<point x="130" y="594" type="line" smooth="yes"/>
			<point x="53" y="627"/>
			<point x="-61" y="666"/>
			<point x="-165" y="684" type="curve"/>
			<point x="-150" y="774" type="line"/>
			<point x="-271" y="774" type="line"/>
			<point x="-284" y="695" type="line"/>
			<point x="-448" y="692"/>
			<point x="-556" y="614"/>
			<point x="-556" y="467" type="curve" smooth="yes"/>
			<point x="-556" y="332"/>
			<point x="-477" y="291"/>
			<point x="-344" y="264" type="curve"/>
			<point x="-364" y="153" type="line"/>
			<point x="-420" y="164"/>
			<point x="-484" y="187"/>
			<point x="-544" y="223" type="curve"/>
			<point x="-544" y="54" type="line"/>
			<point x="-504" y="31"/>
			<point x="-459" y="13"/>
			<point x="-408" y="2" type="curve"/>
		</contour>
		<contour>
			<point x="-367" y="493" type="curve" smooth="yes"/>
			<point x="-367" y="528"/>
			<point x="-341" y="540"/>
			<point x="-294" y="542" type="curve"/>
			<point x="-312" y="443" type="line"/>
			<point x="-349" y="453"/>
			<point x="-367" y="466"/>
		</contour>
		<contour>
			<point x="-212" y="195" type="curve" smooth="yes"/>
			<point x="-212" y="163"/>
			<point x="-236" y="147"/>
			<point x="-280" y="145" type="curve"/>
			<point x="-261" y="245" type="line"/>
			<point x="-228" y="233"/>
			<point x="-212" y="218"/>
		</contour>
	</outline>
</glyph>
<glyph name="dotbelow" format="2">
	<advance width="600"/>
	<outline>
		<contour>
			<point x="300" y="-244" type="curve" smooth="yes"/>
			<point x="370" y="-244"/>
			<point x="406" y="-216"/>
			<point x="406" y="-145" type="curve" smooth="yes"/>
			<point x="406" y="-76"/>
			<point x="371" y="-48"/>
			<point x="300" y="-48" type="curve" smooth="yes"/>
			<point x="229" y="-48"/>
			<point x="193" y="-76"/>
			<point x="193" y="-145" type="curve" smooth="yes"/>
			<point x="193" y="-217"/>
			<point x="231" y="-244"/>
		</contour>
	</outline>
	<anchor name="bottom" x="301" y="0"/>
</glyph>
<glyph name="equal.den" format="2">
	<advance width="600"/>
	<outline>
		<contour>
			<point x="136" y="315" type="line"/>
			<point x="136" y="215" type="line"/>
			<point x="464" y="215" type="line"/>
			<point x="464" y="315" type="line"/>
		</contour>
		<contour>
			<point x="136" y="168" type="line"/>
			<point x="136" y="68" type="line"/>
			<point x="464" y="68" type="line"/>
			<point x="464" y="168" type="line"/>
		</contour>
	</outline>
</glyph>
<glyph name="equal.init" format="2">
	<advance width="600"/>
	<outline>
		<contour>
			<point x="150" y="351" type="line"/>
			<point x="600" y="351" type="line"/>
			<point x="600" y="511" type="line"/>
			<point x="150" y="511" type="line"/>
		</contour>
		<contour>
			<point x="150" y="118" type="line"/>
			<point x="600" y="118" type="line"/>
			<point x="600" y="278" type="line"/>
			<point x="150" y="278" type="line"/>
		</contour>
	</outline>
	<guideline x="418" y="629" angle="0"/>
</glyph>
<glyph name="equal_exclam_equal.rem" format="2">
	<advance width="600"/>
	<outline>
		<contour>
			<point x="-370" y="255" type="line"/>
			<point x="-230" y="255" type="line"/>
			<point x="-193" y="574" type="line"/>
			<point x="-193" y="684" type="line"/>
			<point x="-406" y="684" type="line"/>
			<point x="-406" y="574" type="line"/>
		</contour>
		<contour>
			<point x="-298" y="-12" type="curve" smooth="yes"/>
			<point x="-222" y="-12"/>
			<point x="-183" y="16"/>
			<point x="-183" y="92" type="curve" smooth="yes"/>
			<point x="-183" y="165"/>
			<point x="-221" y="195"/>
			<point x="-298" y="195" type="curve" smooth="yes"/>
			<point x="-377" y="195"/>
			<point x="-415" y="165"/>
			<point x="-415" y="92" type="curve" smooth="yes"/>
			<point x="-415" y="16"/>
			<point x="-376" y="-12"/>
		</contour>
		<contour>
			<point x="-1050" y="314" type="line"/>
			<point x="-566" y="314" type="line"/>
			<point x="-566" y="474" type="line"/>
			<point x="-1050" y="474" type="line"/>
		</contour>
		<contour>
			<point x="-1050" y="82" type="line"/>
			<point x="-566" y="82" type="line"/>
			<point x="-566" y="242" type="line"/>
			<point x="-1050" y="242" type="line"/>
		</contour>
		<contour>
			<point x="-34" y="314" type="line"/>
			<point x="450" y="314" type="line"/>
			<point x="450" y="474" type="line"/>
			<point x="-34" y="474" type="line"/>
		</contour>
		<contour>
			<point x="-34" y="82" type="line"/>
			<point x="450" y="82" type="line"/>
			<point x="450" y="242" type="line"/>
			<point x="-34" y="242" type="line"/>
		</contour>
	</outline>
</glyph>
<glyph name="equal_less_less.rem" format="2">
	<advance width="600"/>
	<outline>
		<contour>
			<point x="525" y="629" type="line"/>
			<point x="305" y="629" type="line"/>
			<point x="46" y="315" type="line"/>
			<point x="308" y="0" type="line"/>
			<point x="528" y="0" type="line"/>
			<point x="263" y="314" type="line"/>
		</contour>
		<contour>
			<point x="120" y="629" type="line"/>
			<point x="-97" y="629" type="line"/>
			<point x="-190" y="511" type="line"/>
			<point x="-1050" y="511" type="line"/>
			<point x="-1050" y="351" type="line"/>
			<point x="-101" y="351" type="line"/>
		</contour>
		<contour>
			<point x="-102" y="278" type="line"/>
			<point x="-1050" y="278" type="line"/>
			<point x="-1050" y="118" type="line"/>
			<point x="-188" y="118" type="line"/>
			<point x="-94" y="0" type="line"/>
			<point x="123" y="0" type="line"/>
		</contour>
	</outline>
</glyph>
<glyph name="exclam_asciitilde.cLig" format="2">
	<advance width="600"/>
	<outline>
		<contour>
			<point x="-320" y="83" type="line"/>
			<point x="-214" y="83" type="line"/>
			<point x="-318" y="-82" type="line"/>
			<point x="-154" y="-82" type="line"/>
			<point x="-50" y="83" type="line"/>
			<point x="320" y="83" type="line"/>
			<point x="320" y="243" type="line"/>
			<point x="51" y="243" type="line"/>
			<point x="87" y="301" type="line"/>
			<point x="110" y="296"/>
			<point x="136" y="293"/>
			<point x="164" y="293" type="curve" smooth="yes"/>
			<point x="236" y="293"/>
			<point x="291" y="322"/>
			<point x="320" y="364" type="curve"/>
			<point x="320" y="533" type="line"/>
			<point x="276" y="478"/>
			<point x="239" y="459"/>
			<point x="185" y="456" type="curve"/>
			<point x="302" y="642" type="line"/>
			<point x="138" y="642" type="line"/>
			<point x="38" y="483" type="line"/>
			<point x="-20" y="505"/>
			<point x="-81" y="531"/>
			<point x="-154" y="531" type="curve" smooth="yes"/>
			<point x="-222" y="531"/>
			<point x="-291" y="503"/>
			<point x="-320" y="461" type="curve"/>
			<point x="-320" y="291" type="line"/>
			<point x="-281" y="343"/>
			<point x="-217" y="369"/>
			<point x="-153" y="369" type="curve" smooth="yes"/>
			<point x="-115" y="369"/>
			<point x="-82" y="359"/>
			<point x="-48" y="346" type="curve"/>
			<point x="-113" y="243" type="line"/>
			<point x="-320" y="243" type="line"/>
		</contour>
	</outline>
</glyph>
<glyph name="exclam_equal.cLig" format="2">
	<advance width="600"/>
	<outline>
		<contour>
			<point x="-450" y="82" type="line"/>
			<point x="-209" y="82" type="line"/>
			<point x="-312" y="-82" type="line"/>
			<point x="-144" y="-82" type="line"/>
			<point x="-41" y="82" type="line"/>
			<point x="450" y="82" type="line"/>
			<point x="450" y="242" type="line"/>
			<point x="60" y="242" type="line"/>
			<point x="105" y="314" type="line"/>
			<point x="450" y="314" type="line"/>
			<point x="450" y="474" type="line"/>
			<point x="206" y="474" type="line"/>
			<point x="312" y="642" type="line"/>
			<point x="144" y="642" type="line"/>
			<point x="38" y="474" type="line"/>
			<point x="-450" y="474" type="line"/>
			<point x="-450" y="314" type="line"/>
			<point x="-63" y="314" type="line"/>
			<point x="-108" y="242" type="line"/>
			<point x="-450" y="242" type="line"/>
		</contour>
	</outline>
</glyph>
<glyph name="exclam_exclam.cLig" format="2">
	<advance width="600"/>
	<outline>
		<contour>
			<point x="-298" y="255" type="line"/>
			<point x="-158" y="255" type="line"/>
			<point x="-121" y="574" type="line"/>
			<point x="-121" y="684" type="line"/>
			<point x="-334" y="684" type="line"/>
			<point x="-334" y="574" type="line"/>
		</contour>
		<contour>
			<point x="-226" y="-12" type="curve" smooth="yes"/>
			<point x="-150" y="-12"/>
			<point x="-111" y="16"/>
			<point x="-111" y="92" type="curve" smooth="yes"/>
			<point x="-111" y="165"/>
			<point x="-149" y="195"/>
			<point x="-226" y="195" type="curve" smooth="yes"/>
			<point x="-305" y="195"/>
			<point x="-343" y="165"/>
			<point x="-343" y="92" type="curve" smooth="yes"/>
			<point x="-343" y="16"/>
			<point x="-304" y="-12"/>
		</contour>
		<contour>
			<point x="156" y="255" type="line"/>
			<point x="296" y="255" type="line"/>
			<point x="333" y="574" type="line"/>
			<point x="333" y="684" type="line"/>
			<point x="120" y="684" type="line"/>
			<point x="120" y="574" type="line"/>
		</contour>
		<contour>
			<point x="228" y="-12" type="curve" smooth="yes"/>
			<point x="304" y="-12"/>
			<point x="343" y="16"/>
			<point x="343" y="92" type="curve" smooth="yes"/>
			<point x="343" y="165"/>
			<point x="305" y="195"/>
			<point x="228" y="195" type="curve" smooth="yes"/>
			<point x="149" y="195"/>
			<point x="111" y="165"/>
			<point x="111" y="92" type="curve" smooth="yes"/>
			<point x="111" y="16"/>
			<point x="150" y="-12"/>
		</contour>
	</outline>
</glyph>
<glyph name="exclam_exclam_exclam.rem" format="2">
	<advance width="600"/>
	<outline>
		<contour>
			<point x="-844" y="255" type="line"/>
			<point x="-704" y="255" type="line"/>
			<point x="-667" y="574" type="line"/>
			<point x="-667" y="684" type="line"/>
			<point x="-880" y="684" type="line"/>
			<point x="-880" y="574" type="line"/>
		</contour>
		<contour>
			<point x="-772" y="-12" type="curve" smooth="yes"/>
			<point x="-696" y="-12"/>
			<point x="-657" y="16"/>
			<point x="-657" y="92" type="curve" smooth="yes"/>
			<point x="-657" y="165"/>
			<point x="-695" y="195"/>
			<point x="-772" y="195" type="curve" smooth="yes"/>
			<point x="-851" y="195"/>
			<point x="-889" y="165"/>
			<point x="-889" y="92" type="curve" smooth="yes"/>
			<point x="-889" y="16"/>
			<point x="-850" y="-12"/>
		</contour>
		<contour>
			<point x="-370" y="255" type="line"/>
			<point x="-230" y="255" type="line"/>
			<point x="-193" y="574" type="line"/>
			<point x="-193" y="684" type="line"/>
			<point x="-406" y="684" type="line"/>
			<point x="-406" y="574" type="line"/>
		</contour>
		<contour>
			<point x="-298" y="-12" type="curve" smooth="yes"/>
			<point x="-222" y="-12"/>
			<point x="-183" y="16"/>
			<point x="-183" y="92" type="curve" smooth="yes"/>
			<point x="-183" y="165"/>
			<point x="-221" y="195"/>
			<point x="-298" y="195" type="curve" smooth="yes"/>
			<point x="-377" y="195"/>
			<point x="-415" y="165"/>
			<point x="-415" y="92" type="curve" smooth="yes"/>
			<point x="-415" y="16"/>
			<point x="-376" y="-12"/>
		</contour>
		<contour>
			<point x="104" y="255" type="line"/>
			<point x="244" y="255" type="line"/>
			<point x="281" y="574" type="line"/>
			<point x="281" y="684" type="line"/>
			<point x="68" y="684" type="line"/>
			<point x="68" y="574" type="line"/>
		</contour>
		<contour>
			<point x="176" y="-12" type="curve" smooth="yes"/>
			<point x="252" y="-12"/>
			<point x="291" y="16"/>
			<point x="291" y="92" type="curve" smooth="yes"/>
			<point x="291" y="165"/>
			<point x="253" y="195"/>
			<point x="176" y="195" type="curve" smooth="yes"/>
			<point x="97" y="195"/>
			<point x="59" y="165"/>
			<point x="59" y="92" type="curve" smooth="yes"/>
			<point x="59" y="16"/>
			<point x="98" y="-12"/>
		</contour>
	</outline>
</glyph>
<glyph name="grave.cap" format="2">
	<advance width="600"/>
	<outline>
		<contour>
			<point x="424" y="741" type="line"/>
			<point x="381" y="884" type="line"/>
			<point x="175" y="884" type="line"/>
			<point x="284" y="741" type="line"/>
		</contour>
	</outline>
	<anchor name="_top" x="354" y="684"/>
</glyph>
<glyph name="greater_equal.cLig" format="2">
	<advance width="600"/>
	<outline>
		<contour>
			<point x="-292" y="151" type="line"/>
			<point x="292" y="342" type="line"/>
			<point x="292" y="556" type="line"/>
			<point x="-292" y="750" type="line"/>
			<point x="-292" y="577" type="line"/>
			<point x="138" y="453" type="line"/>
			<point x="-292" y="323" type="line"/>
		</contour>
		<contour>
			<point x="-292" y="-80" type="line"/>
			<point x="292" y="108" type="line"/>
			<point x="292" y="268" type="line"/>
			<point x="-292" y="80" type="line"/>
		</contour>
	</outline>
</glyph>
<glyph name="greater_equal.med" format="2">
	<advance width="600"/>
	<outline>
		<contour>
			<point x="67" y="0" type="line"/>
			<point x="282" y="0" type="line"/>
			<point x="377" y="118" type="line"/>
			<point x="600" y="118" type="line"/>
			<point x="600" y="278" type="line"/>
			<point x="507" y="278" type="line"/>
			<point x="536" y="314" type="line"/>
			<point x="506" y="351" type="line"/>
			<point x="600" y="351" type="line"/>
			<point x="600" y="511" type="line"/>
			<point x="375" y="511" type="line"/>
			<point x="279" y="629" type="line"/>
			<point x="64" y="629" type="line"/>
			<point x="161" y="511" type="line"/>
			<point x="0" y="511" type="line"/>
			<point x="0" y="351" type="line"/>
			<point x="293" y="351" type="line"/>
			<point x="321" y="318" type="line"/>
			<point x="289" y="278" type="line"/>
			<point x="0" y="278" type="line"/>
			<point x="0" y="118" type="line"/>
			<point x="161" y="118" type="line"/>
		</contour>
	</outline>
</glyph>
<glyph name="greater_equal_greater.rem" format="2">
	<advance width="600"/>
	<outline>
		<contour>
			<point x="-1117" y="0" type="line"/>
			<point x="-900" y="0" type="line"/>
			<point x="-807" y="118" type="line"/>
			<point x="110" y="118" type="line"/>
			<point x="16" y="0" type="line"/>
			<point x="231" y="0" type="line"/>
			<point x="485" y="314" type="line"/>
			<point x="228" y="629" type="line"/>
			<point x="13" y="629" type="line"/>
			<point x="110" y="511" type="line"/>
			<point x="-809" y="511" type="line"/>
			<point x="-903" y="629" type="line"/>
			<point x="-1120" y="629" type="line"/>
			<point x="-895" y="351" type="line"/>
			<point x="242" y="351" type="line"/>
			<point x="270" y="318" type="line"/>
			<point x="238" y="278" type="line"/>
			<point x="-896" y="278" type="line"/>
		</contour>
	</outline>
</glyph>
<glyph name="greater_greater_equal.init" format="2">
	<advance width="600"/>
	<outline>
		<contour>
			<point x="-545" y="0" type="line"/>
			<point x="-325" y="0" type="line"/>
			<point x="-66" y="314" type="line"/>
			<point x="-328" y="629" type="line"/>
			<point x="-548" y="629" type="line"/>
			<point x="-283" y="315" type="line"/>
		</contour>
		<contour>
			<point x="82" y="351" type="line"/>
			<point x="600" y="351" type="line"/>
			<point x="600" y="511" type="line"/>
			<point x="168" y="511" type="line"/>
			<point x="74" y="629" type="line"/>
			<point x="-143" y="629" type="line"/>
		</contour>
		<contour>
			<point x="-140" y="0" type="line"/>
			<point x="77" y="0" type="line"/>
			<point x="170" y="118" type="line"/>
			<point x="600" y="118" type="line"/>
			<point x="600" y="278" type="line"/>
			<point x="81" y="278" type="line"/>
		</contour>
	</outline>
</glyph>
<glyph name="greater_greater_equal.rem" format="2">
	<advance width="600"/>
	<outline>
		<contour>
			<point x="-1125" y="0" type="line"/>
			<point x="-905" y="0" type="line"/>
			<point x="-646" y="314" type="line"/>
			<point x="-908" y="629" type="line"/>
			<point x="-1128" y="629" type="line"/>
			<point x="-863" y="315" type="line"/>
		</contour>
		<contour>
			<point x="-498" y="351" type="line"/>
			<point x="450" y="351" type="line"/>
			<point x="450" y="511" type="line"/>
			<point x="-412" y="511" type="line"/>
			<point x="-506" y="629" type="line"/>
			<point x="-723" y="629" type="line"/>
		</contour>
		<contour>
			<point x="-720" y="0" type="line"/>
			<point x="-503" y="0" type="line"/>
			<point x="-410" y="118" type="line"/>
			<point x="450" y="118" type="line"/>
			<point x="450" y="278" type="line"/>
			<point x="-499" y="278" type="line"/>
		</contour>
	</outline>
</glyph>
<glyph name="greater_greater_hyphen.fina" format="2">
	<advance width="600"/>
	<outline>
		<contour>
			<point x="30" y="0" type="line"/>
			<point x="245" y="0" type="line"/>
			<point x="499" y="314" type="line"/>
			<point x="242" y="629" type="line"/>
			<point x="27" y="629" type="line"/>
			<point x="282" y="318" type="line"/>
		</contour>
		<contour>
			<point x="-600" y="228" type="line"/>
			<point x="-171" y="228" type="line"/>
			<point x="-368" y="0" type="line"/>
			<point x="-151" y="0" type="line"/>
			<point x="113" y="314" type="line"/>
			<point x="-154" y="629" type="line"/>
			<point x="-371" y="629" type="line"/>
			<point x="-171" y="400" type="line"/>
			<point x="-600" y="400" type="line"/>
		</contour>
	</outline>
</glyph>
<glyph name="greater_greater_hyphen.init" format="2">
	<advance width="600"/>
	<outline>
		<contour>
			<point x="-517" y="0" type="line"/>
			<point x="-297" y="0" type="line"/>
			<point x="-38" y="314" type="line"/>
			<point x="-300" y="629" type="line"/>
			<point x="-520" y="629" type="line"/>
			<point x="-252" y="315" type="line"/>
		</contour>
		<contour>
			<point x="-117" y="0" type="line"/>
			<point x="103" y="0" type="line"/>
			<point x="291" y="228" type="line"/>
			<point x="600" y="228" type="line"/>
			<point x="600" y="400" type="line"/>
			<point x="290" y="400" type="line"/>
			<point x="100" y="629" type="line"/>
			<point x="-120" y="629" type="line"/>
			<point x="145" y="315" type="line"/>
		</contour>
	</outline>
</glyph>
<glyph name="greater_hyphen.init" format="2">
	<advance width="600"/>
	<outline>
		<contour>
			<point x="83" y="0" type="line"/>
			<point x="303" y="0" type="line"/>
			<point x="491" y="228" type="line"/>
			<point x="600" y="228" type="line"/>
			<point x="600" y="400" type="line"/>
			<point x="490" y="400" type="line"/>
			<point x="300" y="629" type="line"/>
			<point x="80" y="629" type="line"/>
			<point x="345" y="315" type="line"/>
		</contour>
	</outline>
</glyph>
<glyph name="greater_hyphen.med" format="2">
	<advance width="600"/>
	<outline>
		<contour>
			<point x="57" y="0" type="line"/>
			<point x="274" y="0" type="line"/>
			<point x="466" y="228" type="line"/>
			<point x="600" y="228" type="line"/>
			<point x="600" y="400" type="line"/>
			<point x="465" y="400" type="line"/>
			<point x="271" y="629" type="line"/>
			<point x="54" y="629" type="line"/>
			<point x="254" y="400" type="line"/>
			<point x="0" y="400" type="line"/>
			<point x="0" y="228" type="line"/>
			<point x="254" y="228" type="line"/>
		</contour>
	</outline>
</glyph>
<glyph name="hyphen_asciitilde.cLig" format="2">
	<advance width="600"/>
	<outline>
		<contour>
			<point x="-448" y="218" type="line"/>
			<point x="24" y="218" type="line"/>
			<point x="28" y="255"/>
			<point x="43" y="282"/>
			<point x="75" y="282" type="curve" smooth="yes"/>
			<point x="128" y="282"/>
			<point x="169" y="170"/>
			<point x="284" y="170" type="curve"/>
			<point x="389" y="170"/>
			<point x="442" y="244"/>
			<point x="442" y="441" type="curve"/>
			<point x="301" y="441" type="line"/>
			<point x="301" y="377"/>
			<point x="290" y="346"/>
			<point x="254" y="346" type="curve"/>
			<point x="206" y="346"/>
			<point x="150" y="455"/>
			<point x="48" y="455" type="curve" smooth="yes"/>
			<point x="-5" y="455"/>
			<point x="-44" y="434"/>
			<point x="-69" y="390" type="curve"/>
			<point x="-448" y="390" type="line"/>
		</contour>
	</outline>
</glyph>
<glyph name="less_exclam_hyphen_hyphen.cLig" format="2">
	<advance width="600"/>
	<outline>
		<contour>
			<point x="-1000" y="255" type="line"/>
			<point x="-860" y="255" type="line"/>
			<point x="-823" y="574" type="line"/>
			<point x="-823" y="684" type="line"/>
			<point x="-1036" y="684" type="line"/>
			<point x="-1036" y="574" type="line"/>
		</contour>
		<contour>
			<point x="-1201" y="0" type="line"/>
			<point x="-1401" y="229" type="line"/>
			<point x="-1145" y="229" type="line"/>
			<point x="-1145" y="401" type="line"/>
			<point x="-1401" y="401" type="line"/>
			<point x="-1204" y="629" type="line"/>
			<point x="-1421" y="629" type="line"/>
			<point x="-1685" y="315" type="line"/>
			<point x="-1418" y="0" type="line"/>
		</contour>
		<contour>
			<point x="450" y="400" type="line"/>
			<point x="-715" y="400" type="line"/>
			<point x="-715" y="228" type="line"/>
			<point x="450" y="228" type="line"/>
		</contour>
		<contour>
			<point x="-928" y="-12" type="curve" smooth="yes"/>
			<point x="-852" y="-12"/>
			<point x="-813" y="16"/>
			<point x="-813" y="92" type="curve" smooth="yes"/>
			<point x="-813" y="165"/>
			<point x="-851" y="195"/>
			<point x="-928" y="195" type="curve" smooth="yes"/>
			<point x="-1007" y="195"/>
			<point x="-1045" y="165"/>
			<point x="-1045" y="92" type="curve" smooth="yes"/>
			<point x="-1045" y="16"/>
			<point x="-1006" y="-12"/>
		</contour>
	</outline>
</glyph>
<glyph name="less_hyphen_less.rem" format="2">
	<advance width="600"/>
	<outline>
		<contour>
			<point x="-601" y="-1" type="line"/>
			<point x="-801" y="228" type="line"/>
			<point x="90" y="228" type="line"/>
			<point x="280" y="-1" type="line"/>
			<point x="500" y="-1" type="line"/>
			<point x="235" y="313" type="line"/>
			<point x="497" y="628" type="line"/>
			<point x="277" y="628" type="line"/>
			<point x="89" y="400" type="line"/>
			<point x="-801" y="400" type="line"/>
			<point x="-604" y="628" type="line"/>
			<point x="-821" y="628" type="line"/>
			<point x="-1085" y="314" type="line"/>
			<point x="-818" y="-1" type="line"/>
		</contour>
	</outline>
</glyph>
<glyph name="less_less_equal.fina" format="2">
	<advance width="600"/>
	<outline>
		<contour>
			<point x="545" y="629" type="line"/>
			<point x="325" y="629" type="line"/>
			<point x="66" y="315" type="line"/>
			<point x="328" y="0" type="line"/>
			<point x="548" y="0" type="line"/>
			<point x="283" y="314" type="line"/>
		</contour>
		<contour>
			<point x="-82" y="278" type="line"/>
			<point x="-600" y="278" type="line"/>
			<point x="-600" y="118" type="line"/>
			<point x="-168" y="118" type="line"/>
			<point x="-74" y="0" type="line"/>
			<point x="143" y="0" type="line"/>
		</contour>
		<contour>
			<point x="140" y="629" type="line"/>
			<point x="-77" y="629" type="line"/>
			<point x="-170" y="511" type="line"/>
			<point x="-600" y="511" type="line"/>
			<point x="-600" y="351" type="line"/>
			<point x="-81" y="351" type="line"/>
		</contour>
	</outline>
</glyph>
<glyph name="less_less_equal.init" format="2">
	<advance width="600"/>
	<outline>
		<contour>
			<point x="-30" y="629" type="line"/>
			<point x="-245" y="629" type="line"/>
			<point x="-499" y="315" type="line"/>
			<point x="-242" y="0" type="line"/>
			<point x="-27" y="0" type="line"/>
			<point x="-284" y="311" type="line"/>
		</contour>
		<contour>
			<point x="600" y="511" type="line"/>
			<point x="273" y="511" type="line"/>
			<point x="367" y="629" type="line"/>
			<point x="152" y="629" type="line"/>
			<point x="-102" y="315" type="line"/>
			<point x="155" y="0" type="line"/>
			<point x="370" y="0" type="line"/>
			<point x="273" y="118" type="line"/>
			<point x="600" y="118" type="line"/>
			<point x="600" y="278" type="line"/>
			<point x="141" y="278" type="line"/>
			<point x="113" y="311" type="line"/>
			<point x="145" y="351" type="line"/>
			<point x="600" y="351" type="line"/>
		</contour>
	</outline>
</glyph>
<glyph name="less_less_equal.med" format="2">
	<advance width="600"/>
	<outline>
		<contour>
			<point x="497" y="629" type="line"/>
			<point x="282" y="629" type="line"/>
			<point x="28" y="315" type="line"/>
			<point x="285" y="0" type="line"/>
			<point x="500" y="0" type="line"/>
			<point x="403" y="118" type="line"/>
			<point x="600" y="118" type="line"/>
			<point x="600" y="278" type="line"/>
			<point x="271" y="278" type="line"/>
			<point x="243" y="311" type="line"/>
			<point x="275" y="351" type="line"/>
			<point x="600" y="351" type="line"/>
			<point x="600" y="511" type="line"/>
			<point x="403" y="511" type="line"/>
		</contour>
		<contour>
			<point x="-125" y="278" type="line"/>
			<point x="-600" y="278" type="line"/>
			<point x="-600" y="118" type="line"/>
			<point x="-211" y="118" type="line"/>
			<point x="-117" y="0" type="line"/>
			<point x="100" y="0" type="line"/>
		</contour>
		<contour>
			<point x="97" y="629" type="line"/>
			<point x="-120" y="629" type="line"/>
			<point x="-213" y="511" type="line"/>
			<point x="-600" y="511" type="line"/>
			<point x="-600" y="351" type="line"/>
			<point x="-124" y="351" type="line"/>
		</contour>
	</outline>
</glyph>
<glyph name="less_less_hyphen.fina" format="2">
	<advance width="600"/>
	<outline>
		<contour>
			<point x="517" y="629" type="line"/>
			<point x="297" y="629" type="line"/>
			<point x="38" y="315" type="line"/>
			<point x="300" y="0" type="line"/>
			<point x="520" y="0" type="line"/>
			<point x="252" y="314" type="line"/>
		</contour>
		<contour>
			<point x="117" y="629" type="line"/>
			<point x="-103" y="629" type="line"/>
			<point x="-291" y="401" type="line"/>
			<point x="-600" y="401" type="line"/>
			<point x="-600" y="229" type="line"/>
			<point x="-290" y="229" type="line"/>
			<point x="-100" y="0" type="line"/>
			<point x="120" y="0" type="line"/>
			<point x="-145" y="314" type="line"/>
		</contour>
	</outline>
</glyph>
<glyph name="less_question.cLig" format="2">
	<advance width="600"/>
	<outline>
		<contour>
			<point x="-51" y="448" type="line" smooth="yes"/>
			<point x="114" y="513"/>
			<point x="198" y="531"/>
			<point x="253" y="531" type="curve"/>
			<point x="304" y="531"/>
			<point x="321" y="511"/>
			<point x="321" y="485" type="curve" smooth="yes"/>
			<point x="321" y="412"/>
			<point x="158" y="405"/>
			<point x="158" y="290" type="curve" smooth="yes"/>
			<point x="158" y="277"/>
			<point x="160" y="268"/>
			<point x="165" y="255" type="curve"/>
			<point x="338" y="255" type="line"/>
			<point x="338" y="270" type="line" smooth="yes"/>
			<point x="338" y="328"/>
			<point x="515" y="356"/>
			<point x="515" y="517" type="curve" smooth="yes"/>
			<point x="515" y="621"/>
			<point x="438" y="698"/>
			<point x="281" y="698" type="curve"/>
			<point x="171" y="698"/>
			<point x="60" y="669"/>
			<point x="-102" y="602" type="curve" smooth="yes"/>
			<point x="-540" y="422" type="line"/>
			<point x="-540" y="208" type="line"/>
			<point x="-52" y="11" type="line"/>
			<point x="-52" y="192" type="line"/>
			<point x="-386" y="317" type="line"/>
		</contour>
		<contour>
			<point x="250" y="-12" type="curve" smooth="yes"/>
			<point x="326" y="-12"/>
			<point x="365" y="16"/>
			<point x="365" y="92" type="curve" smooth="yes"/>
			<point x="365" y="165"/>
			<point x="327" y="195"/>
			<point x="250" y="195" type="curve" smooth="yes"/>
			<point x="171" y="195"/>
			<point x="133" y="165"/>
			<point x="133" y="92" type="curve" smooth="yes"/>
			<point x="133" y="16"/>
			<point x="172" y="-12"/>
		</contour>
	</outline>
</glyph>
<glyph name="less_slash_greater.cLig" format="2">
	<advance width="600"/>
	<outline>
		<contour>
			<point x="-14" y="14" type="line"/>
			<point x="440" y="208" type="line"/>
			<point x="440" y="422" type="line"/>
			<point x="-89" y="661" type="line"/>
			<point x="-45" y="792" type="line"/>
			<point x="-235" y="792" type="line"/>
			<point x="-459" y="127" type="line"/>
			<point x="-884" y="315" type="line"/>
			<point x="-586" y="434" type="line"/>
			<point x="-586" y="616" type="line"/>
			<point x="-1040" y="422" type="line"/>
			<point x="-1040" y="208" type="line"/>
			<point x="-512" y="-31" type="line"/>
			<point x="-557" y="-163" type="line"/>
			<point x="-368" y="-163" type="line"/>
			<point x="-143" y="503" type="line"/>
			<point x="284" y="315" type="line"/>
			<point x="-14" y="196" type="line"/>
		</contour>
	</outline>
</glyph>
<glyph name="lslashcomb" format="2">
	<advance width="600"/>
	<outline>
		<contour>
			<point x="10" y="313" type="line"/>
			<point x="468" y="480" type="line"/>
			<point x="468" y="607" type="line"/>
			<point x="10" y="440" type="line"/>
		</contour>
	</outline>
	<anchor name="_center" x="240" y="454"/>
	<guideline x="10" y="314" angle="21.6628"/>
</glyph>
<glyph name="macron.cap" format="2">
	<advance width="600"/>
	<outline>
		<contour>
			<point x="130" y="750" type="line"/>
			<point x="470" y="750" type="line"/>
			<point x="470" y="855" type="line"/>
			<point x="130" y="855" type="line"/>
		</contour>
	</outline>
	<anchor name="_top" x="301" y="684"/>
</glyph>
<glyph name="numbersign.med" format="2">
	<advance width="600"/>
	<outline>
		<contour>
			<point x="0" y="289" type="line"/>
			<point x="0" y="148" type="line"/>
			<point x="95" y="148" type="line"/>
			<point x="81" y="0" type="line"/>
			<point x="224" y="0" type="line"/>
			<point x="238" y="148" type="line"/>
			<point x="328" y="148" type="line"/>
			<point x="314" y="0" type="line"/>
			<point x="456" y="0" type="line"/>
			<point x="470" y="148" type="line"/>
			<point x="600" y="148" type="line"/>
			<point x="600" y="289" type="line"/>
			<point x="483" y="289" type="line"/>
			<point x="494" y="399" type="line"/>
			<point x="600" y="399" type="line"/>
			<point x="600" y="540" type="line"/>
			<point x="507" y="540" type="line"/>
			<point x="521" y="684" type="line"/>
			<point x="379" y="684" type="line"/>
			<point x="365" y="540" type="line"/>
			<point x="275" y="540" type="line"/>
			<point x="288" y="684" type="line"/>
			<point x="146" y="684" type="line"/>
			<point x="132" y="540" type="line"/>
			<point x="0" y="540" type="line"/>
			<point x="0" y="399" type="line"/>
			<point x="119" y="399" type="line"/>
			<point x="108" y="289" type="line"/>
		</contour>
		<contour>
			<point x="251" y="289" type="line"/>
			<point x="261" y="399" type="line"/>
			<point x="352" y="399" type="line"/>
			<point x="341" y="289" type="line"/>
		</contour>
	</outline>
</glyph>
<glyph name="numbersign_braceright_braceright.cLig" format="2">
	<advance width="600"/>
	<outline>
		<contour>
			<point x="37" y="790" type="line"/>
			<point x="37" y="653" type="line"/>
			<point x="169" y="653" type="line" smooth="yes"/>
			<point x="212" y="653"/>
			<point x="226" y="628"/>
			<point x="226" y="608" type="curve"/>
			<point x="226" y="538"/>
			<point x="153" y="508"/>
			<point x="153" y="421" type="curve" smooth="yes"/>
			<point x="153" y="367"/>
			<point x="204" y="323"/>
			<point x="286" y="311" type="curve"/>
			<point x="199" y="299"/>
			<point x="152" y="250"/>
			<point x="152" y="194" type="curve"/>
			<point x="152" y="114"/>
			<point x="226" y="75"/>
			<point x="226" y="23" type="curve" smooth="yes"/>
			<point x="226" y="-4"/>
			<point x="211" y="-26"/>
			<point x="161" y="-26" type="curve"/>
			<point x="-149" y="-26" type="line"/>
			<point x="-81" y="-11"/>
			<point x="-56" y="28"/>
			<point x="-56" y="64" type="curve"/>
			<point x="-56" y="126"/>
			<point x="-118" y="149"/>
			<point x="-118" y="193" type="curve" smooth="yes"/>
			<point x="-118" y="218"/>
			<point x="-101" y="236"/>
			<point x="-69" y="236" type="curve" smooth="yes"/>
			<point x="32" y="236" type="line"/>
			<point x="32" y="391" type="line"/>
			<point x="-70" y="391" type="line" smooth="yes"/>
			<point x="-118" y="391"/>
			<point x="-131" y="418"/>
			<point x="-131" y="443" type="curve"/>
			<point x="-131" y="517"/>
			<point x="-57" y="552"/>
			<point x="-57" y="642" type="curve"/>
			<point x="-57" y="725"/>
			<point x="-114" y="790"/>
			<point x="-234" y="790" type="curve" smooth="yes"/>
			<point x="-445" y="790" type="line"/>
			<point x="-445" y="653" type="line"/>
			<point x="-313" y="653" type="line" smooth="yes"/>
			<point x="-270" y="653"/>
			<point x="-256" y="635"/>
			<point x="-256" y="609" type="curve"/>
			<point x="-256" y="555"/>
			<point x="-325" y="513"/>
			<point x="-325" y="432" type="curve"/>
			<point x="-325" y="370"/>
			<point x="-276" y="326"/>
			<point x="-201" y="311" type="curve"/>
			<point x="-273" y="294"/>
			<point x="-329" y="254"/>
			<point x="-329" y="195" type="curve"/>
			<point x="-329" y="116"/>
			<point x="-255" y="75"/>
			<point x="-255" y="23" type="curve" smooth="yes"/>
			<point x="-255" y="-4"/>
			<point x="-274" y="-26"/>
			<point x="-324" y="-26" type="curve" smooth="yes"/>
			<point x="-478" y="-26" type="line"/>
			<point x="-478" y="-163" type="line"/>
			<point x="248" y="-163" type="line" smooth="yes"/>
			<point x="362" y="-163"/>
			<point x="425" y="-86"/>
			<point x="425" y="-12" type="curve" smooth="yes"/>
			<point x="425" y="84"/>
			<point x="352" y="123"/>
			<point x="352" y="183" type="curve" smooth="yes"/>
			<point x="352" y="209"/>
			<point x="370" y="237"/>
			<point x="402" y="237" type="curve" smooth="yes"/>
			<point x="502" y="237" type="line"/>
			<point x="502" y="391" type="line"/>
			<point x="402" y="391" type="line" smooth="yes"/>
			<point x="370" y="391"/>
			<point x="352" y="417"/>
			<point x="352" y="443" type="curve" smooth="yes"/>
			<point x="352" y="509"/>
			<point x="425" y="539"/>
			<point x="425" y="642" type="curve"/>
			<point x="425" y="726"/>
			<point x="359" y="790"/>
			<point x="248" y="790" type="curve" smooth="yes"/>
		</contour>
		<contour>
			<point x="-1077" y="289" type="line"/>
			<point x="-1077" y="148" type="line"/>
			<point x="-993" y="148" type="line"/>
			<point x="-1007" y="0" type="line"/>
			<point x="-864" y="0" type="line"/>
			<point x="-850" y="148" type="line"/>
			<point x="-760" y="148" type="line"/>
			<point x="-774" y="0" type="line"/>
			<point x="-632" y="0" type="line"/>
			<point x="-618" y="148" type="line"/>
			<point x="-488" y="148" type="line"/>
			<point x="-488" y="289" type="line"/>
			<point x="-605" y="289" type="line"/>
			<point x="-594" y="399" type="line"/>
			<point x="-488" y="399" type="line"/>
			<point x="-488" y="540" type="line"/>
			<point x="-581" y="540" type="line"/>
			<point x="-567" y="684" type="line"/>
			<point x="-709" y="684" type="line"/>
			<point x="-723" y="540" type="line"/>
			<point x="-813" y="540" type="line"/>
			<point x="-800" y="684" type="line"/>
			<point x="-942" y="684" type="line"/>
			<point x="-956" y="540" type="line"/>
			<point x="-1052" y="540" type="line"/>
			<point x="-1052" y="399" type="line"/>
			<point x="-969" y="399" type="line"/>
			<point x="-980" y="289" type="line"/>
		</contour>
		<contour>
			<point x="-837" y="289" type="line"/>
			<point x="-827" y="399" type="line"/>
			<point x="-736" y="399" type="line"/>
			<point x="-747" y="289" type="line"/>
		</contour>
	</outline>
</glyph>
<glyph name="numbersign_bracketright_bracketright.cLig" format="2">
	<advance width="600"/>
	<outline>
		<contour>
			<point x="432" y="792" type="line"/>
			<point x="12" y="792" type="line"/>
			<point x="12" y="655" type="line"/>
			<point x="251" y="655" type="line"/>
			<point x="251" y="-26" type="line"/>
			<point x="12" y="-26" type="line"/>
			<point x="12" y="-163" type="line"/>
			<point x="432" y="-163" type="line"/>
		</contour>
		<contour>
			<point x="-62" y="792" type="line"/>
			<point x="-434" y="792" type="line"/>
			<point x="-434" y="655" type="line"/>
			<point x="-243" y="655" type="line"/>
			<point x="-243" y="-26" type="line"/>
			<point x="-434" y="-26" type="line"/>
			<point x="-434" y="-163" type="line"/>
			<point x="-62" y="-163" type="line"/>
		</contour>
		<contour>
			<point x="-1069" y="289" type="line"/>
			<point x="-1069" y="148" type="line"/>
			<point x="-985" y="148" type="line"/>
			<point x="-999" y="0" type="line"/>
			<point x="-856" y="0" type="line"/>
			<point x="-842" y="148" type="line"/>
			<point x="-752" y="148" type="line"/>
			<point x="-766" y="0" type="line"/>
			<point x="-624" y="0" type="line"/>
			<point x="-610" y="148" type="line"/>
			<point x="-480" y="148" type="line"/>
			<point x="-480" y="289" type="line"/>
			<point x="-597" y="289" type="line"/>
			<point x="-586" y="399" type="line"/>
			<point x="-480" y="399" type="line"/>
			<point x="-480" y="540" type="line"/>
			<point x="-573" y="540" type="line"/>
			<point x="-559" y="684" type="line"/>
			<point x="-701" y="684" type="line"/>
			<point x="-715" y="540" type="line"/>
			<point x="-805" y="540" type="line"/>
			<point x="-792" y="684" type="line"/>
			<point x="-934" y="684" type="line"/>
			<point x="-948" y="540" type="line"/>
			<point x="-1044" y="540" type="line"/>
			<point x="-1044" y="399" type="line"/>
			<point x="-961" y="399" type="line"/>
			<point x="-972" y="289" type="line"/>
		</contour>
		<contour>
			<point x="-829" y="289" type="line"/>
			<point x="-819" y="399" type="line"/>
			<point x="-728" y="399" type="line"/>
			<point x="-739" y="289" type="line"/>
		</contour>
	</outline>
</glyph>
<glyph name="numbersign_colon.cLig_rem" format="2">
	<advance width="600"/>
	<outline>
		<contour>
			<point x="353" y="64" type="curve" smooth="yes"/>
			<point x="436" y="64"/>
			<point x="479" y="95"/>
			<point x="479" y="178" type="curve" smooth="yes"/>
			<point x="479" y="260"/>
			<point x="436" y="291"/>
			<point x="353" y="291" type="curve" smooth="yes"/>
			<point x="270" y="291"/>
			<point x="227" y="260"/>
			<point x="227" y="178" type="curve" smooth="yes"/>
			<point x="227" y="95"/>
			<point x="270" y="64"/>
		</contour>
		<contour>
			<point x="-480" y="289" type="line"/>
			<point x="-480" y="148" type="line"/>
			<point x="-396" y="148" type="line"/>
			<point x="-410" y="0" type="line"/>
			<point x="-267" y="0" type="line"/>
			<point x="-253" y="148" type="line"/>
			<point x="-163" y="148" type="line"/>
			<point x="-177" y="0" type="line"/>
			<point x="-35" y="0" type="line"/>
			<point x="-21" y="148" type="line"/>
			<point x="109" y="148" type="line"/>
			<point x="109" y="289" type="line"/>
			<point x="-8" y="289" type="line"/>
			<point x="3" y="399" type="line"/>
			<point x="109" y="399" type="line"/>
			<point x="109" y="540" type="line"/>
			<point x="16" y="540" type="line"/>
			<point x="30" y="684" type="line"/>
			<point x="-112" y="684" type="line"/>
			<point x="-126" y="540" type="line"/>
			<point x="-216" y="540" type="line"/>
			<point x="-203" y="684" type="line"/>
			<point x="-345" y="684" type="line"/>
			<point x="-359" y="540" type="line"/>
			<point x="-455" y="540" type="line"/>
			<point x="-455" y="399" type="line"/>
			<point x="-372" y="399" type="line"/>
			<point x="-383" y="289" type="line"/>
		</contour>
		<contour>
			<point x="-240" y="289" type="line"/>
			<point x="-230" y="399" type="line"/>
			<point x="-139" y="399" type="line"/>
			<point x="-150" y="289" type="line"/>
		</contour>
		<contour>
			<point x="353" y="384" type="curve" smooth="yes"/>
			<point x="436" y="384"/>
			<point x="479" y="415"/>
			<point x="479" y="498" type="curve" smooth="yes"/>
			<point x="479" y="580"/>
			<point x="436" y="611"/>
			<point x="353" y="611" type="curve" smooth="yes"/>
			<point x="270" y="611"/>
			<point x="227" y="580"/>
			<point x="227" y="498" type="curve" smooth="yes"/>
			<point x="227" y="415"/>
			<point x="270" y="384"/>
		</contour>
	</outline>
</glyph>
<glyph name="numbersign_exclam.cLig" format="2">
	<advance width="600"/>
	<outline>
		<contour>
			<point x="277" y="255" type="line"/>
			<point x="417" y="255" type="line"/>
			<point x="454" y="574" type="line"/>
			<point x="454" y="684" type="line"/>
			<point x="241" y="684" type="line"/>
			<point x="241" y="574" type="line"/>
		</contour>
		<contour>
			<point x="349" y="-12" type="curve" smooth="yes"/>
			<point x="425" y="-12"/>
			<point x="464" y="16"/>
			<point x="464" y="92" type="curve" smooth="yes"/>
			<point x="464" y="165"/>
			<point x="426" y="195"/>
			<point x="349" y="195" type="curve" smooth="yes"/>
			<point x="270" y="195"/>
			<point x="232" y="165"/>
			<point x="232" y="92" type="curve" smooth="yes"/>
			<point x="232" y="16"/>
			<point x="271" y="-12"/>
		</contour>
		<contour>
			<point x="-480" y="289" type="line"/>
			<point x="-480" y="148" type="line"/>
			<point x="-396" y="148" type="line"/>
			<point x="-410" y="0" type="line"/>
			<point x="-267" y="0" type="line"/>
			<point x="-253" y="148" type="line"/>
			<point x="-163" y="148" type="line"/>
			<point x="-177" y="0" type="line"/>
			<point x="-35" y="0" type="line"/>
			<point x="-21" y="148" type="line"/>
			<point x="109" y="148" type="line"/>
			<point x="109" y="289" type="line"/>
			<point x="-8" y="289" type="line"/>
			<point x="3" y="399" type="line"/>
			<point x="109" y="399" type="line"/>
			<point x="109" y="540" type="line"/>
			<point x="16" y="540" type="line"/>
			<point x="30" y="684" type="line"/>
			<point x="-112" y="684" type="line"/>
			<point x="-126" y="540" type="line"/>
			<point x="-216" y="540" type="line"/>
			<point x="-203" y="684" type="line"/>
			<point x="-345" y="684" type="line"/>
			<point x="-359" y="540" type="line"/>
			<point x="-455" y="540" type="line"/>
			<point x="-455" y="399" type="line"/>
			<point x="-372" y="399" type="line"/>
			<point x="-383" y="289" type="line"/>
		</contour>
		<contour>
			<point x="-240" y="289" type="line"/>
			<point x="-230" y="399" type="line"/>
			<point x="-139" y="399" type="line"/>
			<point x="-150" y="289" type="line"/>
		</contour>
	</outline>
</glyph>
<glyph name="numbersign_numbersign.cLig.x" format="2">
	<advance width="600"/>
	<outline>
		<contour>
			<point x="-520" y="148" type="line"/>
			<point x="-396" y="148" type="line"/>
			<point x="-410" y="0" type="line"/>
			<point x="-267" y="0" type="line"/>
			<point x="-253" y="148" type="line"/>
			<point x="-88" y="148" type="line"/>
			<point x="-102" y="0" type="line"/>
			<point x="41" y="0" type="line"/>
			<point x="55" y="148" type="line"/>
			<point x="220" y="148" type="line"/>
			<point x="206" y="0" type="line"/>
			<point x="348" y="0" type="line"/>
			<point x="362" y="148" type="line"/>
			<point x="498" y="148" type="line"/>
			<point x="498" y="289" type="line"/>
			<point x="375" y="289" type="line"/>
			<point x="386" y="399" type="line"/>
			<point x="521" y="399" type="line"/>
			<point x="521" y="540" type="line"/>
			<point x="399" y="540" type="line"/>
			<point x="413" y="684" type="line"/>
			<point x="271" y="684" type="line"/>
			<point x="257" y="540" type="line"/>
			<point x="92" y="540" type="line"/>
			<point x="105" y="684" type="line"/>
			<point x="-37" y="684" type="line"/>
			<point x="-51" y="540" type="line"/>
			<point x="-216" y="540" type="line"/>
			<point x="-203" y="684" type="line"/>
			<point x="-345" y="684" type="line"/>
			<point x="-359" y="540" type="line"/>
			<point x="-495" y="540" type="line"/>
			<point x="-495" y="399" type="line"/>
			<point x="-372" y="399" type="line"/>
			<point x="-383" y="289" type="line"/>
			<point x="-520" y="289" type="line"/>
		</contour>
		<contour>
			<point x="-240" y="289" type="line"/>
			<point x="-230" y="399" type="line"/>
			<point x="-64" y="399" type="line"/>
			<point x="-75" y="289" type="line"/>
		</contour>
		<contour>
			<point x="68" y="289" type="line"/>
			<point x="78" y="399" type="line"/>
			<point x="244" y="399" type="line"/>
			<point x="233" y="289" type="line"/>
		</contour>
	</outline>
</glyph>
<glyph name="numbersign_numbersign.rem" format="2">
	<advance width="600"/>
	<outline>
		<contour>
			<point x="-569" y="289" type="line"/>
			<point x="-569" y="148" type="line"/>
			<point x="-485" y="148" type="line"/>
			<point x="-499" y="0" type="line"/>
			<point x="-356" y="0" type="line"/>
			<point x="-342" y="148" type="line"/>
			<point x="-252" y="148" type="line"/>
			<point x="-266" y="0" type="line"/>
			<point x="-124" y="0" type="line"/>
			<point x="-110" y="148" type="line"/>
			<point x="75" y="148" type="line"/>
			<point x="61" y="0" type="line"/>
			<point x="204" y="0" type="line"/>
			<point x="218" y="148" type="line"/>
			<point x="308" y="148" type="line"/>
			<point x="294" y="0" type="line"/>
			<point x="436" y="0" type="line"/>
			<point x="450" y="148" type="line"/>
			<point x="546" y="148" type="line"/>
			<point x="546" y="289" type="line"/>
			<point x="463" y="289" type="line"/>
			<point x="474" y="399" type="line"/>
			<point x="569" y="399" type="line"/>
			<point x="569" y="540" type="line"/>
			<point x="487" y="540" type="line"/>
			<point x="501" y="684" type="line"/>
			<point x="359" y="684" type="line"/>
			<point x="345" y="540" type="line"/>
			<point x="255" y="540" type="line"/>
			<point x="268" y="684" type="line"/>
			<point x="126" y="684" type="line"/>
			<point x="112" y="540" type="line"/>
			<point x="-73" y="540" type="line"/>
			<point x="-59" y="684" type="line"/>
			<point x="-201" y="684" type="line"/>
			<point x="-215" y="540" type="line"/>
			<point x="-305" y="540" type="line"/>
			<point x="-292" y="684" type="line"/>
			<point x="-434" y="684" type="line"/>
			<point x="-448" y="540" type="line"/>
			<point x="-544" y="540" type="line"/>
			<point x="-544" y="399" type="line"/>
			<point x="-461" y="399" type="line"/>
			<point x="-472" y="289" type="line"/>
		</contour>
		<contour>
			<point x="88" y="289" type="line"/>
			<point x="-97" y="289" type="line"/>
			<point x="-86" y="399" type="line"/>
			<point x="99" y="399" type="line"/>
		</contour>
		<contour>
			<point x="-329" y="289" type="line"/>
			<point x="-319" y="399" type="line"/>
			<point x="-228" y="399" type="line"/>
			<point x="-239" y="289" type="line"/>
		</contour>
		<contour>
			<point x="231" y="289" type="line"/>
			<point x="241" y="399" type="line"/>
			<point x="332" y="399" type="line"/>
			<point x="321" y="289" type="line"/>
		</contour>
	</outline>
</glyph>
<glyph name="numbersign_numbersign_numbersign.cLig.x" format="2">
	<advance width="600"/>
	<outline>
		<contour>
			<point x="-1060" y="148" type="line"/>
			<point x="-896" y="148" type="line"/>
			<point x="-910" y="0" type="line"/>
			<point x="-767" y="0" type="line"/>
			<point x="-753" y="148" type="line"/>
			<point x="-558" y="148" type="line"/>
			<point x="-572" y="0" type="line"/>
			<point x="-430" y="0" type="line"/>
			<point x="-416" y="148" type="line"/>
			<point x="-219" y="148" type="line"/>
			<point x="-233" y="0" type="line"/>
			<point x="-91" y="0" type="line"/>
			<point x="-77" y="148" type="line"/>
			<point x="119" y="148" type="line"/>
			<point x="105" y="0" type="line"/>
			<point x="247" y="0" type="line"/>
			<point x="261" y="148" type="line"/>
			<point x="437" y="148" type="line"/>
			<point x="437" y="289" type="line"/>
			<point x="274" y="289" type="line"/>
			<point x="285" y="399" type="line"/>
			<point x="460" y="399" type="line"/>
			<point x="460" y="540" type="line"/>
			<point x="298" y="540" type="line"/>
			<point x="312" y="684" type="line"/>
			<point x="170" y="684" type="line"/>
			<point x="156" y="540" type="line"/>
			<point x="-40" y="540" type="line"/>
			<point x="-26" y="684" type="line"/>
			<point x="-168" y="684" type="line"/>
			<point x="-182" y="540" type="line"/>
			<point x="-379" y="540" type="line"/>
			<point x="-365" y="684" type="line"/>
			<point x="-507" y="684" type="line"/>
			<point x="-521" y="540" type="line"/>
			<point x="-716" y="540" type="line"/>
			<point x="-703" y="684" type="line"/>
			<point x="-845" y="684" type="line"/>
			<point x="-859" y="540" type="line"/>
			<point x="-1035" y="540" type="line"/>
			<point x="-1035" y="399" type="line"/>
			<point x="-872" y="399" type="line"/>
			<point x="-883" y="289" type="line"/>
			<point x="-1060" y="289" type="line"/>
		</contour>
		<contour>
			<point x="-740" y="289" type="line"/>
			<point x="-730" y="399" type="line"/>
			<point x="-534" y="399" type="line"/>
			<point x="-545" y="289" type="line"/>
		</contour>
		<contour>
			<point x="-403" y="289" type="line"/>
			<point x="-392" y="399" type="line"/>
			<point x="-195" y="399" type="line"/>
			<point x="-206" y="289" type="line"/>
		</contour>
		<contour>
			<point x="-64" y="289" type="line"/>
			<point x="-53" y="399" type="line"/>
			<point x="143" y="399" type="line"/>
			<point x="132" y="289" type="line"/>
		</contour>
	</outline>
</glyph>
<glyph name="numbersign_numbersign_numbersign_numbersign.cLig.x" format="2">
	<advance width="600"/>
	<outline>
		<contour>
			<point x="-1640" y="148" type="line"/>
			<point x="-1435" y="148" type="line"/>
			<point x="-1449" y="0" type="line"/>
			<point x="-1306" y="0" type="line"/>
			<point x="-1292" y="148" type="line"/>
			<point x="-1062" y="148" type="line"/>
			<point x="-1076" y="0" type="line"/>
			<point x="-934" y="0" type="line"/>
			<point x="-920" y="148" type="line"/>
			<point x="-688" y="148" type="line"/>
			<point x="-702" y="0" type="line"/>
			<point x="-560" y="0" type="line"/>
			<point x="-546" y="148" type="line"/>
			<point x="-315" y="148" type="line"/>
			<point x="-329" y="0" type="line"/>
			<point x="-187" y="0" type="line"/>
			<point x="-173" y="148" type="line"/>
			<point x="58" y="148" type="line"/>
			<point x="44" y="0" type="line"/>
			<point x="186" y="0" type="line"/>
			<point x="200" y="148" type="line"/>
			<point x="417" y="148" type="line"/>
			<point x="417" y="289" type="line"/>
			<point x="213" y="289" type="line"/>
			<point x="224" y="399" type="line"/>
			<point x="440" y="399" type="line"/>
			<point x="440" y="540" type="line"/>
			<point x="237" y="540" type="line"/>
			<point x="251" y="684" type="line"/>
			<point x="109" y="684" type="line"/>
			<point x="95" y="540" type="line"/>
			<point x="-136" y="540" type="line"/>
			<point x="-122" y="684" type="line"/>
			<point x="-264" y="684" type="line"/>
			<point x="-278" y="540" type="line"/>
			<point x="-509" y="540" type="line"/>
			<point x="-495" y="684" type="line"/>
			<point x="-637" y="684" type="line"/>
			<point x="-651" y="540" type="line"/>
			<point x="-883" y="540" type="line"/>
			<point x="-869" y="684" type="line"/>
			<point x="-1011" y="684" type="line"/>
			<point x="-1025" y="540" type="line"/>
			<point x="-1255" y="540" type="line"/>
			<point x="-1242" y="684" type="line"/>
			<point x="-1384" y="684" type="line"/>
			<point x="-1398" y="540" type="line"/>
			<point x="-1615" y="540" type="line"/>
			<point x="-1615" y="399" type="line"/>
			<point x="-1411" y="399" type="line"/>
			<point x="-1422" y="289" type="line"/>
			<point x="-1640" y="289" type="line"/>
		</contour>
		<contour>
			<point x="-1279" y="289" type="line"/>
			<point x="-1269" y="399" type="line"/>
			<point x="-1038" y="399" type="line"/>
			<point x="-1049" y="289" type="line"/>
		</contour>
		<contour>
			<point x="-907" y="289" type="line"/>
			<point x="-896" y="399" type="line"/>
			<point x="-664" y="399" type="line"/>
			<point x="-675" y="289" type="line"/>
		</contour>
		<contour>
			<point x="-533" y="289" type="line"/>
			<point x="-522" y="399" type="line"/>
			<point x="-291" y="399" type="line"/>
			<point x="-302" y="289" type="line"/>
		</contour>
		<contour>
			<point x="-160" y="289" type="line"/>
			<point x="-149" y="399" type="line"/>
			<point x="82" y="399" type="line"/>
			<point x="71" y="289" type="line"/>
		</contour>
	</outline>
</glyph>
